G75*
G70*
%OFA0B0*%
%FSLAX24Y24*%
%IPPOS*%
%LPD*%
%AMOC8*
5,1,8,0,0,1.08239X$1,22.5*
%
%ADD10C,0.0000*%
%ADD11C,0.0591*%
%ADD12OC8,0.0780*%
%ADD13C,0.0780*%
%ADD14R,0.1640X0.0640*%
%ADD15C,0.0276*%
%ADD16R,0.0434X0.0197*%
%ADD17C,0.0148*%
%ADD18R,0.0394X0.0316*%
%ADD19R,0.0910X0.0280*%
%ADD20R,0.0290X0.0540*%
%ADD21R,0.0512X0.1615*%
%ADD22R,0.0316X0.0394*%
D10*
X000260Y000270D02*
X000260Y010370D01*
X019910Y010370D01*
X019910Y000270D01*
X000260Y000270D01*
X000734Y001020D02*
X000736Y001053D01*
X000742Y001085D01*
X000751Y001116D01*
X000764Y001146D01*
X000781Y001174D01*
X000801Y001200D01*
X000824Y001224D01*
X000849Y001244D01*
X000877Y001262D01*
X000906Y001276D01*
X000937Y001286D01*
X000969Y001293D01*
X001002Y001296D01*
X001035Y001295D01*
X001067Y001290D01*
X001098Y001281D01*
X001129Y001269D01*
X001157Y001253D01*
X001184Y001234D01*
X001208Y001212D01*
X001229Y001187D01*
X001248Y001160D01*
X001263Y001131D01*
X001274Y001101D01*
X001282Y001069D01*
X001286Y001036D01*
X001286Y001004D01*
X001282Y000971D01*
X001274Y000939D01*
X001263Y000909D01*
X001248Y000880D01*
X001229Y000853D01*
X001208Y000828D01*
X001184Y000806D01*
X001157Y000787D01*
X001129Y000771D01*
X001098Y000759D01*
X001067Y000750D01*
X001035Y000745D01*
X001002Y000744D01*
X000969Y000747D01*
X000937Y000754D01*
X000906Y000764D01*
X000877Y000778D01*
X000849Y000796D01*
X000824Y000816D01*
X000801Y000840D01*
X000781Y000866D01*
X000764Y000894D01*
X000751Y000924D01*
X000742Y000955D01*
X000736Y000987D01*
X000734Y001020D01*
X000734Y002370D02*
X000736Y002403D01*
X000742Y002435D01*
X000751Y002466D01*
X000764Y002496D01*
X000781Y002524D01*
X000801Y002550D01*
X000824Y002574D01*
X000849Y002594D01*
X000877Y002612D01*
X000906Y002626D01*
X000937Y002636D01*
X000969Y002643D01*
X001002Y002646D01*
X001035Y002645D01*
X001067Y002640D01*
X001098Y002631D01*
X001129Y002619D01*
X001157Y002603D01*
X001184Y002584D01*
X001208Y002562D01*
X001229Y002537D01*
X001248Y002510D01*
X001263Y002481D01*
X001274Y002451D01*
X001282Y002419D01*
X001286Y002386D01*
X001286Y002354D01*
X001282Y002321D01*
X001274Y002289D01*
X001263Y002259D01*
X001248Y002230D01*
X001229Y002203D01*
X001208Y002178D01*
X001184Y002156D01*
X001157Y002137D01*
X001129Y002121D01*
X001098Y002109D01*
X001067Y002100D01*
X001035Y002095D01*
X001002Y002094D01*
X000969Y002097D01*
X000937Y002104D01*
X000906Y002114D01*
X000877Y002128D01*
X000849Y002146D01*
X000824Y002166D01*
X000801Y002190D01*
X000781Y002216D01*
X000764Y002244D01*
X000751Y002274D01*
X000742Y002305D01*
X000736Y002337D01*
X000734Y002370D01*
X000734Y003200D02*
X000736Y003233D01*
X000742Y003265D01*
X000751Y003296D01*
X000764Y003326D01*
X000781Y003354D01*
X000801Y003380D01*
X000824Y003404D01*
X000849Y003424D01*
X000877Y003442D01*
X000906Y003456D01*
X000937Y003466D01*
X000969Y003473D01*
X001002Y003476D01*
X001035Y003475D01*
X001067Y003470D01*
X001098Y003461D01*
X001129Y003449D01*
X001157Y003433D01*
X001184Y003414D01*
X001208Y003392D01*
X001229Y003367D01*
X001248Y003340D01*
X001263Y003311D01*
X001274Y003281D01*
X001282Y003249D01*
X001286Y003216D01*
X001286Y003184D01*
X001282Y003151D01*
X001274Y003119D01*
X001263Y003089D01*
X001248Y003060D01*
X001229Y003033D01*
X001208Y003008D01*
X001184Y002986D01*
X001157Y002967D01*
X001129Y002951D01*
X001098Y002939D01*
X001067Y002930D01*
X001035Y002925D01*
X001002Y002924D01*
X000969Y002927D01*
X000937Y002934D01*
X000906Y002944D01*
X000877Y002958D01*
X000849Y002976D01*
X000824Y002996D01*
X000801Y003020D01*
X000781Y003046D01*
X000764Y003074D01*
X000751Y003104D01*
X000742Y003135D01*
X000736Y003167D01*
X000734Y003200D01*
X000734Y007570D02*
X000736Y007603D01*
X000742Y007635D01*
X000751Y007666D01*
X000764Y007696D01*
X000781Y007724D01*
X000801Y007750D01*
X000824Y007774D01*
X000849Y007794D01*
X000877Y007812D01*
X000906Y007826D01*
X000937Y007836D01*
X000969Y007843D01*
X001002Y007846D01*
X001035Y007845D01*
X001067Y007840D01*
X001098Y007831D01*
X001129Y007819D01*
X001157Y007803D01*
X001184Y007784D01*
X001208Y007762D01*
X001229Y007737D01*
X001248Y007710D01*
X001263Y007681D01*
X001274Y007651D01*
X001282Y007619D01*
X001286Y007586D01*
X001286Y007554D01*
X001282Y007521D01*
X001274Y007489D01*
X001263Y007459D01*
X001248Y007430D01*
X001229Y007403D01*
X001208Y007378D01*
X001184Y007356D01*
X001157Y007337D01*
X001129Y007321D01*
X001098Y007309D01*
X001067Y007300D01*
X001035Y007295D01*
X001002Y007294D01*
X000969Y007297D01*
X000937Y007304D01*
X000906Y007314D01*
X000877Y007328D01*
X000849Y007346D01*
X000824Y007366D01*
X000801Y007390D01*
X000781Y007416D01*
X000764Y007444D01*
X000751Y007474D01*
X000742Y007505D01*
X000736Y007537D01*
X000734Y007570D01*
X000734Y008420D02*
X000736Y008453D01*
X000742Y008485D01*
X000751Y008516D01*
X000764Y008546D01*
X000781Y008574D01*
X000801Y008600D01*
X000824Y008624D01*
X000849Y008644D01*
X000877Y008662D01*
X000906Y008676D01*
X000937Y008686D01*
X000969Y008693D01*
X001002Y008696D01*
X001035Y008695D01*
X001067Y008690D01*
X001098Y008681D01*
X001129Y008669D01*
X001157Y008653D01*
X001184Y008634D01*
X001208Y008612D01*
X001229Y008587D01*
X001248Y008560D01*
X001263Y008531D01*
X001274Y008501D01*
X001282Y008469D01*
X001286Y008436D01*
X001286Y008404D01*
X001282Y008371D01*
X001274Y008339D01*
X001263Y008309D01*
X001248Y008280D01*
X001229Y008253D01*
X001208Y008228D01*
X001184Y008206D01*
X001157Y008187D01*
X001129Y008171D01*
X001098Y008159D01*
X001067Y008150D01*
X001035Y008145D01*
X001002Y008144D01*
X000969Y008147D01*
X000937Y008154D01*
X000906Y008164D01*
X000877Y008178D01*
X000849Y008196D01*
X000824Y008216D01*
X000801Y008240D01*
X000781Y008266D01*
X000764Y008294D01*
X000751Y008324D01*
X000742Y008355D01*
X000736Y008387D01*
X000734Y008420D01*
X000734Y009920D02*
X000736Y009953D01*
X000742Y009985D01*
X000751Y010016D01*
X000764Y010046D01*
X000781Y010074D01*
X000801Y010100D01*
X000824Y010124D01*
X000849Y010144D01*
X000877Y010162D01*
X000906Y010176D01*
X000937Y010186D01*
X000969Y010193D01*
X001002Y010196D01*
X001035Y010195D01*
X001067Y010190D01*
X001098Y010181D01*
X001129Y010169D01*
X001157Y010153D01*
X001184Y010134D01*
X001208Y010112D01*
X001229Y010087D01*
X001248Y010060D01*
X001263Y010031D01*
X001274Y010001D01*
X001282Y009969D01*
X001286Y009936D01*
X001286Y009904D01*
X001282Y009871D01*
X001274Y009839D01*
X001263Y009809D01*
X001248Y009780D01*
X001229Y009753D01*
X001208Y009728D01*
X001184Y009706D01*
X001157Y009687D01*
X001129Y009671D01*
X001098Y009659D01*
X001067Y009650D01*
X001035Y009645D01*
X001002Y009644D01*
X000969Y009647D01*
X000937Y009654D01*
X000906Y009664D01*
X000877Y009678D01*
X000849Y009696D01*
X000824Y009716D01*
X000801Y009740D01*
X000781Y009766D01*
X000764Y009794D01*
X000751Y009824D01*
X000742Y009855D01*
X000736Y009887D01*
X000734Y009920D01*
D11*
X001010Y009920D03*
X001010Y008420D03*
X001010Y007570D03*
X001010Y003200D03*
X001010Y002370D03*
X001010Y001020D03*
D12*
X013560Y000920D03*
X014560Y000920D03*
X015560Y000920D03*
X015560Y001920D03*
X014560Y001920D03*
X013560Y001920D03*
D13*
X017465Y000880D03*
X018465Y000880D03*
X006980Y006960D03*
X006980Y007960D03*
X006980Y008960D03*
X004060Y001110D03*
X003060Y001110D03*
X002060Y001110D03*
D14*
X001170Y004210D03*
X001170Y006210D03*
D15*
X014490Y005025D03*
D16*
X011775Y003659D03*
D17*
X011918Y003891D02*
X011632Y003891D01*
X011632Y003939D01*
X011918Y003939D01*
X011918Y003891D01*
X011918Y004147D02*
X011632Y004147D01*
X011632Y004195D01*
X011918Y004195D01*
X011918Y004147D01*
X012222Y004195D02*
X012508Y004195D01*
X012508Y004147D01*
X012222Y004147D01*
X012222Y004195D01*
X012222Y003939D02*
X012508Y003939D01*
X012508Y003891D01*
X012222Y003891D01*
X012222Y003939D01*
X012222Y003683D02*
X012508Y003683D01*
X012508Y003635D01*
X012222Y003635D01*
X012222Y003683D01*
D18*
X011245Y003746D03*
X011245Y003234D03*
X019015Y008404D03*
X019015Y008916D03*
D19*
X007110Y005975D03*
X007110Y005475D03*
X007110Y004975D03*
X007110Y004475D03*
X005050Y004475D03*
X005050Y004975D03*
X005050Y005475D03*
X005050Y005975D03*
D20*
X004307Y005900D03*
X003953Y005900D03*
X003943Y005115D03*
X004297Y005115D03*
X004317Y004345D03*
X003963Y004345D03*
D21*
X014120Y007975D03*
X018530Y007975D03*
D22*
X006421Y003795D03*
X005909Y003795D03*
X005541Y003390D03*
X005029Y003390D03*
M02*
