G75*
G70*
%OFA0B0*%
%FSLAX24Y24*%
%IPPOS*%
%LPD*%
%AMOC8*
5,1,8,0,0,1.08239X$1,22.5*
%
%ADD10C,0.0000*%
%ADD11OC8,0.0740*%
%ADD12C,0.0740*%
%ADD13C,0.0397*%
%ADD14R,0.1600X0.0600*%
%ADD15C,0.0236*%
%ADD16R,0.0394X0.0157*%
%ADD17C,0.0118*%
%ADD18R,0.0354X0.0276*%
%ADD19R,0.0870X0.0240*%
%ADD20R,0.0250X0.0500*%
%ADD21R,0.0472X0.1575*%
%ADD22R,0.0276X0.0354*%
%ADD23C,0.0240*%
%ADD24C,0.0240*%
%ADD25C,0.0270*%
%ADD26C,0.0080*%
%ADD27C,0.0100*%
%ADD28C,0.0160*%
%ADD29C,0.0120*%
%ADD30C,0.0060*%
D10*
X000260Y000270D02*
X000260Y010370D01*
X019910Y010370D01*
X019910Y000270D01*
X000260Y000270D01*
X000734Y001020D02*
X000736Y001053D01*
X000742Y001085D01*
X000751Y001116D01*
X000764Y001146D01*
X000781Y001174D01*
X000801Y001200D01*
X000824Y001224D01*
X000849Y001244D01*
X000877Y001262D01*
X000906Y001276D01*
X000937Y001286D01*
X000969Y001293D01*
X001002Y001296D01*
X001035Y001295D01*
X001067Y001290D01*
X001098Y001281D01*
X001129Y001269D01*
X001157Y001253D01*
X001184Y001234D01*
X001208Y001212D01*
X001229Y001187D01*
X001248Y001160D01*
X001263Y001131D01*
X001274Y001101D01*
X001282Y001069D01*
X001286Y001036D01*
X001286Y001004D01*
X001282Y000971D01*
X001274Y000939D01*
X001263Y000909D01*
X001248Y000880D01*
X001229Y000853D01*
X001208Y000828D01*
X001184Y000806D01*
X001157Y000787D01*
X001129Y000771D01*
X001098Y000759D01*
X001067Y000750D01*
X001035Y000745D01*
X001002Y000744D01*
X000969Y000747D01*
X000937Y000754D01*
X000906Y000764D01*
X000877Y000778D01*
X000849Y000796D01*
X000824Y000816D01*
X000801Y000840D01*
X000781Y000866D01*
X000764Y000894D01*
X000751Y000924D01*
X000742Y000955D01*
X000736Y000987D01*
X000734Y001020D01*
X000734Y002370D02*
X000736Y002403D01*
X000742Y002435D01*
X000751Y002466D01*
X000764Y002496D01*
X000781Y002524D01*
X000801Y002550D01*
X000824Y002574D01*
X000849Y002594D01*
X000877Y002612D01*
X000906Y002626D01*
X000937Y002636D01*
X000969Y002643D01*
X001002Y002646D01*
X001035Y002645D01*
X001067Y002640D01*
X001098Y002631D01*
X001129Y002619D01*
X001157Y002603D01*
X001184Y002584D01*
X001208Y002562D01*
X001229Y002537D01*
X001248Y002510D01*
X001263Y002481D01*
X001274Y002451D01*
X001282Y002419D01*
X001286Y002386D01*
X001286Y002354D01*
X001282Y002321D01*
X001274Y002289D01*
X001263Y002259D01*
X001248Y002230D01*
X001229Y002203D01*
X001208Y002178D01*
X001184Y002156D01*
X001157Y002137D01*
X001129Y002121D01*
X001098Y002109D01*
X001067Y002100D01*
X001035Y002095D01*
X001002Y002094D01*
X000969Y002097D01*
X000937Y002104D01*
X000906Y002114D01*
X000877Y002128D01*
X000849Y002146D01*
X000824Y002166D01*
X000801Y002190D01*
X000781Y002216D01*
X000764Y002244D01*
X000751Y002274D01*
X000742Y002305D01*
X000736Y002337D01*
X000734Y002370D01*
X000734Y003200D02*
X000736Y003233D01*
X000742Y003265D01*
X000751Y003296D01*
X000764Y003326D01*
X000781Y003354D01*
X000801Y003380D01*
X000824Y003404D01*
X000849Y003424D01*
X000877Y003442D01*
X000906Y003456D01*
X000937Y003466D01*
X000969Y003473D01*
X001002Y003476D01*
X001035Y003475D01*
X001067Y003470D01*
X001098Y003461D01*
X001129Y003449D01*
X001157Y003433D01*
X001184Y003414D01*
X001208Y003392D01*
X001229Y003367D01*
X001248Y003340D01*
X001263Y003311D01*
X001274Y003281D01*
X001282Y003249D01*
X001286Y003216D01*
X001286Y003184D01*
X001282Y003151D01*
X001274Y003119D01*
X001263Y003089D01*
X001248Y003060D01*
X001229Y003033D01*
X001208Y003008D01*
X001184Y002986D01*
X001157Y002967D01*
X001129Y002951D01*
X001098Y002939D01*
X001067Y002930D01*
X001035Y002925D01*
X001002Y002924D01*
X000969Y002927D01*
X000937Y002934D01*
X000906Y002944D01*
X000877Y002958D01*
X000849Y002976D01*
X000824Y002996D01*
X000801Y003020D01*
X000781Y003046D01*
X000764Y003074D01*
X000751Y003104D01*
X000742Y003135D01*
X000736Y003167D01*
X000734Y003200D01*
X000734Y007570D02*
X000736Y007603D01*
X000742Y007635D01*
X000751Y007666D01*
X000764Y007696D01*
X000781Y007724D01*
X000801Y007750D01*
X000824Y007774D01*
X000849Y007794D01*
X000877Y007812D01*
X000906Y007826D01*
X000937Y007836D01*
X000969Y007843D01*
X001002Y007846D01*
X001035Y007845D01*
X001067Y007840D01*
X001098Y007831D01*
X001129Y007819D01*
X001157Y007803D01*
X001184Y007784D01*
X001208Y007762D01*
X001229Y007737D01*
X001248Y007710D01*
X001263Y007681D01*
X001274Y007651D01*
X001282Y007619D01*
X001286Y007586D01*
X001286Y007554D01*
X001282Y007521D01*
X001274Y007489D01*
X001263Y007459D01*
X001248Y007430D01*
X001229Y007403D01*
X001208Y007378D01*
X001184Y007356D01*
X001157Y007337D01*
X001129Y007321D01*
X001098Y007309D01*
X001067Y007300D01*
X001035Y007295D01*
X001002Y007294D01*
X000969Y007297D01*
X000937Y007304D01*
X000906Y007314D01*
X000877Y007328D01*
X000849Y007346D01*
X000824Y007366D01*
X000801Y007390D01*
X000781Y007416D01*
X000764Y007444D01*
X000751Y007474D01*
X000742Y007505D01*
X000736Y007537D01*
X000734Y007570D01*
X000734Y008420D02*
X000736Y008453D01*
X000742Y008485D01*
X000751Y008516D01*
X000764Y008546D01*
X000781Y008574D01*
X000801Y008600D01*
X000824Y008624D01*
X000849Y008644D01*
X000877Y008662D01*
X000906Y008676D01*
X000937Y008686D01*
X000969Y008693D01*
X001002Y008696D01*
X001035Y008695D01*
X001067Y008690D01*
X001098Y008681D01*
X001129Y008669D01*
X001157Y008653D01*
X001184Y008634D01*
X001208Y008612D01*
X001229Y008587D01*
X001248Y008560D01*
X001263Y008531D01*
X001274Y008501D01*
X001282Y008469D01*
X001286Y008436D01*
X001286Y008404D01*
X001282Y008371D01*
X001274Y008339D01*
X001263Y008309D01*
X001248Y008280D01*
X001229Y008253D01*
X001208Y008228D01*
X001184Y008206D01*
X001157Y008187D01*
X001129Y008171D01*
X001098Y008159D01*
X001067Y008150D01*
X001035Y008145D01*
X001002Y008144D01*
X000969Y008147D01*
X000937Y008154D01*
X000906Y008164D01*
X000877Y008178D01*
X000849Y008196D01*
X000824Y008216D01*
X000801Y008240D01*
X000781Y008266D01*
X000764Y008294D01*
X000751Y008324D01*
X000742Y008355D01*
X000736Y008387D01*
X000734Y008420D01*
X000734Y009920D02*
X000736Y009953D01*
X000742Y009985D01*
X000751Y010016D01*
X000764Y010046D01*
X000781Y010074D01*
X000801Y010100D01*
X000824Y010124D01*
X000849Y010144D01*
X000877Y010162D01*
X000906Y010176D01*
X000937Y010186D01*
X000969Y010193D01*
X001002Y010196D01*
X001035Y010195D01*
X001067Y010190D01*
X001098Y010181D01*
X001129Y010169D01*
X001157Y010153D01*
X001184Y010134D01*
X001208Y010112D01*
X001229Y010087D01*
X001248Y010060D01*
X001263Y010031D01*
X001274Y010001D01*
X001282Y009969D01*
X001286Y009936D01*
X001286Y009904D01*
X001282Y009871D01*
X001274Y009839D01*
X001263Y009809D01*
X001248Y009780D01*
X001229Y009753D01*
X001208Y009728D01*
X001184Y009706D01*
X001157Y009687D01*
X001129Y009671D01*
X001098Y009659D01*
X001067Y009650D01*
X001035Y009645D01*
X001002Y009644D01*
X000969Y009647D01*
X000937Y009654D01*
X000906Y009664D01*
X000877Y009678D01*
X000849Y009696D01*
X000824Y009716D01*
X000801Y009740D01*
X000781Y009766D01*
X000764Y009794D01*
X000751Y009824D01*
X000742Y009855D01*
X000736Y009887D01*
X000734Y009920D01*
D11*
X013560Y001920D03*
X014560Y001920D03*
X015560Y001920D03*
X015560Y000920D03*
X014560Y000920D03*
X013560Y000920D03*
D12*
X017465Y000880D03*
X018465Y000880D03*
X006980Y006960D03*
X006980Y007960D03*
X006980Y008960D03*
X004060Y001110D03*
X003060Y001110D03*
X002060Y001110D03*
D13*
X007514Y002799D03*
X008026Y002799D03*
X008026Y003311D03*
X007514Y003311D03*
D14*
X001170Y004210D03*
X001170Y006210D03*
D15*
X014490Y005025D03*
D16*
X011775Y003659D03*
D17*
X011913Y003896D02*
X011637Y003896D01*
X011637Y003934D01*
X011913Y003934D01*
X011913Y003896D01*
X011913Y004152D02*
X011637Y004152D01*
X011637Y004190D01*
X011913Y004190D01*
X011913Y004152D01*
X012227Y004190D02*
X012503Y004190D01*
X012503Y004152D01*
X012227Y004152D01*
X012227Y004190D01*
X012227Y003934D02*
X012503Y003934D01*
X012503Y003896D01*
X012227Y003896D01*
X012227Y003934D01*
X012227Y003678D02*
X012503Y003678D01*
X012503Y003640D01*
X012227Y003640D01*
X012227Y003678D01*
D18*
X011245Y003746D03*
X011245Y003234D03*
X019015Y008404D03*
X019015Y008916D03*
D19*
X007110Y005975D03*
X007110Y005475D03*
X007110Y004975D03*
X007110Y004475D03*
X005050Y004475D03*
X005050Y004975D03*
X005050Y005475D03*
X005050Y005975D03*
D20*
X004307Y005900D03*
X003953Y005900D03*
X003943Y005115D03*
X004297Y005115D03*
X004317Y004345D03*
X003963Y004345D03*
D21*
X014120Y007975D03*
X018530Y007975D03*
D22*
X006421Y003795D03*
X005909Y003795D03*
X005541Y003390D03*
X005029Y003390D03*
D23*
X004671Y003390D01*
X004671Y003184D01*
X004686Y003128D01*
X004715Y003078D01*
X004756Y003037D01*
X004779Y003024D01*
X004748Y002990D01*
X004714Y002956D01*
X004712Y002953D01*
X004710Y002950D01*
X004695Y002910D01*
X004667Y002898D01*
X004572Y002803D01*
X004520Y002678D01*
X004520Y002542D01*
X004572Y002417D01*
X004667Y002322D01*
X004792Y002270D01*
X004928Y002270D01*
X005053Y002322D01*
X005148Y002417D01*
X005200Y002542D01*
X005200Y002678D01*
X005191Y002699D01*
X005482Y002993D01*
X005770Y002993D01*
X005899Y003122D01*
X005899Y003380D01*
X005916Y003398D01*
X006138Y003398D01*
X006170Y003429D01*
X006198Y003413D01*
X006254Y003398D01*
X006421Y003398D01*
X006588Y003398D01*
X006644Y003413D01*
X006694Y003442D01*
X006735Y003483D01*
X006764Y003533D01*
X006779Y003589D01*
X006779Y003683D01*
X006829Y003561D01*
X006925Y003465D01*
X007050Y003414D01*
X007185Y003414D01*
X007310Y003465D01*
X007406Y003561D01*
X007458Y003686D01*
X007458Y003821D01*
X007421Y003910D01*
X009342Y003910D01*
X009536Y003704D01*
X009522Y003698D01*
X009427Y003603D01*
X009375Y003478D01*
X009375Y003407D01*
X009372Y003409D01*
X009347Y003413D01*
X009323Y003422D01*
X009296Y003421D01*
X009270Y003425D01*
X009245Y003419D01*
X009219Y003418D01*
X009195Y003407D01*
X009127Y003391D01*
X009109Y003391D01*
X009077Y003379D01*
X009044Y003371D01*
X009030Y003360D01*
X009013Y003354D01*
X008988Y003330D01*
X008960Y003310D01*
X008951Y003295D01*
X008868Y003215D01*
X008832Y003183D01*
X008831Y003180D01*
X008828Y003177D01*
X008809Y003133D01*
X008788Y003089D01*
X008788Y003086D01*
X008786Y003083D01*
X008785Y003034D01*
X008778Y002881D01*
X008776Y002878D01*
X008775Y002830D01*
X008773Y002781D01*
X008774Y002778D01*
X008767Y002490D01*
X008684Y002351D01*
X008564Y002232D01*
X008448Y002280D01*
X008312Y002280D01*
X008187Y002228D01*
X008092Y002133D01*
X008078Y002100D01*
X008065Y002105D01*
X008025Y002125D01*
X008009Y002126D01*
X007995Y002132D01*
X007950Y002130D01*
X007906Y002133D01*
X007891Y002128D01*
X007017Y002100D01*
X006933Y002135D01*
X006797Y002135D01*
X006672Y002083D01*
X006577Y001988D01*
X006525Y001863D01*
X006525Y001727D01*
X006577Y001602D01*
X006672Y001507D01*
X006797Y001455D01*
X006933Y001455D01*
X007043Y001501D01*
X007813Y001526D01*
X007959Y001358D01*
X007997Y001313D01*
X007998Y001313D01*
X007998Y001313D01*
X008051Y001286D01*
X008104Y001260D01*
X008105Y001260D01*
X008164Y001256D01*
X008623Y001223D01*
X008650Y001215D01*
X008682Y001219D01*
X008713Y001217D01*
X008740Y001226D01*
X008769Y001229D01*
X008796Y001244D01*
X008826Y001254D01*
X008848Y001273D01*
X008873Y001287D01*
X008893Y001312D01*
X008917Y001332D01*
X008929Y001358D01*
X009356Y001897D01*
X009400Y001915D01*
X009400Y001756D01*
X009372Y001728D01*
X009320Y001603D01*
X009320Y001467D01*
X009372Y001342D01*
X009467Y001247D01*
X009592Y001195D01*
X009728Y001195D01*
X009853Y001247D01*
X009948Y001342D01*
X010000Y001467D01*
X010000Y001603D01*
X009948Y001728D01*
X009920Y001756D01*
X009920Y001874D01*
X009988Y001902D01*
X010083Y001997D01*
X010086Y002004D01*
X010163Y001963D01*
X010398Y001825D01*
X010297Y001783D01*
X010202Y001688D01*
X010150Y001563D01*
X010150Y001427D01*
X010136Y001403D01*
X010052Y001368D01*
X009957Y001273D01*
X009905Y001148D01*
X009905Y001060D01*
X009021Y001060D01*
X008993Y001088D01*
X008868Y001140D01*
X008732Y001140D01*
X008607Y001088D01*
X008512Y000993D01*
X008460Y000868D01*
X008460Y000732D01*
X008512Y000607D01*
X008607Y000512D01*
X008660Y000490D01*
X000480Y000490D01*
X000480Y003690D01*
X000898Y003690D01*
X000729Y003620D01*
X000590Y003481D01*
X000514Y003299D01*
X000514Y003101D01*
X000590Y002919D01*
X000724Y002785D01*
X000590Y002651D01*
X000514Y002469D01*
X000514Y002271D01*
X000590Y002089D01*
X000729Y001950D01*
X000911Y001874D01*
X001109Y001874D01*
X001291Y001950D01*
X001430Y002089D01*
X001506Y002271D01*
X001506Y002469D01*
X001430Y002651D01*
X001296Y002785D01*
X001430Y002919D01*
X001506Y003101D01*
X001506Y003299D01*
X001430Y003481D01*
X001291Y003620D01*
X001122Y003690D01*
X001140Y003690D01*
X001140Y004180D01*
X001200Y004180D01*
X001200Y004240D01*
X001140Y004240D01*
X001140Y004730D01*
X000480Y004730D01*
X000480Y005690D01*
X001140Y005690D01*
X001140Y006180D01*
X001200Y006180D01*
X001200Y006240D01*
X002190Y006240D01*
X002190Y006539D01*
X002175Y006595D01*
X002146Y006645D01*
X002116Y006675D01*
X003870Y006680D01*
X003870Y010150D01*
X010459Y010150D01*
X010422Y010113D01*
X010370Y009988D01*
X010370Y009852D01*
X010422Y009727D01*
X010517Y009632D01*
X010642Y009580D01*
X010681Y009580D01*
X011756Y008496D01*
X011722Y008463D01*
X011670Y008338D01*
X011670Y008202D01*
X011722Y008077D01*
X011817Y007982D01*
X011930Y007935D01*
X012050Y007767D01*
X012046Y006445D01*
X011555Y006427D01*
X011554Y006427D01*
X011504Y006425D01*
X011453Y006423D01*
X011452Y006422D01*
X010363Y006367D01*
X009643Y007432D01*
X009538Y008137D01*
X009538Y008137D01*
X009590Y008262D01*
X009590Y008398D01*
X009538Y008523D01*
X009443Y008618D01*
X009318Y008670D01*
X009182Y008670D01*
X009057Y008618D01*
X009016Y008577D01*
X008905Y008559D01*
X008901Y008560D01*
X008855Y008551D01*
X008808Y008544D01*
X008804Y008541D01*
X008799Y008540D01*
X008760Y008514D01*
X008720Y008490D01*
X008717Y008486D01*
X007852Y007910D01*
X007742Y007910D01*
X007617Y007858D01*
X007589Y007830D01*
X007565Y007830D01*
X007570Y007843D01*
X007570Y008077D01*
X007480Y008294D01*
X007314Y008460D01*
X007302Y008465D01*
X007364Y008510D01*
X007430Y008576D01*
X007485Y008651D01*
X007527Y008734D01*
X007555Y008822D01*
X007570Y008914D01*
X007570Y008960D01*
X007570Y009006D01*
X007555Y009098D01*
X007527Y009186D01*
X007485Y009269D01*
X007430Y009344D01*
X007364Y009410D01*
X007289Y009465D01*
X007206Y009507D01*
X007118Y009535D01*
X007026Y009550D01*
X006980Y009550D01*
X006980Y008960D01*
X006980Y008960D01*
X007570Y008960D01*
X006980Y008960D01*
X006980Y008960D01*
X006980Y008960D01*
X006390Y008960D01*
X006390Y009006D01*
X006405Y009098D01*
X006433Y009186D01*
X006475Y009269D01*
X006530Y009344D01*
X006596Y009410D01*
X006671Y009465D01*
X006754Y009507D01*
X006842Y009535D01*
X006934Y009550D01*
X006980Y009550D01*
X006980Y008960D01*
X006390Y008960D01*
X006390Y008914D01*
X006405Y008822D01*
X006433Y008734D01*
X006475Y008651D01*
X006530Y008576D01*
X006596Y008510D01*
X006658Y008465D01*
X006646Y008460D01*
X006480Y008294D01*
X006390Y008077D01*
X006390Y007843D01*
X006480Y007626D01*
X006646Y007460D01*
X006480Y007294D01*
X006390Y007077D01*
X006390Y006843D01*
X006480Y006626D01*
X006646Y006460D01*
X006863Y006370D01*
X007097Y006370D01*
X007254Y006435D01*
X007594Y006435D01*
X007622Y006407D01*
X007747Y006355D01*
X007883Y006355D01*
X008008Y006407D01*
X008103Y006502D01*
X008155Y006627D01*
X008155Y006763D01*
X008103Y006888D01*
X008008Y006983D01*
X007883Y007035D01*
X007747Y007035D01*
X007622Y006983D01*
X007594Y006955D01*
X007570Y006955D01*
X007570Y007077D01*
X007480Y007294D01*
X007464Y007310D01*
X007589Y007310D01*
X007617Y007282D01*
X007742Y007230D01*
X007878Y007230D01*
X008003Y007282D01*
X008098Y007377D01*
X008139Y007477D01*
X008739Y007876D01*
X008747Y007857D01*
X008775Y007829D01*
X008775Y007319D01*
X008770Y007292D01*
X008775Y007268D01*
X008775Y007243D01*
X008786Y007218D01*
X008791Y007191D01*
X008805Y007171D01*
X008815Y007148D01*
X008834Y007128D01*
X009621Y005977D01*
X009552Y005948D01*
X009457Y005853D01*
X009405Y005728D01*
X009405Y005686D01*
X009176Y005799D01*
X009158Y005843D01*
X009063Y005938D01*
X008938Y005990D01*
X008802Y005990D01*
X008677Y005938D01*
X008615Y005876D01*
X008543Y005948D01*
X008418Y006000D01*
X008282Y006000D01*
X008157Y005948D01*
X008062Y005853D01*
X008010Y005728D01*
X008010Y005723D01*
X007877Y005720D01*
X007731Y005720D01*
X007726Y005725D01*
X007765Y005764D01*
X007765Y006186D01*
X007636Y006315D01*
X006584Y006315D01*
X006455Y006186D01*
X006455Y006038D01*
X006305Y005887D01*
X006265Y005792D01*
X006265Y005290D01*
X006264Y005289D01*
X006265Y005238D01*
X006265Y005188D01*
X006266Y005187D01*
X006266Y005185D01*
X006285Y005139D01*
X006305Y005093D01*
X006306Y005092D01*
X006306Y005090D01*
X006342Y005055D01*
X006378Y005020D01*
X006379Y005019D01*
X006380Y005018D01*
X006427Y004999D01*
X006455Y004988D01*
X006455Y004975D01*
X006486Y004975D01*
X006486Y004975D01*
X006455Y004975D01*
X006455Y004826D01*
X006470Y004770D01*
X006495Y004726D01*
X006483Y004714D01*
X006464Y004706D01*
X006463Y004705D01*
X006427Y004670D01*
X005943Y004192D01*
X005680Y004192D01*
X005551Y004063D01*
X005551Y003802D01*
X005536Y003787D01*
X005312Y003787D01*
X005280Y003756D01*
X005252Y003772D01*
X005196Y003787D01*
X005029Y003787D01*
X004862Y003787D01*
X004806Y003772D01*
X004756Y003743D01*
X004715Y003702D01*
X004686Y003652D01*
X004671Y003596D01*
X004671Y003390D01*
X005029Y003390D01*
X005029Y003390D01*
X005029Y003787D01*
X005029Y003390D01*
X005029Y003390D01*
X004671Y003371D02*
X001476Y003371D01*
X001506Y003132D02*
X004685Y003132D01*
X004663Y002894D02*
X001404Y002894D01*
X001426Y002655D02*
X004520Y002655D01*
X004573Y002417D02*
X001506Y002417D01*
X001467Y002178D02*
X008137Y002178D01*
X008723Y002417D02*
X005147Y002417D01*
X005200Y002655D02*
X008771Y002655D01*
X008778Y002894D02*
X005384Y002894D01*
X005899Y003132D02*
X008808Y003132D01*
X009044Y003371D02*
X005899Y003371D01*
X006421Y003398D02*
X006421Y003795D01*
X006421Y003398D01*
X006421Y003609D02*
X006421Y003609D01*
X006421Y003795D02*
X006421Y003795D01*
X006779Y003609D02*
X006810Y003609D01*
X007426Y003609D02*
X009433Y003609D01*
X009401Y003848D02*
X007447Y003848D01*
X007765Y004430D02*
X007765Y004599D01*
X007812Y004552D01*
X007937Y004500D01*
X008073Y004500D01*
X008198Y004552D01*
X008224Y004578D01*
X009050Y004571D01*
X009180Y004430D01*
X007765Y004430D01*
X007765Y004563D02*
X007801Y004563D01*
X008209Y004563D02*
X009058Y004563D01*
X009610Y005005D02*
X009616Y005005D01*
X009660Y005002D01*
X009669Y005005D01*
X012681Y005000D01*
X012681Y005000D01*
X012735Y005000D01*
X012788Y005000D01*
X012788Y005000D01*
X014138Y005000D01*
X014097Y004991D01*
X014079Y004992D01*
X014047Y004980D01*
X014014Y004973D01*
X013999Y004963D01*
X013052Y004615D01*
X013003Y004635D01*
X012867Y004635D01*
X012755Y004588D01*
X012755Y004589D01*
X012722Y004603D01*
X012691Y004621D01*
X012675Y004623D01*
X012660Y004629D01*
X012624Y004630D01*
X012588Y004635D01*
X012573Y004630D01*
X012141Y004636D01*
X012045Y004597D01*
X011971Y004525D01*
X011965Y004511D01*
X011942Y004490D01*
X011933Y004487D01*
X011916Y004470D01*
X011775Y004470D01*
X011775Y004214D01*
X011775Y004214D01*
X011775Y004470D01*
X011609Y004470D01*
X011556Y004459D01*
X011505Y004438D01*
X011459Y004407D01*
X011420Y004368D01*
X011390Y004323D01*
X011369Y004272D01*
X011368Y004270D01*
X011002Y004270D01*
X010998Y004272D01*
X010950Y004270D01*
X010903Y004270D01*
X010899Y004268D01*
X010894Y004268D01*
X010851Y004248D01*
X010808Y004230D01*
X010804Y004227D01*
X010509Y004093D01*
X010453Y004095D01*
X009610Y005005D01*
X009799Y004802D02*
X013560Y004802D01*
X013770Y004325D02*
X014206Y004325D01*
X014267Y004350D02*
X014142Y004298D01*
X014093Y004249D01*
X013392Y004186D01*
X014193Y004480D01*
X014290Y004501D01*
X014290Y004372D01*
X014299Y004350D01*
X014267Y004350D01*
X016025Y004552D02*
X016220Y004670D01*
X016100Y004642D01*
X016025Y004552D01*
X016034Y004563D02*
X016044Y004563D01*
X016419Y004717D02*
X016620Y004764D01*
X016636Y004763D01*
X016670Y004775D01*
X016705Y004784D01*
X016718Y004793D01*
X016733Y004799D01*
X016760Y004823D01*
X016789Y004844D01*
X016797Y004858D01*
X016893Y004946D01*
X016925Y004971D01*
X016931Y004981D01*
X016939Y004989D01*
X016956Y005026D01*
X017044Y005180D01*
X017067Y005212D01*
X017070Y005225D01*
X017076Y005236D01*
X017080Y005264D01*
X017163Y005347D01*
X017215Y005472D01*
X017215Y005608D01*
X017163Y005733D01*
X017068Y005828D01*
X017038Y005841D01*
X017417Y006669D01*
X017420Y006673D01*
X017428Y006691D01*
X017442Y006677D01*
X017526Y006642D01*
X017659Y006422D01*
X017858Y005697D01*
X017853Y005596D01*
X017709Y005229D01*
X017414Y004948D01*
X017381Y004945D01*
X017378Y004948D01*
X017253Y005000D01*
X017117Y005000D01*
X016992Y004948D01*
X016897Y004853D01*
X016845Y004728D01*
X016845Y004592D01*
X016897Y004467D01*
X016947Y004417D01*
X016520Y004676D01*
X016487Y004700D01*
X016476Y004703D01*
X016466Y004709D01*
X016426Y004715D01*
X016419Y004717D01*
X016736Y004802D02*
X016876Y004802D01*
X016857Y004563D02*
X016706Y004563D01*
X016964Y005040D02*
X017510Y005040D01*
X017728Y005279D02*
X017094Y005279D01*
X017215Y005517D02*
X017822Y005517D01*
X017842Y005756D02*
X017140Y005756D01*
X017108Y005994D02*
X017776Y005994D01*
X017711Y006233D02*
X017217Y006233D01*
X017326Y006471D02*
X017629Y006471D01*
X018273Y006710D02*
X018691Y006710D01*
X018690Y006948D02*
X018183Y006948D01*
X018202Y006968D02*
X018690Y006968D01*
X018695Y005099D01*
X018648Y005213D01*
X018553Y005308D01*
X018525Y005319D01*
X018529Y005327D01*
X018543Y005344D01*
X018552Y005373D01*
X018566Y005400D01*
X018567Y005422D01*
X018574Y005442D01*
X018571Y005473D01*
X018573Y005503D01*
X018566Y005524D01*
X018541Y005794D01*
X018544Y005820D01*
X018537Y005845D01*
X018534Y005870D01*
X018522Y005894D01*
X018316Y006584D01*
X018317Y006593D01*
X018302Y006633D01*
X018289Y006674D01*
X018283Y006681D01*
X018159Y007011D01*
X018202Y006968D01*
X018074Y007227D02*
X018074Y008319D01*
X018023Y008197D01*
X017928Y008102D01*
X017803Y008050D01*
X017696Y008050D01*
X017363Y007825D01*
X017112Y007629D01*
X017178Y007563D01*
X017192Y007530D01*
X017213Y007530D01*
X017338Y007478D01*
X017352Y007464D01*
X017377Y007523D01*
X017472Y007618D01*
X017597Y007670D01*
X017733Y007670D01*
X017858Y007618D01*
X017953Y007523D01*
X018005Y007398D01*
X018005Y007300D01*
X018045Y007258D01*
X018074Y007227D01*
X018074Y007425D02*
X017994Y007425D01*
X018074Y007664D02*
X017748Y007664D01*
X017582Y007664D02*
X017156Y007664D01*
X017477Y007902D02*
X018074Y007902D01*
X018074Y008141D02*
X017966Y008141D01*
X017404Y008480D02*
X017348Y008442D01*
X017263Y008528D01*
X017138Y008580D01*
X017002Y008580D01*
X016879Y008529D01*
X015990Y008653D01*
X015961Y008769D01*
X015995Y008852D01*
X015995Y008988D01*
X015980Y009025D01*
X016048Y009025D01*
X016173Y009077D01*
X016268Y009172D01*
X016273Y009183D01*
X016277Y009172D01*
X016372Y009077D01*
X016497Y009025D01*
X016633Y009025D01*
X016758Y009077D01*
X016853Y009172D01*
X016905Y009297D01*
X016905Y009433D01*
X016883Y009485D01*
X018160Y009485D01*
X018162Y009484D01*
X018212Y009485D01*
X018262Y009485D01*
X018263Y009486D01*
X018700Y009492D01*
X018700Y009373D01*
X018695Y009350D01*
X018700Y009322D01*
X018700Y009293D01*
X018709Y009271D01*
X018713Y009248D01*
X018716Y009243D01*
X018649Y009176D01*
X018415Y009176D01*
X018238Y009178D01*
X018208Y009208D01*
X018083Y009260D01*
X017947Y009260D01*
X017822Y009208D01*
X017727Y009113D01*
X017675Y008988D01*
X017675Y008852D01*
X017726Y008730D01*
X017667Y008730D01*
X017542Y008678D01*
X017447Y008583D01*
X017404Y008480D01*
X017482Y008618D02*
X016246Y008618D01*
X015995Y008856D02*
X017675Y008856D01*
X017719Y009095D02*
X016775Y009095D01*
X016905Y009333D02*
X018698Y009333D01*
X019493Y009674D02*
X019491Y009859D01*
X019530Y009952D01*
X019530Y010088D01*
X019504Y010150D01*
X019690Y010150D01*
X019690Y009436D01*
X019687Y009440D01*
X019638Y009558D01*
X019543Y009653D01*
X019493Y009674D01*
X019492Y009810D02*
X019690Y009810D01*
X019690Y009572D02*
X019624Y009572D01*
X019690Y010049D02*
X019530Y010049D01*
X016355Y009095D02*
X016190Y009095D01*
X015458Y008636D02*
X015367Y008727D01*
X015315Y008852D01*
X015315Y008988D01*
X015329Y009021D01*
X014512Y008918D01*
X014533Y008897D01*
X014562Y008847D01*
X014576Y008791D01*
X014576Y007975D01*
X014120Y007975D01*
X014120Y007975D01*
X014576Y007975D01*
X014576Y007384D01*
X014688Y007338D01*
X014783Y007243D01*
X014835Y007118D01*
X014835Y006982D01*
X014787Y006867D01*
X014921Y006863D01*
X015301Y007079D01*
X015313Y007090D01*
X015346Y007104D01*
X015376Y007122D01*
X015393Y007124D01*
X015408Y007130D01*
X015444Y007130D01*
X015479Y007134D01*
X015490Y007131D01*
X015517Y007158D01*
X015642Y007210D01*
X015778Y007210D01*
X015895Y007161D01*
X015981Y007292D01*
X015988Y007312D01*
X016009Y007335D01*
X016026Y007361D01*
X016044Y007373D01*
X016273Y007624D01*
X016284Y007643D01*
X016308Y007662D01*
X016328Y007684D01*
X016348Y007693D01*
X016767Y008020D01*
X015794Y008156D01*
X015793Y008155D01*
X015743Y008163D01*
X015693Y008170D01*
X015692Y008170D01*
X015691Y008170D01*
X015647Y008196D01*
X015604Y008222D01*
X015603Y008223D01*
X015602Y008224D01*
X015572Y008264D01*
X015541Y008305D01*
X015541Y008306D01*
X015540Y008307D01*
X015528Y008356D01*
X015515Y008405D01*
X015516Y008406D01*
X015458Y008636D01*
X015463Y008618D02*
X014576Y008618D01*
X014556Y008856D02*
X015315Y008856D01*
X015522Y008379D02*
X014576Y008379D01*
X014576Y008141D02*
X015902Y008141D01*
X016616Y007902D02*
X014576Y007902D01*
X014576Y007664D02*
X016310Y007664D01*
X016091Y007425D02*
X014576Y007425D01*
X014806Y007187D02*
X015586Y007187D01*
X015834Y007187D02*
X015911Y007187D01*
X015071Y006948D02*
X014821Y006948D01*
X013464Y006916D02*
X013132Y006928D01*
X013303Y007690D01*
X013304Y007691D01*
X013314Y007740D01*
X013325Y007789D01*
X013325Y007791D01*
X013354Y007929D01*
X013402Y007812D01*
X013430Y007784D01*
X013430Y006998D01*
X013464Y006916D01*
X013451Y006948D02*
X013137Y006948D01*
X013190Y007187D02*
X013430Y007187D01*
X013430Y007425D02*
X013243Y007425D01*
X013297Y007664D02*
X013430Y007664D01*
X013365Y007902D02*
X013348Y007902D01*
X012817Y007902D02*
X012763Y007902D01*
X012806Y007850D02*
X012779Y007728D01*
X012740Y008146D01*
X012740Y008186D01*
X012735Y008198D01*
X012734Y008210D01*
X012716Y008245D01*
X012701Y008281D01*
X012692Y008291D01*
X012686Y008302D01*
X012656Y008327D01*
X012256Y008730D01*
X012378Y008730D01*
X012503Y008782D01*
X012598Y008877D01*
X012650Y009002D01*
X012650Y009138D01*
X012598Y009263D01*
X012503Y009358D01*
X012378Y009410D01*
X012343Y009410D01*
X012340Y009413D01*
X012599Y009411D01*
X012760Y008642D01*
X012865Y008131D01*
X012806Y007850D01*
X012863Y008141D02*
X012741Y008141D01*
X012814Y008379D02*
X012604Y008379D01*
X012765Y008618D02*
X012368Y008618D01*
X012577Y008856D02*
X012715Y008856D01*
X012665Y009095D02*
X012650Y009095D01*
X012615Y009333D02*
X012528Y009333D01*
X013096Y009572D02*
X014979Y009572D01*
X014987Y009552D02*
X015032Y009507D01*
X013559Y009322D01*
X013558Y009323D01*
X013433Y009375D01*
X013297Y009375D01*
X013172Y009323D01*
X013153Y009304D01*
X013083Y009635D01*
X014833Y009620D01*
X014888Y009618D01*
X014893Y009620D01*
X014897Y009619D01*
X014948Y009640D01*
X014950Y009641D01*
X014987Y009552D01*
X013650Y009333D02*
X013534Y009333D01*
X013196Y009333D02*
X013147Y009333D01*
X011635Y008618D02*
X009443Y008618D01*
X009590Y008379D02*
X011687Y008379D01*
X011696Y008141D02*
X009540Y008141D01*
X009573Y007902D02*
X011953Y007902D01*
X012049Y007664D02*
X009609Y007664D01*
X009648Y007425D02*
X012049Y007425D01*
X012048Y007187D02*
X009809Y007187D01*
X009970Y006948D02*
X012047Y006948D01*
X012047Y006710D02*
X010132Y006710D01*
X010293Y006471D02*
X012046Y006471D01*
X013196Y005760D02*
X013561Y005760D01*
X014812Y005624D01*
X014799Y005619D01*
X014797Y005618D01*
X014574Y005540D01*
X013295Y005540D01*
X013295Y005588D01*
X013243Y005713D01*
X013196Y005760D01*
X013200Y005756D02*
X013602Y005756D01*
X012010Y004563D02*
X010020Y004563D01*
X010241Y004325D02*
X011391Y004325D01*
X011775Y004325D02*
X011775Y004325D01*
X009417Y005756D02*
X009265Y005756D01*
X009610Y005994D02*
X008432Y005994D01*
X008268Y005994D02*
X007765Y005994D01*
X007719Y006233D02*
X009447Y006233D01*
X009284Y006471D02*
X008072Y006471D01*
X008155Y006710D02*
X009120Y006710D01*
X008957Y006948D02*
X008043Y006948D01*
X007525Y007187D02*
X008794Y007187D01*
X008775Y007425D02*
X008118Y007425D01*
X008420Y007664D02*
X008775Y007664D01*
X008198Y008141D02*
X007544Y008141D01*
X007395Y008379D02*
X008557Y008379D01*
X009057Y008618D02*
X007460Y008618D01*
X007561Y008856D02*
X011399Y008856D01*
X011162Y009095D02*
X007556Y009095D01*
X007438Y009333D02*
X010926Y009333D01*
X010689Y009572D02*
X003870Y009572D01*
X003870Y009810D02*
X010388Y009810D01*
X010395Y010049D02*
X003870Y010049D01*
X003870Y009333D02*
X006522Y009333D01*
X006404Y009095D02*
X003870Y009095D01*
X003870Y008856D02*
X006399Y008856D01*
X006500Y008618D02*
X003870Y008618D01*
X003870Y008379D02*
X006565Y008379D01*
X006416Y008141D02*
X003870Y008141D01*
X003870Y007902D02*
X006390Y007902D01*
X006464Y007664D02*
X003870Y007664D01*
X003870Y007425D02*
X006611Y007425D01*
X006435Y007187D02*
X003870Y007187D01*
X003870Y006948D02*
X006390Y006948D01*
X006445Y006710D02*
X003870Y006710D01*
X003799Y006370D02*
X003743Y006355D01*
X003693Y006326D01*
X003652Y006285D01*
X003623Y006235D01*
X003608Y006179D01*
X003608Y005900D01*
X003608Y005621D01*
X003623Y005565D01*
X003652Y005515D01*
X003654Y005512D01*
X003642Y005500D01*
X003613Y005450D01*
X003598Y005394D01*
X003598Y005115D01*
X003598Y004836D01*
X003613Y004780D01*
X003642Y004730D01*
X003654Y004717D01*
X003633Y004680D01*
X003618Y004624D01*
X003618Y004345D01*
X003618Y004066D01*
X003633Y004010D01*
X003662Y003960D01*
X003703Y003919D01*
X003753Y003890D01*
X003809Y003875D01*
X003963Y003875D01*
X004533Y003875D01*
X004662Y004004D01*
X004662Y004079D01*
X004856Y004076D01*
X004858Y004075D01*
X004908Y004075D01*
X004957Y004074D01*
X004959Y004075D01*
X004962Y004075D01*
X005007Y004094D01*
X005054Y004112D01*
X005055Y004114D01*
X005057Y004115D01*
X005078Y004135D01*
X005576Y004135D01*
X005705Y004264D01*
X005705Y004686D01*
X005666Y004725D01*
X005705Y004764D01*
X005705Y005186D01*
X005666Y005225D01*
X005705Y005264D01*
X005705Y005686D01*
X005665Y005726D01*
X005690Y005770D01*
X005705Y005826D01*
X005705Y005975D01*
X005705Y006124D01*
X005690Y006180D01*
X005661Y006230D01*
X005620Y006271D01*
X005570Y006300D01*
X005514Y006315D01*
X005050Y006315D01*
X005050Y005975D01*
X005050Y005975D01*
X005705Y005975D01*
X005050Y005975D01*
X005050Y005975D01*
X005050Y006315D01*
X004586Y006315D01*
X004580Y006313D01*
X004523Y006370D01*
X004091Y006370D01*
X003953Y006370D01*
X003953Y005900D01*
X003953Y005900D01*
X003953Y006370D01*
X003799Y006370D01*
X003953Y006233D02*
X003953Y006233D01*
X003953Y005994D02*
X003953Y005994D01*
X003953Y005900D02*
X003953Y005900D01*
X003608Y005900D01*
X003953Y005900D01*
X003608Y005994D02*
X002190Y005994D01*
X002190Y005881D02*
X002190Y006180D01*
X001200Y006180D01*
X001200Y005690D01*
X001999Y005690D01*
X002055Y005705D01*
X002105Y005734D01*
X002146Y005775D01*
X002175Y005825D01*
X002190Y005881D01*
X002127Y005756D02*
X003608Y005756D01*
X003651Y005517D02*
X000480Y005517D01*
X000480Y005279D02*
X003598Y005279D01*
X003598Y005115D02*
X003943Y005115D01*
X003598Y005115D01*
X003598Y005040D02*
X000480Y005040D01*
X000480Y004802D02*
X003607Y004802D01*
X003618Y004563D02*
X002184Y004563D01*
X002190Y004539D02*
X002175Y004595D01*
X002146Y004645D01*
X002105Y004686D01*
X002055Y004715D01*
X001999Y004730D01*
X001200Y004730D01*
X001200Y004240D01*
X002190Y004240D01*
X002190Y004539D01*
X002190Y004325D02*
X003618Y004325D01*
X003618Y004345D02*
X003963Y004345D01*
X003963Y003875D01*
X003963Y004345D01*
X003963Y004345D01*
X003963Y004345D01*
X003618Y004345D01*
X003618Y004086D02*
X002190Y004086D01*
X002190Y004180D02*
X001200Y004180D01*
X001200Y003690D01*
X001999Y003690D01*
X002055Y003705D01*
X002105Y003734D01*
X002146Y003775D01*
X002175Y003825D01*
X002190Y003881D01*
X002190Y004180D01*
X002181Y003848D02*
X005551Y003848D01*
X005574Y004086D02*
X004988Y004086D01*
X005705Y004325D02*
X006077Y004325D01*
X006319Y004563D02*
X005705Y004563D01*
X005705Y004802D02*
X006462Y004802D01*
X006464Y004706D02*
X006464Y004706D01*
X006357Y005040D02*
X005705Y005040D01*
X005705Y005279D02*
X006265Y005279D01*
X006265Y005517D02*
X005705Y005517D01*
X005682Y005756D02*
X006265Y005756D01*
X006411Y005994D02*
X005705Y005994D01*
X005659Y006233D02*
X006501Y006233D01*
X006635Y006471D02*
X002190Y006471D01*
X001200Y006233D02*
X003622Y006233D01*
X005050Y006233D02*
X005050Y006233D01*
X005050Y005994D02*
X005050Y005994D01*
X003943Y005115D02*
X003943Y005115D01*
X003963Y004325D02*
X003963Y004325D01*
X003963Y004086D02*
X003963Y004086D01*
X004675Y003609D02*
X001302Y003609D01*
X001200Y003848D02*
X001140Y003848D01*
X000718Y003609D02*
X000480Y003609D01*
X000480Y003371D02*
X000544Y003371D01*
X000514Y003132D02*
X000480Y003132D01*
X000480Y002894D02*
X000616Y002894D01*
X000594Y002655D02*
X000480Y002655D01*
X000480Y002417D02*
X000514Y002417D01*
X000480Y002178D02*
X000553Y002178D01*
X000480Y001940D02*
X000754Y001940D01*
X000480Y001701D02*
X006536Y001701D01*
X006779Y001463D02*
X004533Y001463D01*
X004510Y001494D02*
X004444Y001560D01*
X004369Y001615D01*
X004286Y001657D01*
X004198Y001685D01*
X004106Y001700D01*
X004060Y001700D01*
X004060Y001110D01*
X004060Y001110D01*
X004650Y001110D01*
X004650Y001156D01*
X004635Y001248D01*
X004607Y001336D01*
X004565Y001419D01*
X004510Y001494D01*
X004639Y001224D02*
X008608Y001224D01*
X008736Y001224D02*
X009522Y001224D01*
X009798Y001224D02*
X009937Y001224D01*
X009998Y001463D02*
X010150Y001463D01*
X010150Y001427D02*
X010150Y001427D01*
X010215Y001701D02*
X009959Y001701D01*
X010025Y001940D02*
X010203Y001940D01*
X010825Y001575D02*
X012495Y000596D01*
X012648Y000490D01*
X011450Y000490D01*
X011503Y000512D01*
X011598Y000607D01*
X011650Y000732D01*
X011650Y000868D01*
X011598Y000993D01*
X011503Y001088D01*
X011378Y001140D01*
X011242Y001140D01*
X011117Y001088D01*
X011089Y001060D01*
X010585Y001060D01*
X010585Y001140D01*
X010605Y001175D01*
X010683Y001207D01*
X010778Y001302D01*
X010830Y001427D01*
X010830Y001563D01*
X010825Y001575D01*
X010830Y001463D02*
X011017Y001463D01*
X010700Y001224D02*
X011423Y001224D01*
X011601Y000986D02*
X011830Y000986D01*
X011650Y000747D02*
X012237Y000747D01*
X012621Y000509D02*
X011495Y000509D01*
X011170Y000490D02*
X008940Y000490D01*
X008993Y000512D01*
X009021Y000540D01*
X011089Y000540D01*
X011117Y000512D01*
X011170Y000490D01*
X011125Y000509D02*
X008985Y000509D01*
X008615Y000509D02*
X000480Y000509D01*
X000590Y000739D02*
X000729Y000600D01*
X000911Y000524D01*
X001109Y000524D01*
X001291Y000600D01*
X001430Y000739D01*
X001503Y000914D01*
X001560Y000776D01*
X001726Y000610D01*
X001943Y000520D01*
X002177Y000520D01*
X002394Y000610D01*
X002560Y000776D01*
X002726Y000610D01*
X002943Y000520D01*
X003177Y000520D01*
X003394Y000610D01*
X003560Y000776D01*
X003565Y000788D01*
X003610Y000726D01*
X003676Y000660D01*
X003751Y000605D01*
X003834Y000563D01*
X003922Y000535D01*
X004014Y000520D01*
X004060Y000520D01*
X004106Y000520D01*
X004198Y000535D01*
X004286Y000563D01*
X004369Y000605D01*
X004444Y000660D01*
X004510Y000726D01*
X004565Y000801D01*
X004607Y000884D01*
X004635Y000972D01*
X004650Y001064D01*
X004650Y001110D01*
X004060Y001110D01*
X004060Y001110D01*
X004060Y001700D01*
X004014Y001700D01*
X003922Y001685D01*
X003834Y001657D01*
X003751Y001615D01*
X003676Y001560D01*
X003610Y001494D01*
X003565Y001432D01*
X003560Y001444D01*
X003394Y001610D01*
X003177Y001700D01*
X002943Y001700D01*
X002726Y001610D01*
X002560Y001444D01*
X002394Y001610D01*
X002177Y001700D01*
X001943Y001700D01*
X001726Y001610D01*
X001560Y001444D01*
X001470Y001227D01*
X001470Y001204D01*
X001430Y001301D01*
X001291Y001440D01*
X001109Y001516D01*
X000911Y001516D01*
X000729Y001440D01*
X000590Y001301D01*
X000514Y001119D01*
X000514Y000921D01*
X000590Y000739D01*
X000587Y000747D02*
X000480Y000747D01*
X000480Y000986D02*
X000514Y000986D01*
X000480Y001224D02*
X000558Y001224D01*
X000480Y001463D02*
X000783Y001463D01*
X001237Y001463D02*
X001578Y001463D01*
X001470Y001224D02*
X001462Y001224D01*
X001433Y000747D02*
X001589Y000747D01*
X002531Y000747D02*
X002589Y000747D01*
X003531Y000747D02*
X003594Y000747D01*
X004060Y000747D02*
X004060Y000747D01*
X004060Y000520D02*
X004060Y001110D01*
X004060Y000520D01*
X004526Y000747D02*
X008460Y000747D01*
X008509Y000986D02*
X004638Y000986D01*
X004060Y000986D02*
X004060Y000986D01*
X004060Y001110D02*
X004060Y001110D01*
X004060Y001224D02*
X004060Y001224D01*
X004060Y001463D02*
X004060Y001463D01*
X003587Y001463D02*
X003542Y001463D01*
X002578Y001463D02*
X002542Y001463D01*
X001266Y001940D02*
X006557Y001940D01*
X006951Y001463D02*
X007868Y001463D01*
X008105Y001260D02*
X008105Y001260D01*
X009012Y001463D02*
X009322Y001463D01*
X009361Y001701D02*
X009201Y001701D01*
X010941Y002515D02*
X011373Y002526D01*
X011297Y002434D01*
X011210Y002405D01*
X011155Y002413D01*
X010941Y002515D01*
X011146Y002417D02*
X011244Y002417D01*
X011669Y002067D02*
X011869Y002312D01*
X012074Y002424D01*
X012835Y002534D01*
X013307Y002521D01*
X013322Y002516D01*
X013358Y002520D01*
X013394Y002519D01*
X013409Y002524D01*
X014544Y002625D01*
X014586Y002626D01*
X014595Y002630D01*
X014605Y002631D01*
X014642Y002650D01*
X014703Y002677D01*
X014709Y002667D01*
X014753Y002510D01*
X014316Y002510D01*
X014060Y002254D01*
X013804Y002510D01*
X013316Y002510D01*
X012970Y002164D01*
X012970Y001676D01*
X013053Y001593D01*
X013004Y001549D01*
X012376Y001946D01*
X012338Y002038D01*
X012243Y002133D01*
X012118Y002185D01*
X011982Y002185D01*
X011857Y002133D01*
X011762Y002038D01*
X011710Y001913D01*
X011710Y001859D01*
X011537Y001962D01*
X011552Y001970D01*
X011580Y001979D01*
X011598Y001994D01*
X011618Y002005D01*
X011636Y002027D01*
X011658Y002046D01*
X011669Y002067D01*
X011721Y001940D02*
X011574Y001940D01*
X011760Y002178D02*
X011965Y002178D01*
X012135Y002178D02*
X012984Y002178D01*
X012970Y001940D02*
X012387Y001940D01*
X012764Y001701D02*
X012970Y001701D01*
X013222Y002417D02*
X012060Y002417D01*
X012940Y002465D02*
X013985Y002550D01*
X013898Y002417D02*
X014222Y002417D01*
X014653Y002655D02*
X014712Y002655D01*
X015417Y002638D02*
X015453Y002510D01*
X015560Y002510D01*
X015560Y001920D01*
X015560Y001920D01*
X015560Y002510D01*
X015679Y002510D01*
X015657Y002532D01*
X015605Y002657D01*
X015605Y002793D01*
X015657Y002918D01*
X015703Y002964D01*
X015704Y002981D01*
X015417Y002638D01*
X015431Y002655D02*
X015606Y002655D01*
X015560Y002417D02*
X015560Y002417D01*
X015560Y002178D02*
X015560Y002178D01*
X015560Y001940D02*
X015560Y001940D01*
X016220Y001463D02*
X016431Y001463D01*
X016452Y001513D02*
X016400Y001388D01*
X016400Y001252D01*
X016452Y001127D01*
X016547Y001032D01*
X016672Y000980D01*
X016808Y000980D01*
X016889Y001014D01*
X016875Y000926D01*
X016875Y000880D01*
X017465Y000880D01*
X017465Y000880D01*
X016875Y000880D01*
X016875Y000834D01*
X016890Y000742D01*
X016918Y000654D01*
X016960Y000571D01*
X017015Y000496D01*
X017021Y000490D01*
X015964Y000490D01*
X016150Y000676D01*
X016150Y001164D01*
X016036Y001278D01*
X016480Y001723D01*
X016520Y001818D01*
X016520Y002906D01*
X017224Y003379D01*
X017254Y003393D01*
X017267Y003407D01*
X017283Y003418D01*
X017301Y003446D01*
X018405Y004680D01*
X018428Y004680D01*
X018553Y004732D01*
X018648Y004827D01*
X018696Y004943D01*
X018700Y003550D01*
X017912Y002402D01*
X017807Y002358D01*
X017712Y002263D01*
X017660Y002138D01*
X017660Y002002D01*
X017712Y001877D01*
X017735Y001854D01*
X017477Y001641D01*
X016986Y001645D01*
X016949Y001649D01*
X016935Y001645D01*
X016920Y001645D01*
X016886Y001631D01*
X016880Y001630D01*
X016808Y001660D01*
X016672Y001660D01*
X016547Y001608D01*
X016452Y001513D01*
X016459Y001701D02*
X017550Y001701D01*
X017686Y001940D02*
X016520Y001940D01*
X016520Y002178D02*
X017677Y002178D01*
X017922Y002417D02*
X016520Y002417D01*
X016520Y002655D02*
X018086Y002655D01*
X018249Y002894D02*
X016520Y002894D01*
X016857Y003132D02*
X018413Y003132D01*
X018577Y003371D02*
X017212Y003371D01*
X017447Y003609D02*
X018700Y003609D01*
X018699Y003848D02*
X017661Y003848D01*
X017874Y004086D02*
X018698Y004086D01*
X018698Y004325D02*
X018087Y004325D01*
X018300Y004563D02*
X018697Y004563D01*
X018696Y004802D02*
X018622Y004802D01*
X019216Y004802D02*
X019690Y004802D01*
X019690Y004563D02*
X019217Y004563D01*
X019218Y004325D02*
X019690Y004325D01*
X019690Y004086D02*
X019455Y004086D01*
X019468Y004073D02*
X019373Y004168D01*
X019248Y004220D01*
X019218Y004220D01*
X019214Y005550D01*
X019267Y005497D01*
X019392Y005445D01*
X019528Y005445D01*
X019653Y005497D01*
X019690Y005534D01*
X019690Y002721D01*
X019653Y002758D01*
X019528Y002810D01*
X019392Y002810D01*
X019267Y002758D01*
X019172Y002663D01*
X019132Y002566D01*
X018582Y002017D01*
X019289Y003055D01*
X019305Y003070D01*
X019317Y003097D01*
X019334Y003122D01*
X019339Y003144D01*
X019421Y003326D01*
X019560Y003564D01*
X019575Y003579D01*
X019586Y003608D01*
X019601Y003634D01*
X019604Y003656D01*
X019611Y003676D01*
X019611Y003706D01*
X019615Y003736D01*
X019609Y003758D01*
X019608Y003780D01*
X019596Y003807D01*
X019588Y003836D01*
X019575Y003854D01*
X019566Y003874D01*
X019544Y003895D01*
X019525Y003919D01*
X019520Y003922D01*
X019520Y003948D01*
X019468Y004073D01*
X019580Y003848D02*
X019690Y003848D01*
X019690Y003609D02*
X019586Y003609D01*
X019690Y003371D02*
X019447Y003371D01*
X019336Y003132D02*
X019690Y003132D01*
X019690Y002894D02*
X019179Y002894D01*
X019169Y002655D02*
X019017Y002655D01*
X018982Y002417D02*
X018854Y002417D01*
X018744Y002178D02*
X018692Y002178D01*
X019354Y001940D02*
X019690Y001940D01*
X019690Y002178D02*
X019644Y002178D01*
X019653Y002182D02*
X019556Y002142D01*
X018796Y001382D01*
X018799Y001380D01*
X018965Y001214D01*
X019055Y000997D01*
X019055Y000763D01*
X018965Y000546D01*
X018909Y000490D01*
X019690Y000490D01*
X019690Y002219D01*
X019653Y002182D01*
X019690Y001701D02*
X019115Y001701D01*
X018877Y001463D02*
X019690Y001463D01*
X019690Y001224D02*
X018955Y001224D01*
X019055Y000986D02*
X019690Y000986D01*
X019690Y000747D02*
X019049Y000747D01*
X018928Y000509D02*
X019690Y000509D01*
X017006Y000509D02*
X015983Y000509D01*
X016150Y000747D02*
X016889Y000747D01*
X016884Y000986D02*
X016821Y000986D01*
X016659Y000986D02*
X016150Y000986D01*
X016090Y001224D02*
X016412Y001224D01*
X015647Y002894D02*
X015631Y002894D01*
X019216Y005040D02*
X019690Y005040D01*
X019690Y005279D02*
X019215Y005279D01*
X019214Y005517D02*
X019247Y005517D01*
X019673Y005517D02*
X019690Y005517D01*
X018694Y005517D02*
X018568Y005517D01*
X018582Y005279D02*
X018695Y005279D01*
X018694Y005756D02*
X018545Y005756D01*
X018492Y005994D02*
X018693Y005994D01*
X018692Y006233D02*
X018421Y006233D01*
X018350Y006471D02*
X018692Y006471D01*
X008022Y005756D02*
X007757Y005756D01*
X007723Y007902D02*
X007570Y007902D01*
X006980Y009095D02*
X006980Y009095D01*
X006980Y009333D02*
X006980Y009333D01*
X001200Y005994D02*
X001140Y005994D01*
X001140Y005756D02*
X001200Y005756D01*
X001200Y004563D02*
X001140Y004563D01*
X001140Y004325D02*
X001200Y004325D01*
X001200Y004086D02*
X001140Y004086D01*
X005029Y003609D02*
X005029Y003609D01*
D24*
X004860Y002610D03*
X006865Y001795D03*
X008380Y001940D03*
X009260Y002225D03*
X009795Y002190D03*
X009265Y002570D03*
X009270Y002900D03*
X009830Y003030D03*
X009715Y003410D03*
X010730Y003250D03*
X010470Y004095D03*
X011355Y004625D03*
X011740Y004625D03*
X011745Y004960D03*
X011360Y004960D03*
X010120Y004865D03*
X008970Y004565D03*
X008005Y004840D03*
X007945Y004455D03*
X007118Y003754D03*
X008350Y005660D03*
X008870Y005650D03*
X008055Y005900D03*
X007825Y006280D03*
X007450Y006355D03*
X007065Y006360D03*
X006695Y006370D03*
X007815Y006695D03*
X007810Y007570D03*
X009035Y008050D03*
X009250Y008330D03*
X009895Y007085D03*
X012010Y008270D03*
X012790Y007860D03*
X013325Y007720D03*
X013690Y008005D03*
X014380Y007890D03*
X015515Y007500D03*
X016090Y007540D03*
X016085Y007880D03*
X015520Y008270D03*
X016010Y008670D03*
X015655Y008920D03*
X015980Y009365D03*
X016565Y009365D03*
X017395Y009305D03*
X017865Y009300D03*
X018015Y008920D03*
X017655Y008785D03*
X017270Y008755D03*
X017735Y008390D03*
X017070Y008240D03*
X017820Y007915D03*
X017890Y007585D03*
X017665Y007330D03*
X017635Y006965D03*
X017145Y007190D03*
X016890Y007370D03*
X016610Y007215D03*
X016960Y006920D03*
X015710Y006870D03*
X014965Y006365D03*
X015925Y006105D03*
X016360Y005970D03*
X015940Y005750D03*
X015645Y005440D03*
X015170Y005495D03*
X014690Y005600D03*
X014100Y005000D03*
X014155Y004475D03*
X014630Y004440D03*
X014335Y004010D03*
X015195Y003545D03*
X016160Y003860D03*
X016465Y003735D03*
X016815Y003890D03*
X016380Y004190D03*
X015715Y004235D03*
X016080Y004605D03*
X015162Y004830D03*
X016510Y005250D03*
X016875Y005540D03*
X018360Y005020D03*
X018530Y005330D03*
X019430Y005075D03*
X019435Y004690D03*
X019440Y004260D03*
X019180Y003880D03*
X018585Y003990D03*
X017540Y003735D03*
X017110Y004345D03*
X017185Y004660D03*
X018415Y004645D03*
X019460Y005785D03*
X018625Y005990D03*
X018535Y006520D03*
X019755Y007810D03*
X019675Y009400D03*
X019350Y009365D03*
X018715Y009505D03*
X019495Y009760D03*
X019190Y010020D03*
X015275Y009745D03*
X014705Y010190D03*
X014440Y009460D03*
X014525Y008950D03*
X013365Y009035D03*
X012310Y009070D03*
X012020Y009675D03*
X011510Y009950D03*
X011225Y010170D03*
X010710Y009920D03*
X013145Y006955D03*
X012655Y006255D03*
X012610Y005800D03*
X012955Y005520D03*
X013395Y005795D03*
X014495Y007050D03*
X010390Y005825D03*
X009745Y005660D03*
X012935Y004295D03*
X013355Y004205D03*
X013275Y003390D03*
X013820Y003225D03*
X012920Y002560D03*
X011795Y002185D03*
X012050Y001845D03*
X013015Y001585D03*
X011310Y000800D03*
X010245Y001080D03*
X010490Y001495D03*
X009660Y001535D03*
X008800Y000800D03*
X014755Y002510D03*
X015435Y002605D03*
X015945Y002725D03*
X018000Y002070D03*
X018805Y002280D03*
X019460Y002470D03*
X019610Y001470D03*
X016740Y001320D03*
X002450Y003475D03*
D25*
X002825Y003470D03*
X002820Y003140D03*
X002505Y003045D03*
X002400Y002715D03*
X002405Y002390D03*
X002395Y002035D03*
X002160Y001795D03*
X001845Y001790D03*
X001565Y001630D03*
X001200Y001625D03*
X000820Y001595D03*
X000510Y001720D03*
X000510Y002070D03*
X001470Y002015D03*
X002510Y001710D03*
X002830Y001780D03*
X003175Y001815D03*
X003565Y001650D03*
X004425Y001715D03*
X004440Y002080D03*
X004445Y002455D03*
X004445Y002855D03*
X005290Y002760D03*
X005895Y002460D03*
X006990Y002275D03*
X005955Y001745D03*
X005650Y001770D03*
X006875Y000895D03*
X006860Y000535D03*
X007915Y000505D03*
X008580Y000510D03*
X009285Y000515D03*
X010110Y000510D03*
X010530Y000515D03*
X010990Y000510D03*
X011605Y000535D03*
X012180Y000535D03*
X012565Y000515D03*
X010110Y002005D03*
X011340Y002515D03*
X009255Y001105D03*
X007775Y003055D03*
X004720Y003750D03*
X004080Y003735D03*
X002835Y003800D03*
X002835Y004135D03*
X002840Y004440D03*
X002855Y004760D03*
X002545Y004765D03*
X002210Y004765D03*
X002210Y004430D03*
X002200Y004110D03*
X002195Y003755D03*
X001905Y003610D03*
X001570Y003610D03*
X000505Y003670D03*
X000605Y002775D03*
X001375Y002780D03*
X000510Y001370D03*
X000560Y000570D03*
X001310Y000520D03*
X001660Y000520D03*
X002000Y000505D03*
X002340Y000510D03*
X002710Y000520D03*
X003060Y000520D03*
X003410Y000520D03*
X003755Y000530D03*
X004110Y000520D03*
X004495Y000520D03*
X004845Y000515D03*
X005215Y000515D03*
X005620Y000515D03*
X013100Y004855D03*
X018590Y003495D03*
X016370Y001035D03*
X016765Y000535D03*
X006360Y006200D03*
X006000Y006205D03*
X005655Y006305D03*
X005290Y006560D03*
X005300Y006985D03*
X005310Y007370D03*
X005310Y007770D03*
X005310Y008170D03*
X005310Y008570D03*
X005310Y008970D03*
X005310Y009370D03*
X005310Y009770D03*
X005085Y010125D03*
X005560Y010120D03*
X006010Y010120D03*
X006410Y010120D03*
X006810Y010120D03*
X007240Y010120D03*
X007645Y010105D03*
X007580Y009755D03*
X007570Y009370D03*
X007760Y009020D03*
X007760Y008520D03*
X007755Y008035D03*
X007625Y007120D03*
X006050Y005785D03*
X005740Y005790D03*
X004035Y006385D03*
X003740Y006325D03*
X003465Y006460D03*
X003145Y006450D03*
X002830Y006750D03*
X002425Y006750D03*
X002085Y006755D03*
X002260Y006355D03*
X002245Y005975D03*
X002205Y005660D03*
X002575Y005650D03*
X002935Y005665D03*
X003260Y005670D03*
X003575Y005660D03*
X003050Y005935D03*
X004010Y007520D03*
X003905Y009730D03*
X003900Y010130D03*
X004645Y010130D03*
X010160Y009070D03*
X011090Y008935D03*
X012655Y009115D03*
X013205Y009570D03*
D26*
X012810Y009670D02*
X013015Y008695D01*
X013130Y008130D01*
X013060Y007795D01*
X012810Y006680D01*
X014985Y006600D01*
X015460Y006870D01*
X015710Y006870D01*
X015975Y006810D02*
X015580Y006415D01*
X014895Y006060D01*
X014645Y006220D01*
X012655Y006255D01*
X012630Y006510D02*
X012480Y008135D01*
X010710Y009920D01*
X010250Y010170D02*
X014705Y010190D01*
X015275Y009745D02*
X016550Y009745D01*
X018210Y009745D01*
X018960Y009755D01*
X018960Y009345D01*
X019370Y009060D01*
X019370Y008270D01*
X019255Y007950D01*
X018950Y007075D01*
X018960Y003470D01*
X018000Y002070D01*
X018175Y001880D02*
X017570Y001380D01*
X016970Y001385D01*
X016740Y001320D01*
X016370Y001035D02*
X016510Y000870D01*
X017465Y000880D01*
X016760Y000820D01*
X016760Y000420D01*
X017020Y000400D01*
X018760Y000390D01*
X018910Y000570D01*
X019610Y001470D01*
X018175Y001880D02*
X019090Y003225D01*
X019190Y003445D01*
X019350Y003720D01*
X019180Y003880D01*
X017930Y005080D02*
X017530Y004700D01*
X017185Y004660D01*
X017110Y004345D02*
X016660Y004770D01*
X016080Y004605D01*
X015955Y004875D02*
X016595Y005025D01*
X016725Y005145D01*
X016825Y005320D01*
X016875Y005540D01*
X016745Y005825D02*
X016510Y005250D01*
X016205Y005675D02*
X015860Y005335D01*
X015405Y004785D01*
X014425Y003505D01*
X013800Y003470D01*
X013690Y003440D01*
X013620Y003365D01*
X013535Y003275D01*
X013360Y003165D01*
X012790Y003120D01*
X012435Y003100D01*
X011665Y002965D01*
X010730Y002965D01*
X010550Y003075D01*
X009995Y003595D01*
X009455Y004170D01*
X007145Y004170D01*
X007145Y004175D01*
X007118Y003754D01*
X007110Y004475D02*
X007100Y004485D01*
X006610Y004485D01*
X005915Y003800D01*
X005914Y003800D01*
X005909Y003795D01*
X005909Y003758D01*
X005541Y003390D01*
X005915Y003800D02*
X004935Y002810D01*
X004860Y002610D01*
X004910Y004335D02*
X004317Y004345D01*
X004910Y004335D02*
X005050Y004475D01*
X005050Y004975D02*
X004437Y004975D01*
X004297Y005115D01*
X004535Y005590D02*
X005045Y005480D01*
X005050Y005475D01*
X004535Y005590D02*
X004307Y005900D01*
X006050Y005785D02*
X006050Y005195D01*
X006170Y005075D01*
X006401Y005075D01*
X006445Y005031D01*
X007054Y005031D01*
X007110Y004975D01*
X006550Y005230D02*
X006525Y005240D01*
X006525Y005740D01*
X006760Y005975D01*
X007110Y005975D01*
X007450Y006355D02*
X007825Y006280D01*
X007815Y006695D02*
X007245Y006695D01*
X006980Y006960D01*
X007370Y007570D02*
X007810Y007570D01*
X008900Y008295D01*
X009237Y008348D01*
X009230Y008325D01*
X009265Y008330D01*
X009250Y008330D01*
X009237Y008348D02*
X009250Y008305D01*
X009395Y007335D01*
X010230Y006100D01*
X011515Y006165D01*
X012305Y006195D01*
X012310Y007850D01*
X012010Y008270D01*
X013325Y007720D02*
X013145Y006965D01*
X013145Y006955D02*
X013335Y006955D01*
X013455Y006835D01*
X014905Y006790D01*
X014495Y007050D02*
X013690Y007050D01*
X013690Y008005D01*
X014120Y007975D02*
X014155Y008115D01*
X014380Y007890D01*
X014640Y008726D02*
X015591Y007775D01*
X016095Y007775D01*
X016485Y007470D02*
X016215Y007175D01*
X015975Y006810D01*
X016380Y006985D02*
X015650Y006235D01*
X014905Y005875D01*
X013575Y006020D01*
X012470Y006020D01*
X012355Y005990D01*
X012115Y005965D01*
X011670Y005815D01*
X010390Y005825D01*
X010071Y005780D02*
X009035Y007295D01*
X009035Y008050D01*
X007370Y007570D02*
X006980Y007960D01*
X008350Y005660D02*
X008315Y005468D01*
X008304Y005476D01*
X008296Y005466D01*
X008295Y005460D01*
X008270Y005470D01*
X007880Y005460D01*
X007435Y005460D01*
X007110Y005475D01*
X006550Y005230D02*
X007740Y005230D01*
X007820Y005150D01*
X007820Y005025D01*
X008005Y004840D01*
X009165Y004830D01*
X010235Y003670D01*
X010905Y003490D01*
X011445Y003490D01*
X011545Y003455D01*
X011955Y003455D01*
X012155Y003485D01*
X012375Y003651D01*
X012365Y003659D01*
X012375Y003651D02*
X012780Y003655D01*
X013000Y003665D01*
X014055Y003765D01*
X014405Y003760D01*
X014525Y003880D01*
X014615Y004020D01*
X014630Y004440D01*
X014525Y004665D02*
X014415Y004595D01*
X014155Y004475D01*
X014525Y004665D02*
X014705Y004685D01*
X014962Y004555D01*
X015162Y004830D01*
X015020Y005025D02*
X015170Y005090D01*
X015415Y005110D01*
X015645Y005440D01*
X015370Y005350D02*
X015490Y005690D01*
X015925Y006105D01*
X016115Y005960D02*
X016170Y006105D01*
X016215Y006270D01*
X016630Y006795D01*
X016705Y006935D01*
X016710Y006955D01*
X016845Y007140D01*
X016890Y007370D01*
X017145Y007190D02*
X017200Y007000D01*
X017200Y006820D01*
X016745Y005825D01*
X016560Y005830D02*
X015780Y004995D01*
X014400Y003215D01*
X013845Y003215D01*
X013820Y003225D01*
X013345Y002955D02*
X012860Y002965D01*
X011740Y002795D01*
X010720Y002770D01*
X009730Y003390D01*
X009715Y003410D01*
X009580Y003200D02*
X009375Y003460D01*
X009280Y003160D02*
X009400Y003115D01*
X009490Y003015D01*
X009585Y002915D01*
X009680Y002835D01*
X009845Y002760D01*
X010105Y002680D01*
X010305Y002575D01*
X010580Y002400D01*
X011080Y002160D01*
X011235Y002140D01*
X011450Y002210D01*
X011700Y002515D01*
X011990Y002675D01*
X012820Y002795D01*
X013350Y002780D01*
X014530Y002885D01*
X014645Y002935D01*
X015195Y003545D01*
X015775Y003180D02*
X015555Y001915D01*
X015060Y002085D02*
X015225Y002360D01*
X015130Y002700D01*
X016110Y003870D01*
X016160Y003860D01*
X015925Y004065D02*
X014950Y002770D01*
X015060Y002380D01*
X014820Y002155D01*
X014715Y002055D01*
X014560Y001920D01*
X014510Y001920D01*
X013810Y001420D01*
X013255Y001425D01*
X013030Y001225D01*
X012050Y001845D01*
X011350Y001770D02*
X010005Y002530D01*
X009520Y002695D01*
X009270Y002900D01*
X009035Y002820D02*
X009045Y003025D01*
X009155Y003130D01*
X009280Y003160D01*
X009580Y003200D02*
X009820Y003040D01*
X009705Y003155D01*
X009645Y003155D01*
X009770Y003030D01*
X009830Y003030D01*
X009820Y003040D02*
X010860Y002495D01*
X011310Y002500D01*
X010290Y002190D02*
X009875Y002410D01*
X009265Y002570D01*
X009025Y002415D02*
X009035Y002820D01*
X009025Y002415D02*
X008890Y002190D01*
X008640Y001940D01*
X008380Y001940D01*
X009260Y002225D02*
X009785Y002185D01*
X009780Y002190D01*
X009795Y002190D02*
X009660Y002055D01*
X009660Y001535D01*
X010110Y002005D02*
X010280Y001860D01*
X010450Y001860D01*
X010830Y001630D01*
X010490Y001495D02*
X010270Y001115D01*
X010245Y001080D01*
X011310Y000800D02*
X008800Y000800D01*
X008020Y000470D02*
X007915Y000505D01*
X008020Y000470D02*
X007700Y000470D01*
X012375Y000480D01*
X012635Y000815D02*
X010290Y002190D01*
X011350Y001770D02*
X012790Y000920D01*
X013560Y000920D01*
X013710Y000920D01*
X014310Y001420D01*
X014760Y001420D01*
X015060Y001720D01*
X015060Y002085D01*
X014755Y002510D02*
X014025Y002510D01*
X013985Y002550D01*
X014475Y003040D02*
X013345Y002955D01*
X014475Y003040D02*
X015550Y004385D01*
X015955Y004875D01*
X016375Y004460D02*
X016960Y004105D01*
X017170Y004065D01*
X018060Y004970D01*
X018310Y005470D01*
X018280Y005795D01*
X018055Y006550D01*
X017855Y007080D01*
X017710Y007235D01*
X017665Y007330D01*
X017890Y007275D02*
X017890Y007585D01*
X017890Y007890D01*
X017990Y007990D01*
X017875Y007990D01*
X017380Y007495D01*
X017380Y006625D01*
X017635Y006965D02*
X017900Y006525D01*
X018120Y005725D01*
X018110Y005540D01*
X017930Y005080D01*
X018360Y005020D02*
X017095Y003605D01*
X016260Y003045D01*
X016260Y001870D01*
X015810Y001420D01*
X015060Y001420D01*
X014560Y000920D01*
X014060Y000425D01*
X013200Y000425D01*
X012635Y000815D01*
X015945Y002725D02*
X015975Y003105D01*
X016710Y003570D01*
X016815Y003890D01*
X016465Y003755D02*
X015775Y003180D01*
X014335Y004010D02*
X012840Y003875D01*
X012700Y004150D01*
X012670Y004285D01*
X012605Y004370D01*
X012190Y004375D01*
X012935Y004295D02*
X014120Y004730D01*
X014420Y004795D01*
X014720Y004835D01*
X014820Y004900D01*
X015020Y005025D01*
X014960Y005180D02*
X015180Y005250D01*
X015370Y005350D01*
X014960Y005180D02*
X014490Y005025D01*
X014690Y005600D02*
X013420Y005540D01*
X013395Y005795D01*
X013230Y005775D02*
X012610Y005800D01*
X012630Y006510D02*
X014810Y006420D01*
X014965Y006365D01*
X015940Y005750D02*
X016115Y005960D01*
X016360Y005970D02*
X016205Y005675D01*
X016560Y005830D02*
X016790Y006320D01*
X016960Y006920D01*
X016610Y007215D02*
X016380Y006985D01*
X016485Y007470D02*
X017210Y008035D01*
X017735Y008390D01*
X017935Y008585D02*
X018070Y008305D01*
X018080Y008270D02*
X017820Y008010D01*
X017820Y007915D01*
X018080Y008270D02*
X018080Y007125D01*
X018125Y007080D01*
X018125Y006860D01*
X018595Y006390D01*
X018575Y006490D01*
X018525Y006540D01*
X018535Y006510D01*
X018225Y006820D01*
X018225Y006940D01*
X017890Y007275D01*
X018530Y007975D02*
X018530Y008425D01*
X018530Y008425D01*
X018994Y008425D01*
X019015Y008404D01*
X019015Y008916D02*
X018414Y008916D01*
X018015Y008920D01*
X017935Y008585D02*
X017635Y008760D01*
X017070Y008240D02*
X015780Y008420D01*
X015655Y008920D01*
X015980Y009365D02*
X013365Y009035D01*
X012810Y009670D02*
X012020Y009675D01*
X014459Y009004D02*
X014525Y008950D01*
X014541Y009004D02*
X014640Y008905D01*
X014640Y008726D01*
X014541Y009004D02*
X014459Y009004D01*
X018540Y006540D02*
X018545Y006535D01*
X018545Y006525D01*
X018540Y006520D02*
X018540Y006540D01*
X018535Y006520D02*
X018540Y006520D01*
X018595Y006390D02*
X018715Y006270D01*
X018715Y006330D01*
X018625Y005990D01*
X016375Y004460D02*
X016095Y004290D01*
X015715Y004235D01*
X015925Y004065D02*
X016380Y004190D01*
X011995Y003915D02*
X011790Y003916D01*
X011775Y003915D01*
X011790Y003916D02*
X011595Y003915D01*
X011440Y004010D01*
X010955Y004010D01*
X010560Y003830D01*
X010335Y003840D01*
X009205Y005060D01*
X008350Y005660D01*
X007770Y004710D02*
X006390Y004710D01*
X010730Y003250D02*
X011080Y003250D01*
X011160Y003170D01*
X011201Y003170D01*
X011245Y003234D01*
X011312Y003659D02*
X011775Y003659D01*
X011312Y003659D02*
X011245Y003746D01*
D27*
X012735Y005270D02*
X009625Y005275D01*
X008870Y005650D01*
X012735Y005270D02*
X014620Y005270D01*
X014935Y005380D01*
X014930Y005370D01*
X015170Y005495D01*
X016465Y003755D02*
X016465Y003735D01*
X017850Y009290D02*
X018130Y009510D01*
X018715Y009505D01*
X018695Y009490D01*
X018715Y009505D02*
X018160Y009500D01*
X017865Y009300D01*
X017850Y009290D01*
X016565Y009365D02*
X016550Y009745D01*
X019190Y010020D02*
X019190Y010020D01*
X019350Y009365D02*
X019330Y009345D01*
X001485Y001270D02*
X001485Y000925D01*
X001315Y000510D01*
D28*
X006865Y001795D02*
X007945Y001830D01*
X008185Y001555D01*
X008675Y001520D01*
X009245Y002240D01*
X009795Y002190D01*
X009790Y002185D01*
X009785Y002185D01*
X010730Y003250D02*
X011730Y003245D01*
X012530Y003310D01*
X012785Y003315D01*
X013275Y003390D01*
X010315Y004855D02*
X010320Y005000D01*
X010315Y004855D02*
X010135Y004855D01*
X010135Y004734D01*
X010138Y004844D01*
X010048Y004860D01*
X010120Y004865D01*
X010225Y005555D02*
X010400Y005520D01*
X012955Y005520D01*
X010225Y005555D02*
X010071Y005780D01*
X009745Y005660D01*
X012210Y009120D02*
X012310Y009070D01*
X012210Y009120D02*
X011500Y009815D01*
X011995Y009945D01*
X014840Y009920D01*
X015150Y010035D01*
X019190Y010035D01*
X019190Y010020D01*
X019195Y009470D01*
X019330Y009345D01*
X019350Y009365D02*
X019685Y008995D01*
X019685Y008485D01*
X019465Y007890D01*
X019465Y006105D01*
X019460Y005785D01*
X019460Y002470D02*
X018360Y001370D01*
X018465Y000880D01*
X017480Y000835D02*
X018725Y002160D01*
X011510Y009820D02*
X011500Y009815D01*
X011510Y009820D02*
X011510Y009950D01*
D29*
X019755Y007810D02*
X019755Y005540D01*
X019355Y005140D01*
X019430Y005075D01*
D30*
X012190Y004375D02*
X012075Y004275D01*
X012075Y004025D01*
X011995Y003915D01*
M02*
