%
M48
M72
T01C0.0120
T02C0.0150
T03C0.0197
T04C0.0400
T05C0.0551
%
T01
X2450Y3475
X4860Y2610
X6865Y1795
X8380Y1940
X9260Y2225
X9795Y2190
X9265Y2570
X9270Y2900
X9830Y3030
X9715Y3410
X10730Y3250
X10470Y4095
X11355Y4625
X11740Y4625
X11745Y4960
X11360Y4960
X10120Y4865
X8970Y4565
X8005Y4840
X7945Y4455
X7118Y3754
X8350Y5660
X8870Y5650
X8055Y5900
X7825Y6280
X7450Y6355
X7065Y6360
X6695Y6370
X7815Y6695
X7810Y7570
X9035Y8050
X9250Y8330
X9895Y7085
X12010Y8270
X12790Y7860
X13325Y7720
X13690Y8005
X14380Y7890
X15515Y7500
X16090Y7540
X16085Y7880
X15520Y8270
X16010Y8670
X15655Y8920
X15980Y9365
X16565Y9365
X17395Y9305
X17865Y9300
X18015Y8920
X17655Y8785
X17270Y8755
X17735Y8390
X17070Y8240
X17820Y7915
X17890Y7585
X17665Y7330
X17635Y6965
X17145Y7190
X16890Y7370
X16610Y7215
X16960Y6920
X15710Y6870
X14965Y6365
X15925Y6105
X16360Y5970
X15940Y5750
X15645Y5440
X15170Y5495
X14690Y5600
X14100Y5000
X14155Y4475
X14630Y4440
X14335Y4010
X15195Y3545
X16160Y3860
X16465Y3735
X16815Y3890
X16380Y4190
X15715Y4235
X16080Y4605
X15162Y4830
X16510Y5250
X16875Y5540
X18360Y5020
X18530Y5330
X19430Y5075
X19435Y4690
X19440Y4260
X19180Y3880
X18585Y3990
X17540Y3735
X17110Y4345
X17185Y4660
X18415Y4645
X19460Y5785
X18625Y5990
X18535Y6520
X19755Y7810
X19675Y9400
X19350Y9365
X18715Y9505
X19495Y9760
X19190Y10020
X15275Y9745
X14705Y10190
X14440Y9460
X14525Y8950
X13365Y9035
X12310Y9070
X12020Y9675
X11510Y9950
X11225Y10170
X10710Y9920
X13145Y6955
X12655Y6255
X12610Y5800
X12955Y5520
X13395Y5795
X14495Y7050
X10390Y5825
X9745Y5660
X12935Y4295
X13355Y4205
X13275Y3390
X13820Y3225
X12920Y2560
X11795Y2185
X12050Y1845
X13015Y1585
X11310Y800
X10245Y1080
X10490Y1495
X9660Y1535
X8800Y800
X14755Y2510
X15435Y2605
X15945Y2725
X18000Y2070
X18805Y2280
X19460Y2470
X19610Y1470
X16740Y1320
T02
X2085Y6755
X2425Y6750
X2830Y6750
X3145Y6450
X3465Y6460
X3740Y6325
X4035Y6385
X3050Y5935
X3260Y5670
X3575Y5660
X2935Y5665
X2575Y5650
X2205Y5660
X2245Y5975
X2260Y6355
X4010Y7520
X5310Y7370
X5300Y6985
X5290Y6560
X5655Y6305
X6000Y6205
X6360Y6200
X6050Y5785
X5740Y5790
X7625Y7120
X7755Y8035
X7760Y8520
X7760Y9020
X7570Y9370
X7580Y9755
X7645Y10105
X7240Y10120
X6810Y10120
X6410Y10120
X6010Y10120
X5560Y10120
X5085Y10125
X5310Y9770
X5310Y9370
X5310Y8970
X5310Y8570
X5310Y8170
X5310Y7770
X3905Y9730
X3900Y10130
X4645Y10130
X10160Y9070
X11090Y8935
X12655Y9115
X13205Y9570
X13100Y4855
X11340Y2515
X10110Y2005
X9255Y1105
X9285Y515
X8580Y510
X7915Y505
X6860Y535
X6875Y895
X5620Y515
X5215Y515
X4845Y515
X4495Y520
X4110Y520
X3755Y530
X3410Y520
X3060Y520
X2710Y520
X2340Y510
X2000Y505
X1660Y520
X1310Y520
X560Y570
X510Y1370
X820Y1595
X1200Y1625
X1565Y1630
X1845Y1790
X2160Y1795
X2510Y1710
X2830Y1780
X3175Y1815
X3565Y1650
X4425Y1715
X4440Y2080
X4445Y2455
X4445Y2855
X5290Y2760
X5895Y2460
X6990Y2275
X5955Y1745
X5650Y1770
X7775Y3055
X4720Y3750
X4080Y3735
X2835Y3800
X2825Y3470
X2820Y3140
X2505Y3045
X2400Y2715
X2405Y2390
X2395Y2035
X1470Y2015
X510Y2070
X510Y1720
X605Y2775
X1375Y2780
X1570Y3610
X1905Y3610
X2195Y3755
X2200Y4110
X2210Y4430
X2210Y4765
X2545Y4765
X2855Y4760
X2840Y4440
X2835Y4135
X505Y3670
X10110Y510
X10530Y515
X10990Y510
X11605Y535
X12180Y535
X12565Y515
X16370Y1035
X16765Y535
X18590Y3495
T03
X7514Y3311
X8026Y3311
X8026Y2799
X7514Y2799
T04
X6980Y7960
X6980Y6960
X6980Y8960
X2060Y1110
X3060Y1110
X4060Y1110
X13560Y920
X14560Y920
X15560Y920
X15560Y1920
X14560Y1920
X13560Y1920
X17465Y880
X18465Y880
T05
X1010Y1020
X1010Y2370
X1010Y3200
X1010Y7570
X1010Y8420
X1010Y9920
M30
