G75*
G70*
%OFA0B0*%
%FSLAX24Y24*%
%IPPOS*%
%LPD*%
%AMOC8*
5,1,8,0,0,1.08239X$1,22.5*
%
%ADD10C,0.0000*%
%ADD11R,0.0354X0.0276*%
%ADD12R,0.0276X0.0354*%
%ADD13R,0.0500X0.0220*%
%ADD14R,0.0220X0.0500*%
%ADD15R,0.0709X0.0315*%
%ADD16R,0.0709X0.0276*%
%ADD17R,0.0394X0.0787*%
%ADD18OC8,0.0740*%
%ADD19R,0.0394X0.0433*%
%ADD20R,0.0315X0.0315*%
%ADD21R,0.0413X0.0866*%
%ADD22R,0.0394X0.0413*%
%ADD23C,0.0740*%
%ADD24R,0.0110X0.1496*%
%ADD25R,0.0650X0.0945*%
%ADD26C,0.0055*%
%ADD27R,0.1500X0.0760*%
%ADD28R,0.0709X0.0630*%
%ADD29R,0.0630X0.0709*%
%ADD30R,0.1496X0.0110*%
%ADD31R,0.0945X0.0650*%
%ADD32R,0.0760X0.1500*%
%ADD33R,0.0700X0.0700*%
%ADD34R,0.0450X0.0450*%
%ADD35R,0.0700X0.0280*%
%ADD36R,0.0560X0.0350*%
%ADD37R,0.0787X0.0512*%
%ADD38R,0.0276X0.0098*%
%ADD39R,0.0098X0.0276*%
%ADD40R,0.1024X0.1024*%
%ADD41C,0.0397*%
%ADD42R,0.0433X0.0394*%
%ADD43R,0.1600X0.0600*%
%ADD44R,0.0197X0.0315*%
%ADD45C,0.0236*%
%ADD46R,0.0197X0.0236*%
%ADD47R,0.0236X0.0197*%
%ADD48C,0.0240*%
%ADD49C,0.0100*%
%ADD50C,0.0240*%
%ADD51C,0.0080*%
%ADD52C,0.0160*%
%ADD53C,0.0270*%
%ADD54C,0.0120*%
%ADD55C,0.0560*%
%ADD56C,0.0320*%
D10*
X000260Y000270D02*
X000260Y010370D01*
X019910Y010370D01*
X019910Y000270D01*
X000260Y000270D01*
X000734Y001020D02*
X000736Y001053D01*
X000742Y001085D01*
X000751Y001116D01*
X000764Y001146D01*
X000781Y001174D01*
X000801Y001200D01*
X000824Y001224D01*
X000849Y001244D01*
X000877Y001262D01*
X000906Y001276D01*
X000937Y001286D01*
X000969Y001293D01*
X001002Y001296D01*
X001035Y001295D01*
X001067Y001290D01*
X001098Y001281D01*
X001129Y001269D01*
X001157Y001253D01*
X001184Y001234D01*
X001208Y001212D01*
X001229Y001187D01*
X001248Y001160D01*
X001263Y001131D01*
X001274Y001101D01*
X001282Y001069D01*
X001286Y001036D01*
X001286Y001004D01*
X001282Y000971D01*
X001274Y000939D01*
X001263Y000909D01*
X001248Y000880D01*
X001229Y000853D01*
X001208Y000828D01*
X001184Y000806D01*
X001157Y000787D01*
X001129Y000771D01*
X001098Y000759D01*
X001067Y000750D01*
X001035Y000745D01*
X001002Y000744D01*
X000969Y000747D01*
X000937Y000754D01*
X000906Y000764D01*
X000877Y000778D01*
X000849Y000796D01*
X000824Y000816D01*
X000801Y000840D01*
X000781Y000866D01*
X000764Y000894D01*
X000751Y000924D01*
X000742Y000955D01*
X000736Y000987D01*
X000734Y001020D01*
X000734Y002370D02*
X000736Y002403D01*
X000742Y002435D01*
X000751Y002466D01*
X000764Y002496D01*
X000781Y002524D01*
X000801Y002550D01*
X000824Y002574D01*
X000849Y002594D01*
X000877Y002612D01*
X000906Y002626D01*
X000937Y002636D01*
X000969Y002643D01*
X001002Y002646D01*
X001035Y002645D01*
X001067Y002640D01*
X001098Y002631D01*
X001129Y002619D01*
X001157Y002603D01*
X001184Y002584D01*
X001208Y002562D01*
X001229Y002537D01*
X001248Y002510D01*
X001263Y002481D01*
X001274Y002451D01*
X001282Y002419D01*
X001286Y002386D01*
X001286Y002354D01*
X001282Y002321D01*
X001274Y002289D01*
X001263Y002259D01*
X001248Y002230D01*
X001229Y002203D01*
X001208Y002178D01*
X001184Y002156D01*
X001157Y002137D01*
X001129Y002121D01*
X001098Y002109D01*
X001067Y002100D01*
X001035Y002095D01*
X001002Y002094D01*
X000969Y002097D01*
X000937Y002104D01*
X000906Y002114D01*
X000877Y002128D01*
X000849Y002146D01*
X000824Y002166D01*
X000801Y002190D01*
X000781Y002216D01*
X000764Y002244D01*
X000751Y002274D01*
X000742Y002305D01*
X000736Y002337D01*
X000734Y002370D01*
X000734Y003200D02*
X000736Y003233D01*
X000742Y003265D01*
X000751Y003296D01*
X000764Y003326D01*
X000781Y003354D01*
X000801Y003380D01*
X000824Y003404D01*
X000849Y003424D01*
X000877Y003442D01*
X000906Y003456D01*
X000937Y003466D01*
X000969Y003473D01*
X001002Y003476D01*
X001035Y003475D01*
X001067Y003470D01*
X001098Y003461D01*
X001129Y003449D01*
X001157Y003433D01*
X001184Y003414D01*
X001208Y003392D01*
X001229Y003367D01*
X001248Y003340D01*
X001263Y003311D01*
X001274Y003281D01*
X001282Y003249D01*
X001286Y003216D01*
X001286Y003184D01*
X001282Y003151D01*
X001274Y003119D01*
X001263Y003089D01*
X001248Y003060D01*
X001229Y003033D01*
X001208Y003008D01*
X001184Y002986D01*
X001157Y002967D01*
X001129Y002951D01*
X001098Y002939D01*
X001067Y002930D01*
X001035Y002925D01*
X001002Y002924D01*
X000969Y002927D01*
X000937Y002934D01*
X000906Y002944D01*
X000877Y002958D01*
X000849Y002976D01*
X000824Y002996D01*
X000801Y003020D01*
X000781Y003046D01*
X000764Y003074D01*
X000751Y003104D01*
X000742Y003135D01*
X000736Y003167D01*
X000734Y003200D01*
X000734Y007570D02*
X000736Y007603D01*
X000742Y007635D01*
X000751Y007666D01*
X000764Y007696D01*
X000781Y007724D01*
X000801Y007750D01*
X000824Y007774D01*
X000849Y007794D01*
X000877Y007812D01*
X000906Y007826D01*
X000937Y007836D01*
X000969Y007843D01*
X001002Y007846D01*
X001035Y007845D01*
X001067Y007840D01*
X001098Y007831D01*
X001129Y007819D01*
X001157Y007803D01*
X001184Y007784D01*
X001208Y007762D01*
X001229Y007737D01*
X001248Y007710D01*
X001263Y007681D01*
X001274Y007651D01*
X001282Y007619D01*
X001286Y007586D01*
X001286Y007554D01*
X001282Y007521D01*
X001274Y007489D01*
X001263Y007459D01*
X001248Y007430D01*
X001229Y007403D01*
X001208Y007378D01*
X001184Y007356D01*
X001157Y007337D01*
X001129Y007321D01*
X001098Y007309D01*
X001067Y007300D01*
X001035Y007295D01*
X001002Y007294D01*
X000969Y007297D01*
X000937Y007304D01*
X000906Y007314D01*
X000877Y007328D01*
X000849Y007346D01*
X000824Y007366D01*
X000801Y007390D01*
X000781Y007416D01*
X000764Y007444D01*
X000751Y007474D01*
X000742Y007505D01*
X000736Y007537D01*
X000734Y007570D01*
X000734Y008420D02*
X000736Y008453D01*
X000742Y008485D01*
X000751Y008516D01*
X000764Y008546D01*
X000781Y008574D01*
X000801Y008600D01*
X000824Y008624D01*
X000849Y008644D01*
X000877Y008662D01*
X000906Y008676D01*
X000937Y008686D01*
X000969Y008693D01*
X001002Y008696D01*
X001035Y008695D01*
X001067Y008690D01*
X001098Y008681D01*
X001129Y008669D01*
X001157Y008653D01*
X001184Y008634D01*
X001208Y008612D01*
X001229Y008587D01*
X001248Y008560D01*
X001263Y008531D01*
X001274Y008501D01*
X001282Y008469D01*
X001286Y008436D01*
X001286Y008404D01*
X001282Y008371D01*
X001274Y008339D01*
X001263Y008309D01*
X001248Y008280D01*
X001229Y008253D01*
X001208Y008228D01*
X001184Y008206D01*
X001157Y008187D01*
X001129Y008171D01*
X001098Y008159D01*
X001067Y008150D01*
X001035Y008145D01*
X001002Y008144D01*
X000969Y008147D01*
X000937Y008154D01*
X000906Y008164D01*
X000877Y008178D01*
X000849Y008196D01*
X000824Y008216D01*
X000801Y008240D01*
X000781Y008266D01*
X000764Y008294D01*
X000751Y008324D01*
X000742Y008355D01*
X000736Y008387D01*
X000734Y008420D01*
X000734Y009920D02*
X000736Y009953D01*
X000742Y009985D01*
X000751Y010016D01*
X000764Y010046D01*
X000781Y010074D01*
X000801Y010100D01*
X000824Y010124D01*
X000849Y010144D01*
X000877Y010162D01*
X000906Y010176D01*
X000937Y010186D01*
X000969Y010193D01*
X001002Y010196D01*
X001035Y010195D01*
X001067Y010190D01*
X001098Y010181D01*
X001129Y010169D01*
X001157Y010153D01*
X001184Y010134D01*
X001208Y010112D01*
X001229Y010087D01*
X001248Y010060D01*
X001263Y010031D01*
X001274Y010001D01*
X001282Y009969D01*
X001286Y009936D01*
X001286Y009904D01*
X001282Y009871D01*
X001274Y009839D01*
X001263Y009809D01*
X001248Y009780D01*
X001229Y009753D01*
X001208Y009728D01*
X001184Y009706D01*
X001157Y009687D01*
X001129Y009671D01*
X001098Y009659D01*
X001067Y009650D01*
X001035Y009645D01*
X001002Y009644D01*
X000969Y009647D01*
X000937Y009654D01*
X000906Y009664D01*
X000877Y009678D01*
X000849Y009696D01*
X000824Y009716D01*
X000801Y009740D01*
X000781Y009766D01*
X000764Y009794D01*
X000751Y009824D01*
X000742Y009855D01*
X000736Y009887D01*
X000734Y009920D01*
D11*
X003245Y009056D03*
X003245Y008544D03*
X003405Y007431D03*
X003405Y006919D03*
X006445Y005031D03*
X007075Y004841D03*
X007575Y004836D03*
X007575Y004324D03*
X007075Y004329D03*
X006445Y004519D03*
X005735Y003371D03*
X005735Y002859D03*
X003925Y004104D03*
X003925Y004616D03*
X002845Y002691D03*
X002845Y002179D03*
X008330Y001381D03*
X008800Y001516D03*
X009255Y001519D03*
X009675Y001271D03*
X009675Y000759D03*
X008800Y001004D03*
X008330Y000869D03*
X009255Y002031D03*
X010775Y001546D03*
X011310Y001526D03*
X011910Y001526D03*
X012650Y001341D03*
X011910Y001014D03*
X011310Y001014D03*
X010775Y001034D03*
X012650Y000829D03*
X015755Y003159D03*
X015755Y003671D03*
X013030Y005779D03*
X013030Y006291D03*
X012760Y006969D03*
X012760Y007481D03*
X009160Y007676D03*
X009160Y007164D03*
X009725Y005361D03*
X009725Y004849D03*
X009005Y004171D03*
X009005Y003659D03*
X009060Y009214D03*
X009510Y009214D03*
X009510Y009726D03*
X009060Y009726D03*
D12*
X013649Y009350D03*
X014161Y009350D03*
X013954Y009830D03*
X014466Y009830D03*
X019009Y008985D03*
X019521Y008985D03*
X019516Y008470D03*
X019004Y008470D03*
X019004Y007800D03*
X019516Y007800D03*
X019511Y007285D03*
X018999Y007285D03*
X018994Y006780D03*
X019506Y006780D03*
X015646Y005800D03*
X015134Y005800D03*
X014211Y005525D03*
X013699Y005525D03*
X013654Y006220D03*
X014166Y006220D03*
X011566Y006070D03*
X011054Y006070D03*
X009961Y004315D03*
X009449Y004315D03*
X009449Y003825D03*
X009961Y003825D03*
X007761Y001795D03*
X007249Y001795D03*
X007279Y001330D03*
X007791Y001330D03*
X007791Y000890D03*
X007279Y000890D03*
X006466Y000890D03*
X005954Y000890D03*
X005954Y001330D03*
X006466Y001330D03*
X003981Y002160D03*
X003469Y002160D03*
X003469Y002700D03*
X003981Y002700D03*
X005104Y003925D03*
X005616Y003925D03*
X005871Y005185D03*
X005359Y005185D03*
X004201Y005215D03*
X003689Y005215D03*
X002986Y005215D03*
X002474Y005215D03*
X003439Y007970D03*
X003951Y007970D03*
X013894Y002720D03*
X014406Y002720D03*
D13*
X015020Y007018D03*
X015020Y007333D03*
X015020Y007648D03*
X015020Y007963D03*
X015020Y008277D03*
X015020Y008592D03*
X015020Y008907D03*
X015020Y009222D03*
X018400Y009222D03*
X018400Y008907D03*
X018400Y008592D03*
X018400Y008277D03*
X018400Y007963D03*
X018400Y007648D03*
X018400Y007333D03*
X018400Y007018D03*
D14*
X017812Y006430D03*
X017497Y006430D03*
X017182Y006430D03*
X016867Y006430D03*
X016553Y006430D03*
X016238Y006430D03*
X015923Y006430D03*
X015608Y006430D03*
X015608Y009810D03*
X015923Y009810D03*
X016238Y009810D03*
X016553Y009810D03*
X016867Y009810D03*
X017182Y009810D03*
X017497Y009810D03*
X017812Y009810D03*
D15*
X008409Y009300D03*
X008409Y008866D03*
X008409Y008433D03*
X008409Y008000D03*
X008409Y007567D03*
X008409Y007134D03*
X008409Y006701D03*
X004669Y006701D03*
X004669Y007134D03*
X004669Y007567D03*
X004669Y008000D03*
X004669Y008433D03*
X004669Y008866D03*
X004669Y009300D03*
D16*
X004669Y009713D03*
X008409Y009713D03*
X008409Y006288D03*
X004669Y006288D03*
D17*
X003260Y009320D03*
X000465Y009320D03*
D18*
X013560Y001920D03*
X014560Y001920D03*
X015560Y001920D03*
X015560Y000920D03*
X014560Y000920D03*
X013560Y000920D03*
D19*
X006455Y002040D03*
X006455Y002710D03*
X006365Y003225D03*
X006365Y003895D03*
X003310Y004020D03*
X003310Y004690D03*
X003860Y008435D03*
X003860Y009105D03*
D20*
X009265Y006670D03*
X009265Y006080D03*
X007575Y005790D03*
X007075Y005785D03*
X007075Y005195D03*
X007575Y005200D03*
X018715Y006270D03*
X019305Y006270D03*
D21*
X002891Y007490D03*
X001729Y007490D03*
D22*
X002310Y008091D03*
D23*
X006980Y007960D03*
X006980Y006960D03*
X006980Y008960D03*
X004060Y001110D03*
X003060Y001110D03*
X002060Y001110D03*
X017465Y000880D03*
X018465Y000880D03*
D24*
X018652Y003170D03*
X018868Y003170D03*
D25*
X018760Y003170D03*
D26*
X018319Y003142D02*
X018039Y003142D01*
X018039Y003198D01*
X018319Y003198D01*
X018319Y003142D01*
X018319Y003196D02*
X018039Y003196D01*
X018039Y003339D02*
X018319Y003339D01*
X018039Y003339D02*
X018039Y003395D01*
X018319Y003395D01*
X018319Y003339D01*
X018319Y003393D02*
X018039Y003393D01*
X018039Y003536D02*
X018319Y003536D01*
X018039Y003536D02*
X018039Y003592D01*
X018319Y003592D01*
X018319Y003536D01*
X018319Y003590D02*
X018039Y003590D01*
X018039Y002945D02*
X018319Y002945D01*
X018039Y002945D02*
X018039Y003001D01*
X018319Y003001D01*
X018319Y002945D01*
X018319Y002999D02*
X018039Y002999D01*
X018039Y002748D02*
X018319Y002748D01*
X018039Y002748D02*
X018039Y002804D01*
X018319Y002804D01*
X018319Y002748D01*
X018319Y002802D02*
X018039Y002802D01*
X019201Y002804D02*
X019481Y002804D01*
X019481Y002748D01*
X019201Y002748D01*
X019201Y002804D01*
X019201Y002802D02*
X019481Y002802D01*
X019481Y003001D02*
X019201Y003001D01*
X019481Y003001D02*
X019481Y002945D01*
X019201Y002945D01*
X019201Y003001D01*
X019201Y002999D02*
X019481Y002999D01*
X019481Y003198D02*
X019201Y003198D01*
X019481Y003198D02*
X019481Y003142D01*
X019201Y003142D01*
X019201Y003198D01*
X019201Y003196D02*
X019481Y003196D01*
X019481Y003395D02*
X019201Y003395D01*
X019481Y003395D02*
X019481Y003339D01*
X019201Y003339D01*
X019201Y003395D01*
X019201Y003393D02*
X019481Y003393D01*
X019481Y003592D02*
X019201Y003592D01*
X019481Y003592D02*
X019481Y003536D01*
X019201Y003536D01*
X019201Y003592D01*
X019201Y003590D02*
X019481Y003590D01*
X011782Y008349D02*
X011782Y008629D01*
X011782Y008349D02*
X011726Y008349D01*
X011726Y008629D01*
X011782Y008629D01*
X011782Y008403D02*
X011726Y008403D01*
X011726Y008457D02*
X011782Y008457D01*
X011782Y008511D02*
X011726Y008511D01*
X011726Y008565D02*
X011782Y008565D01*
X011782Y008619D02*
X011726Y008619D01*
X011585Y008629D02*
X011585Y008349D01*
X011529Y008349D01*
X011529Y008629D01*
X011585Y008629D01*
X011585Y008403D02*
X011529Y008403D01*
X011529Y008457D02*
X011585Y008457D01*
X011585Y008511D02*
X011529Y008511D01*
X011529Y008565D02*
X011585Y008565D01*
X011585Y008619D02*
X011529Y008619D01*
X011388Y008629D02*
X011388Y008349D01*
X011332Y008349D01*
X011332Y008629D01*
X011388Y008629D01*
X011388Y008403D02*
X011332Y008403D01*
X011332Y008457D02*
X011388Y008457D01*
X011388Y008511D02*
X011332Y008511D01*
X011332Y008565D02*
X011388Y008565D01*
X011388Y008619D02*
X011332Y008619D01*
X011191Y008629D02*
X011191Y008349D01*
X011135Y008349D01*
X011135Y008629D01*
X011191Y008629D01*
X011191Y008403D02*
X011135Y008403D01*
X011135Y008457D02*
X011191Y008457D01*
X011191Y008511D02*
X011135Y008511D01*
X011135Y008565D02*
X011191Y008565D01*
X011191Y008619D02*
X011135Y008619D01*
X010994Y008629D02*
X010994Y008349D01*
X010938Y008349D01*
X010938Y008629D01*
X010994Y008629D01*
X010994Y008403D02*
X010938Y008403D01*
X010938Y008457D02*
X010994Y008457D01*
X010994Y008511D02*
X010938Y008511D01*
X010938Y008565D02*
X010994Y008565D01*
X010994Y008619D02*
X010938Y008619D01*
X010938Y009511D02*
X010938Y009791D01*
X010994Y009791D01*
X010994Y009511D01*
X010938Y009511D01*
X010938Y009565D02*
X010994Y009565D01*
X010994Y009619D02*
X010938Y009619D01*
X010938Y009673D02*
X010994Y009673D01*
X010994Y009727D02*
X010938Y009727D01*
X010938Y009781D02*
X010994Y009781D01*
X011135Y009791D02*
X011135Y009511D01*
X011135Y009791D02*
X011191Y009791D01*
X011191Y009511D01*
X011135Y009511D01*
X011135Y009565D02*
X011191Y009565D01*
X011191Y009619D02*
X011135Y009619D01*
X011135Y009673D02*
X011191Y009673D01*
X011191Y009727D02*
X011135Y009727D01*
X011135Y009781D02*
X011191Y009781D01*
X011332Y009791D02*
X011332Y009511D01*
X011332Y009791D02*
X011388Y009791D01*
X011388Y009511D01*
X011332Y009511D01*
X011332Y009565D02*
X011388Y009565D01*
X011388Y009619D02*
X011332Y009619D01*
X011332Y009673D02*
X011388Y009673D01*
X011388Y009727D02*
X011332Y009727D01*
X011332Y009781D02*
X011388Y009781D01*
X011529Y009791D02*
X011529Y009511D01*
X011529Y009791D02*
X011585Y009791D01*
X011585Y009511D01*
X011529Y009511D01*
X011529Y009565D02*
X011585Y009565D01*
X011585Y009619D02*
X011529Y009619D01*
X011529Y009673D02*
X011585Y009673D01*
X011585Y009727D02*
X011529Y009727D01*
X011529Y009781D02*
X011585Y009781D01*
X011726Y009791D02*
X011726Y009511D01*
X011726Y009791D02*
X011782Y009791D01*
X011782Y009511D01*
X011726Y009511D01*
X011726Y009565D02*
X011782Y009565D01*
X011782Y009619D02*
X011726Y009619D01*
X011726Y009673D02*
X011782Y009673D01*
X011782Y009727D02*
X011726Y009727D01*
X011726Y009781D02*
X011782Y009781D01*
D27*
X017060Y002970D03*
X017060Y001970D03*
D28*
X019410Y001971D03*
X019410Y000869D03*
X010225Y006534D03*
X010225Y007636D03*
X010160Y008519D03*
X010160Y009621D03*
X012560Y009621D03*
X012560Y008519D03*
X005045Y002176D03*
X005045Y001074D03*
D29*
X017809Y005370D03*
X018911Y005370D03*
X018961Y004470D03*
X017859Y004470D03*
D30*
X011360Y008962D03*
X011360Y009178D03*
D31*
X011360Y009070D03*
D32*
X011110Y007120D03*
X012110Y007120D03*
D33*
X012387Y004670D03*
X010733Y004670D03*
X010733Y002670D03*
X012387Y002670D03*
D34*
X012537Y003670D03*
X010583Y003670D03*
D35*
X011110Y003670D03*
X012010Y003670D03*
D36*
X011960Y004170D03*
X011160Y004170D03*
X011160Y003170D03*
X011960Y003170D03*
D37*
X013881Y006931D03*
X013881Y008427D03*
D38*
X008557Y003449D03*
X008557Y003252D03*
X008557Y003055D03*
X008557Y002858D03*
X008557Y002661D03*
X006983Y002661D03*
X006983Y002858D03*
X006983Y003055D03*
X006983Y003252D03*
X006983Y003449D03*
D39*
X007376Y003842D03*
X007573Y003842D03*
X007770Y003842D03*
X007967Y003842D03*
X008164Y003842D03*
X008164Y002268D03*
X007967Y002268D03*
X007770Y002268D03*
X007573Y002268D03*
X007376Y002268D03*
D40*
X007770Y003055D03*
D41*
X007514Y002799D03*
X008026Y002799D03*
X008026Y003311D03*
X007514Y003311D03*
D42*
X005960Y004565D03*
X005290Y004565D03*
X005190Y003315D03*
X004520Y003315D03*
X003985Y003310D03*
X003315Y003310D03*
D43*
X001170Y004210D03*
X001170Y005210D03*
X001170Y006210D03*
D44*
X008269Y005356D03*
X008623Y005356D03*
X008977Y005356D03*
X009331Y005356D03*
X009331Y004884D03*
X008977Y004884D03*
X008623Y004884D03*
X008269Y004884D03*
D45*
X008665Y005880D03*
X010060Y005815D03*
X009645Y007840D03*
X009285Y008580D03*
X013615Y009905D03*
X014970Y009930D03*
X018405Y009705D03*
X018935Y010135D03*
X019685Y010140D03*
X003820Y007135D03*
X003815Y006700D03*
D46*
X013674Y004751D03*
X013674Y004160D03*
X013674Y003569D03*
X014816Y003569D03*
X014816Y004160D03*
X014816Y004751D03*
D47*
X014245Y004770D03*
D48*
X013529Y005089D02*
X013485Y005089D01*
X013356Y004960D01*
X013356Y004541D01*
X013442Y004455D01*
X013356Y004369D01*
X013356Y003951D01*
X013442Y003865D01*
X013358Y003781D01*
X013268Y003730D01*
X013207Y003730D01*
X013082Y003678D01*
X012987Y003583D01*
X012982Y003571D01*
X012982Y003946D01*
X012989Y003955D01*
X013003Y003955D01*
X013128Y004007D01*
X013223Y004102D01*
X013275Y004227D01*
X013275Y004363D01*
X013223Y004488D01*
X013128Y004583D01*
X013003Y004635D01*
X012867Y004635D01*
X012819Y004615D01*
X012442Y004615D01*
X012442Y004725D01*
X012957Y004725D01*
X012957Y005049D01*
X012942Y005105D01*
X012913Y005155D01*
X012888Y005180D01*
X013023Y005180D01*
X013111Y005216D01*
X013388Y005210D01*
X013470Y005128D01*
X013512Y005128D01*
X013529Y005089D01*
X013436Y005040D02*
X012957Y005040D01*
X012754Y005240D02*
X012442Y005240D01*
X012442Y004725D01*
X012332Y004725D01*
X012332Y005240D01*
X012008Y005240D01*
X011952Y005225D01*
X011902Y005196D01*
X011861Y005155D01*
X011832Y005105D01*
X011817Y005049D01*
X011817Y004725D01*
X012332Y004725D01*
X012332Y004615D01*
X011817Y004615D01*
X011817Y004565D01*
X011651Y004565D01*
X011595Y004550D01*
X011564Y004532D01*
X011531Y004565D01*
X011303Y004565D01*
X011303Y005111D01*
X011174Y005240D01*
X010292Y005240D01*
X010163Y005111D01*
X010163Y004712D01*
X010122Y004712D01*
X010122Y004849D01*
X009725Y004849D01*
X009725Y004849D01*
X009331Y004884D01*
X009328Y004884D02*
X009328Y004884D01*
X008977Y004884D01*
X008977Y004884D01*
X008977Y004529D01*
X008977Y004529D01*
X008977Y004884D01*
X008977Y004884D01*
X009013Y004884D01*
X009328Y004884D01*
X008977Y004802D02*
X008977Y004802D01*
X008977Y004563D02*
X008977Y004563D01*
X008714Y004506D02*
X008658Y004450D01*
X007972Y004450D01*
X007972Y004500D01*
X008073Y004500D01*
X008088Y004506D01*
X008714Y004506D01*
X009725Y004849D02*
X010122Y004849D01*
X010122Y005016D01*
X010107Y005072D01*
X010091Y005100D01*
X010122Y005132D01*
X010122Y005477D01*
X010127Y005477D01*
X010235Y005521D01*
X010322Y005485D01*
X010458Y005485D01*
X010583Y005537D01*
X010678Y005632D01*
X010730Y005757D01*
X010730Y005768D01*
X010825Y005673D01*
X011283Y005673D01*
X011310Y005700D01*
X011337Y005673D01*
X011795Y005673D01*
X011924Y005802D01*
X011924Y005829D01*
X011943Y005838D01*
X011986Y005857D01*
X011989Y005860D01*
X012273Y005995D01*
X012434Y005995D01*
X012462Y005967D01*
X012587Y005915D01*
X012633Y005915D01*
X012633Y005631D01*
X012615Y005588D01*
X012615Y005452D01*
X012667Y005327D01*
X012754Y005240D01*
X012716Y005279D02*
X010122Y005279D01*
X010116Y005040D02*
X010163Y005040D01*
X010163Y004802D02*
X010122Y004802D01*
X011303Y004802D02*
X011817Y004802D01*
X011644Y004563D02*
X011533Y004563D01*
X012332Y004802D02*
X012442Y004802D01*
X012957Y004802D02*
X013356Y004802D01*
X013356Y004563D02*
X013148Y004563D01*
X013275Y004325D02*
X013356Y004325D01*
X013356Y004086D02*
X013207Y004086D01*
X013425Y003848D02*
X012982Y003848D01*
X012982Y003609D02*
X013013Y003609D01*
X011589Y002775D02*
X011560Y002804D01*
X011531Y002775D01*
X011303Y002775D01*
X011303Y002229D01*
X011174Y002100D01*
X010292Y002100D01*
X010287Y002105D01*
X010117Y002018D01*
X010141Y002004D01*
X010474Y002043D01*
X010484Y002048D01*
X010525Y002049D01*
X010565Y002054D01*
X010576Y002051D01*
X011821Y002097D01*
X011857Y002133D01*
X011896Y002149D01*
X011817Y002229D01*
X011817Y002775D01*
X011589Y002775D01*
X011817Y002655D02*
X011303Y002655D01*
X011303Y002417D02*
X011817Y002417D01*
X011868Y002178D02*
X011252Y002178D01*
X010163Y002715D02*
X009801Y002530D01*
X009800Y002530D01*
X009800Y003027D01*
X009804Y003066D01*
X009800Y003077D01*
X009908Y003122D01*
X010003Y003217D01*
X010055Y003342D01*
X010055Y003428D01*
X010138Y003428D01*
X010138Y003354D01*
X010267Y003225D01*
X010277Y003225D01*
X010163Y003111D01*
X010163Y002715D01*
X010045Y002655D02*
X009800Y002655D01*
X009800Y002894D02*
X010163Y002894D01*
X010184Y003132D02*
X009918Y003132D01*
X010055Y003371D02*
X010138Y003371D01*
X008200Y003175D02*
X008200Y002935D01*
X007890Y002935D01*
X007890Y003175D01*
X007650Y003175D01*
X007650Y003485D01*
X007696Y003485D01*
X007770Y003485D01*
X007890Y003485D01*
X007890Y003175D01*
X008200Y003175D01*
X008200Y003132D02*
X007890Y003132D01*
X007650Y003132D02*
X007340Y003132D01*
X007340Y003175D02*
X007650Y003175D01*
X007650Y002935D01*
X007890Y002935D01*
X007890Y002625D01*
X007650Y002625D01*
X007650Y002935D01*
X007340Y002935D01*
X007340Y003175D01*
X007650Y003371D02*
X007890Y003371D01*
X007770Y003485D02*
X007770Y003541D01*
X007770Y003541D01*
X007770Y003485D01*
X007770Y003541D02*
X007770Y003541D01*
X007650Y002894D02*
X007890Y002894D01*
X007890Y002655D02*
X007650Y002655D01*
X007107Y002383D02*
X007107Y002324D01*
X007107Y002322D01*
X007106Y002192D01*
X007020Y002192D01*
X006954Y002126D01*
X006933Y002135D01*
X006872Y002135D01*
X006872Y002348D01*
X006845Y002375D01*
X006862Y002392D01*
X006983Y002392D01*
X007098Y002392D01*
X007107Y002383D01*
X006983Y002392D02*
X006983Y002578D01*
X006983Y002578D01*
X006983Y002392D01*
X006983Y002417D02*
X006983Y002417D01*
X007006Y002178D02*
X006872Y002178D01*
X006060Y002380D02*
X005619Y002422D01*
X005619Y002501D01*
X006003Y002501D01*
X006038Y002536D01*
X006038Y002402D01*
X006060Y002380D01*
X006038Y002417D02*
X005679Y002417D01*
X005338Y002711D02*
X005186Y002711D01*
X005148Y002803D01*
X005053Y002898D01*
X005338Y002898D01*
X005338Y002711D01*
X005338Y002894D02*
X005057Y002894D01*
X004667Y002898D02*
X004572Y002803D01*
X004520Y002678D01*
X004520Y002632D01*
X004471Y002582D01*
X004471Y001770D01*
X004600Y001641D01*
X005490Y001641D01*
X005619Y001770D01*
X005619Y001819D01*
X006038Y001779D01*
X006038Y001733D01*
X006044Y001727D01*
X005954Y001727D01*
X005787Y001727D01*
X005731Y001712D01*
X005681Y001683D01*
X005640Y001642D01*
X005611Y001592D01*
X005596Y001536D01*
X005596Y001488D01*
X005575Y001524D01*
X005534Y001565D01*
X005484Y001594D01*
X005428Y001609D01*
X005082Y001609D01*
X005082Y001111D01*
X005008Y001111D01*
X005008Y001609D01*
X004662Y001609D01*
X004606Y001594D01*
X004556Y001565D01*
X004515Y001524D01*
X004502Y001502D01*
X004444Y001560D01*
X004369Y001615D01*
X004286Y001657D01*
X004198Y001685D01*
X004106Y001700D01*
X004060Y001700D01*
X004060Y001110D01*
X004060Y001110D01*
X004650Y001110D01*
X004650Y001111D01*
X005008Y001111D01*
X005008Y001036D01*
X005082Y001036D01*
X005082Y000539D01*
X005428Y000539D01*
X005484Y000554D01*
X005534Y000583D01*
X005575Y000624D01*
X005601Y000668D01*
X005611Y000628D01*
X005640Y000578D01*
X005681Y000537D01*
X005731Y000508D01*
X005787Y000493D01*
X005954Y000493D01*
X005954Y000890D01*
X005954Y000890D01*
X005954Y001287D01*
X005954Y001330D01*
X005954Y001727D01*
X005954Y001330D01*
X005954Y001330D01*
X005954Y001330D01*
X005954Y000890D01*
X005954Y000890D01*
X005954Y000493D01*
X006121Y000493D01*
X006177Y000508D01*
X006205Y000524D01*
X006237Y000493D01*
X006695Y000493D01*
X006824Y000622D01*
X006824Y001030D01*
X006921Y001030D01*
X006921Y000622D01*
X007050Y000493D01*
X007508Y000493D01*
X007540Y000524D01*
X007568Y000508D01*
X007624Y000493D01*
X007791Y000493D01*
X007958Y000493D01*
X008014Y000508D01*
X008057Y000533D01*
X008068Y000526D01*
X008124Y000511D01*
X008330Y000511D01*
X008330Y000869D01*
X008330Y000511D01*
X008536Y000511D01*
X008592Y000526D01*
X008593Y000527D01*
X008607Y000512D01*
X008660Y000490D01*
X000480Y000490D01*
X000480Y003690D01*
X000898Y003690D01*
X000729Y003620D01*
X000590Y003481D01*
X000514Y003299D01*
X000514Y003101D01*
X000590Y002919D01*
X000724Y002785D01*
X000590Y002651D01*
X000514Y002469D01*
X000514Y002271D01*
X000590Y002089D01*
X000729Y001950D01*
X000911Y001874D01*
X001109Y001874D01*
X001291Y001950D01*
X001430Y002089D01*
X001506Y002271D01*
X001506Y002469D01*
X001430Y002651D01*
X001296Y002785D01*
X001430Y002919D01*
X001506Y003101D01*
X001506Y003299D01*
X001430Y003481D01*
X001291Y003620D01*
X001122Y003690D01*
X001140Y003690D01*
X001140Y004180D01*
X001200Y004180D01*
X001200Y004240D01*
X002190Y004240D01*
X002190Y004539D01*
X002175Y004595D01*
X002146Y004645D01*
X002105Y004686D01*
X002075Y004704D01*
X002190Y004819D01*
X002190Y004834D01*
X002229Y004834D01*
X002245Y004818D01*
X002703Y004818D01*
X002730Y004845D01*
X002757Y004818D01*
X002893Y004818D01*
X002893Y004382D01*
X002920Y004355D01*
X002893Y004328D01*
X002893Y003713D01*
X002933Y003673D01*
X002933Y003652D01*
X002879Y003598D01*
X002879Y003071D01*
X002764Y003070D01*
X002715Y003049D01*
X002577Y003049D01*
X002448Y002920D01*
X002448Y002462D01*
X002479Y002430D01*
X002463Y002402D01*
X002448Y002346D01*
X002448Y002179D01*
X002448Y002012D01*
X002463Y001956D01*
X002492Y001906D01*
X002533Y001865D01*
X002583Y001836D01*
X002639Y001821D01*
X002845Y001821D01*
X003051Y001821D01*
X003107Y001836D01*
X003148Y001860D01*
X003155Y001848D01*
X003196Y001807D01*
X003246Y001778D01*
X003302Y001763D01*
X003469Y001763D01*
X003469Y002160D01*
X003469Y002160D01*
X003469Y001763D01*
X003636Y001763D01*
X003692Y001778D01*
X003720Y001794D01*
X003752Y001763D01*
X004210Y001763D01*
X004339Y001892D01*
X004339Y002031D01*
X004361Y002084D01*
X004361Y002699D01*
X004362Y002898D01*
X004667Y002898D01*
X004663Y002894D02*
X004362Y002894D01*
X004361Y002655D02*
X004520Y002655D01*
X004471Y002417D02*
X004361Y002417D01*
X004361Y002178D02*
X004471Y002178D01*
X004471Y001940D02*
X004339Y001940D01*
X004540Y001701D02*
X000480Y001701D01*
X000480Y001463D02*
X000783Y001463D01*
X000729Y001440D02*
X000590Y001301D01*
X000514Y001119D01*
X000514Y000921D01*
X000590Y000739D01*
X000729Y000600D01*
X000911Y000524D01*
X001109Y000524D01*
X001291Y000600D01*
X001430Y000739D01*
X001503Y000914D01*
X001560Y000776D01*
X001726Y000610D01*
X001943Y000520D01*
X002177Y000520D01*
X002394Y000610D01*
X002554Y000770D01*
X002566Y000770D01*
X002726Y000610D01*
X002943Y000520D01*
X003177Y000520D01*
X003394Y000610D01*
X003560Y000776D01*
X003565Y000788D01*
X003610Y000726D01*
X003676Y000660D01*
X003751Y000605D01*
X003834Y000563D01*
X003922Y000535D01*
X004014Y000520D01*
X004060Y000520D01*
X004106Y000520D01*
X004198Y000535D01*
X004286Y000563D01*
X004369Y000605D01*
X004444Y000660D01*
X004480Y000696D01*
X004486Y000674D01*
X004515Y000624D01*
X004556Y000583D01*
X004606Y000554D01*
X004662Y000539D01*
X005008Y000539D01*
X005008Y001036D01*
X004646Y001036D01*
X004650Y001064D01*
X004650Y001110D01*
X004060Y001110D01*
X004060Y001110D01*
X004060Y000520D01*
X004060Y001110D01*
X004060Y001110D01*
X004060Y001700D01*
X004014Y001700D01*
X003922Y001685D01*
X003834Y001657D01*
X003751Y001615D01*
X003676Y001560D01*
X003610Y001494D01*
X003565Y001432D01*
X003560Y001444D01*
X003394Y001610D01*
X003177Y001700D01*
X002943Y001700D01*
X002726Y001610D01*
X002566Y001450D01*
X002554Y001450D01*
X002394Y001610D01*
X002177Y001700D01*
X001943Y001700D01*
X001726Y001610D01*
X001560Y001444D01*
X001470Y001227D01*
X001470Y001204D01*
X001430Y001301D01*
X001291Y001440D01*
X001109Y001516D01*
X000911Y001516D01*
X000729Y001440D01*
X000558Y001224D02*
X000480Y001224D01*
X000480Y000986D02*
X000514Y000986D01*
X000480Y000747D02*
X000587Y000747D01*
X000480Y000509D02*
X005730Y000509D01*
X005954Y000509D02*
X005954Y000509D01*
X006178Y000509D02*
X006221Y000509D01*
X005954Y000747D02*
X005954Y000747D01*
X005954Y000986D02*
X005954Y000986D01*
X005954Y001224D02*
X005954Y001224D01*
X005954Y001463D02*
X005954Y001463D01*
X005954Y001701D02*
X005954Y001701D01*
X005712Y001701D02*
X005550Y001701D01*
X005082Y001463D02*
X005008Y001463D01*
X005008Y001224D02*
X005082Y001224D01*
X005082Y000986D02*
X005008Y000986D01*
X005008Y000747D02*
X005082Y000747D01*
X004060Y000747D02*
X004060Y000747D01*
X004060Y000986D02*
X004060Y000986D01*
X004060Y001224D02*
X004060Y001224D01*
X004060Y001463D02*
X004060Y001463D01*
X003587Y001463D02*
X003542Y001463D01*
X003060Y001110D02*
X002060Y001110D01*
X002542Y001463D02*
X002578Y001463D01*
X002845Y001821D02*
X002845Y002179D01*
X002845Y001821D01*
X002845Y001940D02*
X002845Y001940D01*
X002845Y002178D02*
X002845Y002178D01*
X002845Y002179D02*
X002845Y002179D01*
X002448Y002179D01*
X002845Y002179D01*
X002845Y002179D01*
X002448Y002178D02*
X001467Y002178D01*
X001506Y002417D02*
X002471Y002417D01*
X002448Y002655D02*
X001426Y002655D01*
X001404Y002894D02*
X002448Y002894D01*
X002879Y003132D02*
X001506Y003132D01*
X001476Y003371D02*
X002879Y003371D01*
X002890Y003609D02*
X001302Y003609D01*
X001200Y003690D02*
X001999Y003690D01*
X002055Y003705D01*
X002105Y003734D01*
X002146Y003775D01*
X002175Y003825D01*
X002190Y003881D01*
X002190Y004180D01*
X001200Y004180D01*
X001200Y003690D01*
X001200Y003848D02*
X001140Y003848D01*
X000718Y003609D02*
X000480Y003609D01*
X000480Y003371D02*
X000544Y003371D01*
X000514Y003132D02*
X000480Y003132D01*
X000480Y002894D02*
X000616Y002894D01*
X000594Y002655D02*
X000480Y002655D01*
X000480Y002417D02*
X000514Y002417D01*
X000480Y002178D02*
X000553Y002178D01*
X000480Y001940D02*
X000754Y001940D01*
X001266Y001940D02*
X002473Y001940D01*
X003469Y001940D02*
X003469Y001940D01*
X001578Y001463D02*
X001237Y001463D01*
X001462Y001224D02*
X001470Y001224D01*
X001433Y000747D02*
X001589Y000747D01*
X002531Y000747D02*
X002589Y000747D01*
X003531Y000747D02*
X003594Y000747D01*
X006710Y000509D02*
X007035Y000509D01*
X006921Y000747D02*
X006824Y000747D01*
X006824Y000986D02*
X006921Y000986D01*
X007791Y000986D02*
X007791Y000986D01*
X007791Y000933D02*
X007791Y001330D01*
X007791Y001330D01*
X007791Y000890D01*
X007791Y000493D01*
X007791Y000890D01*
X007791Y000890D01*
X007791Y000890D01*
X007791Y000933D01*
X007791Y000747D02*
X007791Y000747D01*
X007791Y000509D02*
X007791Y000509D01*
X008015Y000509D02*
X008615Y000509D01*
X008940Y000490D02*
X008993Y000512D01*
X009088Y000607D01*
X009130Y000708D01*
X009197Y000775D01*
X009197Y001161D01*
X009255Y001161D01*
X009255Y001505D01*
X009255Y001161D01*
X009278Y001161D01*
X009278Y001042D01*
X009305Y001015D01*
X009278Y000988D01*
X009278Y000530D01*
X009318Y000490D01*
X008940Y000490D01*
X008985Y000509D02*
X009300Y000509D01*
X009278Y000747D02*
X009169Y000747D01*
X009197Y000986D02*
X009278Y000986D01*
X009255Y001224D02*
X009255Y001224D01*
X009255Y001463D02*
X009255Y001463D01*
X009255Y001505D02*
X009255Y001505D01*
X008330Y000869D02*
X008330Y000869D01*
X008330Y000747D02*
X008330Y000747D01*
X007567Y000509D02*
X007524Y000509D01*
X007791Y001224D02*
X007791Y001224D01*
X010072Y000691D02*
X010072Y000530D01*
X010032Y000490D01*
X011170Y000490D01*
X011117Y000512D01*
X011022Y000607D01*
X010992Y000679D01*
X010981Y000676D01*
X010775Y000676D01*
X010775Y001015D01*
X010775Y000676D01*
X010569Y000676D01*
X010513Y000691D01*
X010463Y000720D01*
X010422Y000761D01*
X010411Y000781D01*
X010313Y000740D01*
X010177Y000740D01*
X010154Y000749D01*
X010072Y000691D01*
X010151Y000747D02*
X010160Y000747D01*
X010330Y000747D02*
X010436Y000747D01*
X010775Y000747D02*
X010775Y000747D01*
X011125Y000509D02*
X010050Y000509D01*
X010775Y000986D02*
X010775Y000986D01*
X010775Y001015D02*
X010775Y001015D01*
X011503Y000512D02*
X011598Y000607D01*
X011625Y000673D01*
X011642Y000656D01*
X012178Y000656D01*
X012253Y000731D01*
X012253Y000662D01*
X012268Y000606D01*
X012297Y000556D01*
X012338Y000515D01*
X012381Y000490D01*
X011450Y000490D01*
X011503Y000512D01*
X011495Y000509D02*
X012349Y000509D01*
X012319Y000829D02*
X012319Y000829D01*
X012650Y000829D01*
X012319Y000829D01*
X012650Y000829D02*
X012650Y000829D01*
X013034Y000612D02*
X013156Y000490D01*
X012919Y000490D01*
X012962Y000515D01*
X013003Y000556D01*
X013032Y000606D01*
X013034Y000612D01*
X012951Y000509D02*
X013137Y000509D01*
X013047Y001242D02*
X013047Y001570D01*
X013016Y001601D01*
X013027Y001618D01*
X013226Y001420D01*
X013047Y001242D01*
X013047Y001463D02*
X013183Y001463D01*
X014894Y001420D02*
X015060Y001586D01*
X015226Y001420D01*
X015060Y001254D01*
X014894Y001420D01*
X014937Y001463D02*
X015183Y001463D01*
X015560Y001920D02*
X015560Y002510D01*
X015679Y002510D01*
X015657Y002532D01*
X015654Y002538D01*
X015412Y002608D01*
X014764Y002565D01*
X014764Y002510D01*
X014804Y002510D01*
X015060Y002254D01*
X015316Y002510D01*
X015560Y002510D01*
X015560Y001920D01*
X015560Y001920D01*
X015560Y001940D02*
X015560Y001940D01*
X015560Y002178D02*
X015560Y002178D01*
X015560Y002417D02*
X015560Y002417D01*
X015222Y002417D02*
X014898Y002417D01*
X015894Y001420D02*
X015950Y001476D01*
X015950Y001468D01*
X015951Y001466D01*
X015951Y001464D01*
X015971Y001419D01*
X015990Y001373D01*
X015991Y001371D01*
X015992Y001369D01*
X016028Y001335D01*
X016164Y001198D01*
X016185Y001171D01*
X016200Y001162D01*
X016213Y001150D01*
X016245Y001136D01*
X016275Y001119D01*
X016292Y001117D01*
X016308Y001110D01*
X016343Y001110D01*
X016488Y001091D01*
X016513Y001066D01*
X016398Y000951D01*
X016240Y000966D01*
X016150Y000996D01*
X016150Y001164D01*
X015894Y001420D01*
X015937Y001463D02*
X015952Y001463D01*
X016090Y001224D02*
X016138Y001224D01*
X016181Y000986D02*
X016433Y000986D01*
X016886Y000703D02*
X016896Y000709D01*
X016899Y000712D01*
X016918Y000654D01*
X016960Y000571D01*
X017015Y000496D01*
X017021Y000490D01*
X016673Y000490D01*
X016700Y000512D01*
X016706Y000524D01*
X016886Y000703D01*
X017006Y000509D02*
X016696Y000509D01*
X018567Y001470D02*
X018569Y002202D01*
X018652Y002202D01*
X018736Y002202D01*
X018760Y002208D01*
X018784Y002202D01*
X018836Y002202D01*
X018836Y002009D01*
X019373Y002009D01*
X019373Y001934D01*
X019447Y001934D01*
X019447Y001436D01*
X019690Y001436D01*
X019690Y001404D01*
X018965Y001404D01*
X018870Y001309D01*
X018799Y001380D01*
X018582Y001470D01*
X018567Y001470D01*
X018600Y001463D02*
X018951Y001463D01*
X018971Y001451D02*
X019027Y001436D01*
X019373Y001436D01*
X019373Y001934D01*
X018836Y001934D01*
X018836Y001627D01*
X018851Y001571D01*
X018880Y001521D01*
X018921Y001480D01*
X018971Y001451D01*
X018836Y001701D02*
X018567Y001701D01*
X018568Y001940D02*
X019373Y001940D01*
X019410Y001971D02*
X018810Y001970D01*
X018810Y002870D01*
X018910Y003170D01*
X018868Y003170D02*
X018953Y003170D01*
X018953Y003170D01*
X018868Y003170D01*
X018802Y003170D01*
X018802Y003170D01*
X018868Y003170D01*
X018868Y003170D01*
X018868Y003170D01*
X018760Y003170D02*
X018760Y004400D01*
X018760Y004470D01*
X018961Y004470D01*
X018924Y004507D02*
X018924Y004433D01*
X018426Y004433D01*
X018426Y004087D01*
X018432Y004065D01*
X018421Y004053D01*
X018405Y004025D01*
X018394Y004110D01*
X018394Y004680D01*
X018426Y004680D01*
X018426Y004507D01*
X018924Y004507D01*
X018924Y005044D01*
X018874Y005044D01*
X018874Y005333D01*
X018949Y005333D01*
X019394Y005333D01*
X019346Y005407D01*
X018949Y005407D01*
X018949Y005333D01*
X018949Y004796D01*
X018999Y004796D01*
X018999Y004507D01*
X019455Y004507D01*
X019455Y004433D01*
X018999Y004433D01*
X018999Y004507D01*
X018924Y004507D01*
X018924Y004563D02*
X018999Y004563D01*
X019175Y004460D02*
X019450Y004245D01*
X019450Y004925D01*
X019425Y005070D01*
X019430Y005075D02*
X019355Y005140D01*
X018949Y005040D02*
X018924Y005040D01*
X018949Y005279D02*
X018874Y005279D01*
X018924Y004802D02*
X018949Y004802D01*
X018426Y004563D02*
X018394Y004563D01*
X018394Y004325D02*
X018426Y004325D01*
X018426Y004086D02*
X018397Y004086D01*
X018567Y003170D02*
X018593Y003170D01*
X018652Y003170D01*
X018718Y003170D01*
X018718Y003170D01*
X018652Y003170D01*
X018652Y003170D01*
X018567Y003170D01*
X018567Y003170D01*
X018652Y003170D02*
X018652Y003170D01*
X018652Y002272D02*
X018652Y002272D01*
X018652Y002202D01*
X018652Y002272D01*
X018569Y002178D02*
X018836Y002178D01*
X019373Y001701D02*
X019447Y001701D01*
X019447Y001463D02*
X019373Y001463D01*
X015974Y004457D02*
X015908Y004523D01*
X015783Y004575D01*
X015647Y004575D01*
X015522Y004523D01*
X015494Y004495D01*
X015396Y004495D01*
X015278Y004597D01*
X015267Y004613D01*
X015240Y004630D01*
X015215Y004651D01*
X015196Y004657D01*
X015165Y004677D01*
X015134Y004738D01*
X015134Y004960D01*
X015058Y005036D01*
X015055Y005042D01*
X015035Y005062D01*
X014664Y005595D01*
X014655Y005617D01*
X014635Y005637D01*
X014619Y005661D01*
X014599Y005674D01*
X014582Y005690D01*
X014569Y005696D01*
X014569Y005761D01*
X014630Y005823D01*
X014670Y005918D01*
X014670Y006062D01*
X014728Y006121D01*
X014772Y006077D01*
X014781Y006073D01*
X014776Y006068D01*
X014776Y005532D01*
X014830Y005478D01*
X014830Y005427D01*
X014882Y005302D01*
X014977Y005207D01*
X015102Y005155D01*
X015163Y005155D01*
X015168Y005148D01*
X015175Y005133D01*
X015200Y005107D01*
X015222Y005079D01*
X015236Y005071D01*
X015248Y005060D01*
X015281Y005046D01*
X015463Y004943D01*
X015471Y004934D01*
X015507Y004918D01*
X015542Y004898D01*
X015554Y004897D01*
X015565Y004892D01*
X015605Y004890D01*
X015645Y004886D01*
X015657Y004889D01*
X015669Y004889D01*
X015706Y004903D01*
X015744Y004913D01*
X015754Y004921D01*
X016014Y005019D01*
X016031Y005021D01*
X016062Y005038D01*
X016095Y005050D01*
X016107Y005061D01*
X016200Y005110D01*
X016222Y005057D01*
X016232Y005047D01*
X016219Y004863D01*
X016073Y004586D01*
X015974Y004457D01*
X016056Y004563D02*
X015812Y004563D01*
X015618Y004563D02*
X015317Y004563D01*
X015134Y004802D02*
X016187Y004802D01*
X016231Y005040D02*
X016069Y005040D01*
X015291Y005040D02*
X015056Y005040D01*
X014906Y005279D02*
X014885Y005279D01*
X014791Y005517D02*
X014719Y005517D01*
X014776Y005756D02*
X014569Y005756D01*
X014670Y005994D02*
X014776Y005994D01*
X013650Y006220D02*
X013427Y006220D01*
X013650Y006220D01*
X013650Y006220D01*
X013427Y006220D02*
X013427Y006220D01*
X012633Y005756D02*
X011877Y005756D01*
X012271Y005994D02*
X012435Y005994D01*
X012615Y005517D02*
X010535Y005517D01*
X010245Y005517D02*
X010224Y005517D01*
X010729Y005756D02*
X010743Y005756D01*
X011303Y005040D02*
X011817Y005040D01*
X012332Y005040D02*
X012442Y005040D01*
X010262Y006571D02*
X010188Y006571D01*
X010188Y007069D01*
X009914Y007069D01*
X009956Y007101D01*
X010510Y007101D01*
X010510Y007069D01*
X010262Y007069D01*
X010262Y006571D01*
X010262Y006710D02*
X010188Y006710D01*
X010188Y006948D02*
X010262Y006948D01*
X008409Y006288D02*
X008409Y006288D01*
X007834Y006288D01*
X007834Y006355D01*
X007747Y006355D01*
X007622Y006407D01*
X007527Y006502D01*
X007477Y006623D01*
X007314Y006460D01*
X007097Y006370D01*
X006863Y006370D01*
X006646Y006460D01*
X006480Y006626D01*
X006390Y006843D01*
X006390Y007077D01*
X006480Y007294D01*
X006646Y007460D01*
X006480Y007626D01*
X006390Y007843D01*
X006390Y008077D01*
X006480Y008294D01*
X006646Y008460D01*
X006658Y008465D01*
X006596Y008510D01*
X006530Y008576D01*
X006475Y008651D01*
X006433Y008734D01*
X006405Y008822D01*
X006390Y008914D01*
X006390Y008960D01*
X006980Y008960D01*
X007570Y008960D01*
X007570Y009006D01*
X007555Y009098D01*
X007527Y009186D01*
X007485Y009269D01*
X007430Y009344D01*
X007364Y009410D01*
X007289Y009465D01*
X007206Y009507D01*
X007118Y009535D01*
X007026Y009550D01*
X006980Y009550D01*
X006980Y008960D01*
X006980Y008960D01*
X006980Y008960D01*
X007570Y008960D01*
X007570Y008914D01*
X007555Y008822D01*
X007527Y008734D01*
X007485Y008651D01*
X007430Y008576D01*
X007364Y008510D01*
X007302Y008465D01*
X007314Y008460D01*
X007480Y008294D01*
X007570Y008077D01*
X007570Y007843D01*
X007548Y007788D01*
X007617Y007858D01*
X007742Y007910D01*
X007834Y007910D01*
X007834Y009028D01*
X007690Y009173D01*
X007650Y009268D01*
X007650Y009922D01*
X007690Y010017D01*
X007763Y010090D01*
X007822Y010150D01*
X003860Y010150D01*
X003860Y009620D01*
X004094Y009620D01*
X004094Y009713D01*
X004669Y009713D01*
X005243Y009713D01*
X005243Y009880D01*
X005228Y009936D01*
X005199Y009986D01*
X005158Y010027D01*
X005108Y010056D01*
X005052Y010071D01*
X004669Y010071D01*
X004669Y009713D01*
X004669Y009713D01*
X005243Y009713D01*
X005243Y009053D01*
X005243Y008866D01*
X004669Y008866D01*
X004669Y008866D01*
X005243Y008866D01*
X005243Y006059D01*
X005114Y005930D01*
X004223Y005930D01*
X004094Y006059D01*
X004094Y006440D01*
X004033Y006440D01*
X004007Y006413D01*
X003882Y006362D01*
X003748Y006362D01*
X003728Y006370D01*
X002190Y006370D01*
X002190Y006240D01*
X001200Y006240D01*
X001200Y006180D01*
X002190Y006180D01*
X002190Y005881D01*
X002175Y005825D01*
X002146Y005775D01*
X002105Y005734D01*
X002075Y005716D01*
X002190Y005601D01*
X002190Y005594D01*
X002227Y005594D01*
X002245Y005612D01*
X002703Y005612D01*
X002730Y005585D01*
X002757Y005612D01*
X003215Y005612D01*
X003232Y005595D01*
X003443Y005595D01*
X003460Y005612D01*
X003918Y005612D01*
X003950Y005581D01*
X003978Y005597D01*
X004034Y005612D01*
X004201Y005612D01*
X004201Y005215D01*
X004559Y005215D01*
X004559Y005421D01*
X004544Y005477D01*
X004515Y005527D01*
X004474Y005568D01*
X004424Y005597D01*
X004368Y005612D01*
X004201Y005612D01*
X004201Y005215D01*
X004201Y005215D01*
X004559Y005215D01*
X004559Y005009D01*
X004544Y004953D01*
X004515Y004903D01*
X004474Y004862D01*
X004424Y004833D01*
X004368Y004818D01*
X004322Y004818D01*
X004322Y004387D01*
X004295Y004360D01*
X004322Y004333D01*
X004322Y003875D01*
X004193Y003746D01*
X004054Y003746D01*
X004035Y003727D01*
X004208Y003727D01*
X004213Y003732D01*
X004746Y003732D01*
X004746Y004193D01*
X004854Y004301D01*
X004854Y004853D01*
X004983Y004982D01*
X005001Y004982D01*
X005001Y005185D01*
X005359Y005185D01*
X005359Y005185D01*
X005001Y005185D01*
X005001Y005391D01*
X005016Y005447D01*
X005045Y005497D01*
X005086Y005538D01*
X005136Y005567D01*
X005192Y005582D01*
X005359Y005582D01*
X005359Y005185D01*
X005359Y005185D01*
X005359Y005582D01*
X005526Y005582D01*
X005582Y005567D01*
X005610Y005551D01*
X005642Y005582D01*
X006100Y005582D01*
X006229Y005453D01*
X006229Y005386D01*
X006239Y005389D01*
X006445Y005389D01*
X006445Y005031D01*
X006445Y005031D01*
X006445Y005389D01*
X006651Y005389D01*
X006698Y005376D01*
X006698Y005443D01*
X006744Y005490D01*
X006741Y005493D01*
X006713Y005543D01*
X006698Y005599D01*
X006698Y005785D01*
X007075Y005785D01*
X007075Y005785D01*
X006698Y005785D01*
X006698Y005972D01*
X006713Y006028D01*
X006741Y006078D01*
X006782Y006119D01*
X006833Y006148D01*
X006889Y006163D01*
X007075Y006163D01*
X007075Y005785D01*
X007075Y006163D01*
X007261Y006163D01*
X007317Y006148D01*
X007321Y006146D01*
X007333Y006153D01*
X007389Y006168D01*
X007575Y006168D01*
X007575Y005790D01*
X007575Y005790D01*
X007952Y005790D01*
X007952Y005607D01*
X008010Y005665D01*
X008010Y005728D01*
X008062Y005853D01*
X008139Y005930D01*
X008026Y005930D01*
X007970Y005945D01*
X007952Y005955D01*
X007952Y005790D01*
X007575Y005790D01*
X007575Y006168D01*
X007761Y006168D01*
X007817Y006153D01*
X007834Y006143D01*
X007834Y006288D01*
X008409Y006288D01*
X007834Y006233D02*
X005243Y006233D01*
X005243Y006471D02*
X006635Y006471D01*
X006445Y006710D02*
X005243Y006710D01*
X005243Y006948D02*
X006390Y006948D01*
X006435Y007187D02*
X005243Y007187D01*
X005243Y007425D02*
X006611Y007425D01*
X006464Y007664D02*
X005243Y007664D01*
X005243Y007902D02*
X006390Y007902D01*
X006416Y008141D02*
X005243Y008141D01*
X005243Y008379D02*
X006565Y008379D01*
X006500Y008618D02*
X005243Y008618D01*
X005243Y008856D02*
X006399Y008856D01*
X006390Y008960D02*
X006980Y008960D01*
X006980Y008960D01*
X006980Y009550D01*
X006934Y009550D01*
X006842Y009535D01*
X006754Y009507D01*
X006671Y009465D01*
X006596Y009410D01*
X006530Y009344D01*
X006475Y009269D01*
X006433Y009186D01*
X006405Y009098D01*
X006390Y009006D01*
X006390Y008960D01*
X006404Y009095D02*
X005243Y009095D01*
X005243Y009333D02*
X006522Y009333D01*
X006980Y009333D02*
X006980Y009333D01*
X006980Y009095D02*
X006980Y009095D01*
X007438Y009333D02*
X007650Y009333D01*
X007650Y009572D02*
X005243Y009572D01*
X005243Y009810D02*
X007650Y009810D01*
X007721Y010049D02*
X005120Y010049D01*
X004669Y010049D02*
X004669Y010049D01*
X004669Y010071D02*
X004285Y010071D01*
X004229Y010056D01*
X004179Y010027D01*
X004138Y009986D01*
X004109Y009936D01*
X004094Y009880D01*
X004094Y009713D01*
X004669Y009713D01*
X004669Y009713D01*
X004669Y010071D01*
X004669Y009810D02*
X004669Y009810D01*
X004669Y009713D02*
X004669Y009713D01*
X004217Y010049D02*
X003860Y010049D01*
X003860Y009810D02*
X004094Y009810D01*
X007460Y008618D02*
X007834Y008618D01*
X007834Y008856D02*
X007561Y008856D01*
X007556Y009095D02*
X007768Y009095D01*
X007834Y008379D02*
X007395Y008379D01*
X007544Y008141D02*
X007834Y008141D01*
X007723Y007902D02*
X007570Y007902D01*
X007470Y007616D02*
X007470Y007502D01*
X007522Y007377D01*
X007617Y007282D01*
X007693Y007250D01*
X007783Y007092D01*
X007808Y007049D01*
X007809Y007048D01*
X007810Y007046D01*
X007824Y007035D01*
X007747Y007035D01*
X007622Y006983D01*
X007570Y006931D01*
X007570Y007077D01*
X007480Y007294D01*
X007314Y007460D01*
X007470Y007616D01*
X007502Y007425D02*
X007349Y007425D01*
X007525Y007187D02*
X007730Y007187D01*
X007587Y006948D02*
X007570Y006948D01*
X007558Y006471D02*
X007325Y006471D01*
X007575Y005994D02*
X007575Y005994D01*
X007575Y005790D02*
X007575Y005790D01*
X007952Y005756D02*
X008022Y005756D01*
X007075Y005785D02*
X007075Y005785D01*
X006698Y005756D02*
X002127Y005756D01*
X002190Y005994D02*
X004159Y005994D01*
X004094Y006233D02*
X001200Y006233D01*
X002173Y004802D02*
X002893Y004802D01*
X002893Y004563D02*
X002184Y004563D01*
X002190Y004325D02*
X002893Y004325D01*
X002893Y004086D02*
X002190Y004086D01*
X002181Y003848D02*
X002893Y003848D01*
X004294Y003848D02*
X004746Y003848D01*
X004746Y004086D02*
X004322Y004086D01*
X004322Y004325D02*
X004854Y004325D01*
X004854Y004563D02*
X004322Y004563D01*
X004322Y004802D02*
X004854Y004802D01*
X005001Y005040D02*
X004559Y005040D01*
X004559Y005279D02*
X005001Y005279D01*
X005065Y005517D02*
X004521Y005517D01*
X004201Y005517D02*
X004201Y005517D01*
X004201Y005279D02*
X004201Y005279D01*
X004201Y005215D02*
X004201Y005215D01*
X005359Y005279D02*
X005359Y005279D01*
X005359Y005517D02*
X005359Y005517D01*
X006165Y005517D02*
X006727Y005517D01*
X006440Y005350D02*
X006445Y005031D01*
X006445Y005040D02*
X006445Y005040D01*
X006445Y005279D02*
X006445Y005279D01*
X006703Y005994D02*
X005178Y005994D01*
X007075Y005994D02*
X007075Y005994D01*
X004094Y007395D02*
X004094Y007573D01*
X003860Y007573D01*
X003860Y007473D01*
X003887Y007473D01*
X004012Y007422D01*
X004038Y007395D01*
X004094Y007395D01*
X004094Y007425D02*
X004003Y007425D01*
X009907Y009054D02*
X009907Y009086D01*
X010123Y009086D01*
X010123Y009584D01*
X010197Y009584D01*
X010197Y009086D01*
X010394Y009086D01*
X010398Y009070D01*
X010394Y009054D01*
X009907Y009054D01*
X010123Y009095D02*
X010197Y009095D01*
X010197Y009333D02*
X010123Y009333D01*
X010123Y009572D02*
X010197Y009572D01*
X011360Y009263D02*
X011360Y009178D01*
X011360Y009112D01*
X011360Y009112D01*
X011360Y009178D01*
X011360Y009178D01*
X011360Y009263D01*
X011360Y009263D01*
X011360Y009178D02*
X011360Y009178D01*
X011360Y009028D02*
X011360Y008962D01*
X011360Y009028D01*
X011360Y009028D01*
X011360Y008962D02*
X011360Y008962D01*
X011360Y008877D01*
X011360Y008903D01*
X011360Y008962D01*
X011360Y008962D01*
X011360Y008877D02*
X011360Y008877D01*
X012597Y009584D02*
X012597Y009659D01*
X013134Y009659D01*
X013134Y009965D01*
X013119Y010021D01*
X013090Y010071D01*
X013049Y010112D01*
X012999Y010141D01*
X012966Y010150D01*
X013382Y010150D01*
X013328Y010097D01*
X013277Y009972D01*
X013277Y009838D01*
X013328Y009713D01*
X013357Y009684D01*
X013291Y009618D01*
X013291Y009372D01*
X013172Y009323D01*
X013134Y009285D01*
X013134Y009584D01*
X012597Y009584D01*
X013134Y009572D02*
X013291Y009572D01*
X013288Y009810D02*
X013134Y009810D01*
X013103Y010049D02*
X013308Y010049D01*
X013196Y009333D02*
X013134Y009333D01*
X014161Y009350D02*
X014525Y008950D01*
X014546Y008937D02*
X014520Y008975D01*
X014515Y008978D01*
X014511Y008983D01*
X014472Y009006D01*
X014454Y009017D01*
X014475Y009038D01*
X014504Y009088D01*
X014519Y009144D01*
X014519Y009350D01*
X014519Y009433D01*
X014559Y009433D01*
X014550Y009423D01*
X014550Y008932D01*
X014546Y008937D01*
X014550Y009095D02*
X014505Y009095D01*
X014519Y009333D02*
X014550Y009333D01*
X014519Y009350D02*
X014165Y009350D01*
X014519Y009350D01*
X014165Y009350D02*
X014165Y009350D01*
X015490Y008323D02*
X015524Y008294D01*
X015552Y007445D01*
X015490Y007381D01*
X015490Y007534D01*
X015490Y007849D01*
X015490Y007963D01*
X015490Y008323D01*
X015490Y008141D02*
X015529Y008141D01*
X015490Y007963D02*
X015376Y007963D01*
X015376Y007963D01*
X015376Y007963D01*
X015490Y007963D01*
X015490Y007902D02*
X015537Y007902D01*
X015544Y007664D02*
X015490Y007664D01*
X015490Y007425D02*
X015532Y007425D01*
X015969Y007130D02*
X016004Y007166D01*
X016039Y007203D01*
X016039Y007204D01*
X016040Y007205D01*
X016058Y007252D01*
X016076Y007300D01*
X016076Y007301D01*
X016077Y007302D01*
X016075Y007352D01*
X016074Y007403D01*
X016073Y007404D01*
X016044Y008303D01*
X016115Y007874D01*
X016115Y006932D01*
X016114Y006900D01*
X016050Y006900D01*
X016050Y006938D01*
X015998Y007063D01*
X015951Y007110D01*
X015968Y007129D01*
X015969Y007130D01*
X016023Y007187D02*
X016115Y007187D01*
X016115Y007425D02*
X016073Y007425D01*
X016065Y007664D02*
X016115Y007664D01*
X016110Y007902D02*
X016057Y007902D01*
X016049Y008141D02*
X016071Y008141D01*
X017226Y008701D02*
X017364Y008636D01*
X017408Y008616D01*
X017410Y008614D01*
X017413Y008613D01*
X017445Y008578D01*
X017447Y008583D01*
X017542Y008678D01*
X017667Y008730D01*
X017726Y008730D01*
X017675Y008852D01*
X017675Y008988D01*
X017727Y009113D01*
X017822Y009208D01*
X017930Y009253D01*
X017930Y009340D01*
X017370Y009340D01*
X017359Y009324D01*
X017205Y008958D01*
X017226Y008701D01*
X017213Y008856D02*
X017675Y008856D01*
X017482Y008618D02*
X017406Y008618D01*
X017262Y009095D02*
X017719Y009095D01*
X017930Y009333D02*
X017365Y009333D01*
X018142Y009921D02*
X018142Y010150D01*
X018597Y010150D01*
X018597Y010068D01*
X018648Y009943D01*
X018743Y009848D01*
X018868Y009797D01*
X018932Y009797D01*
X018997Y009732D01*
X019122Y009680D01*
X019222Y009680D01*
X019157Y009653D01*
X019062Y009558D01*
X019010Y009433D01*
X019010Y009382D01*
X018980Y009382D01*
X018919Y009443D01*
X018823Y009482D01*
X018811Y009482D01*
X018741Y009552D01*
X018708Y009552D01*
X018743Y009638D01*
X018743Y009772D01*
X018692Y009897D01*
X018597Y009992D01*
X018472Y010043D01*
X018338Y010043D01*
X018213Y009992D01*
X018142Y009921D01*
X018142Y010049D02*
X018605Y010049D01*
X018727Y009810D02*
X018836Y009810D01*
X018716Y009572D02*
X019076Y009572D01*
X019318Y009705D02*
X019383Y009732D01*
X019478Y009827D01*
X019493Y009862D01*
X019525Y009840D01*
X019586Y009815D01*
X019652Y009802D01*
X019685Y009802D01*
X019685Y010140D01*
X019685Y009802D01*
X019690Y009802D01*
X019690Y009382D01*
X019690Y009433D01*
X019638Y009558D01*
X019543Y009653D01*
X019418Y009705D01*
X019318Y009705D01*
X019461Y009810D02*
X019611Y009810D01*
X019685Y009810D02*
X019685Y009810D01*
X019685Y010049D02*
X019685Y010049D01*
X019685Y010140D02*
X019685Y010140D01*
X019690Y009572D02*
X019624Y009572D01*
X019690Y009382D02*
X019690Y009382D01*
X019516Y008470D02*
X019362Y008470D01*
X019516Y008470D01*
X019516Y008197D01*
X019516Y007800D01*
X019516Y007800D01*
X019516Y008470D01*
X019516Y008470D01*
X019516Y008470D01*
X019516Y008379D02*
X019516Y008379D01*
X019362Y008470D02*
X019362Y008470D01*
X019516Y008141D02*
X019516Y008141D01*
X019516Y007902D02*
X019516Y007902D01*
X017930Y007902D02*
X017724Y007902D01*
X017930Y007761D02*
X017930Y008104D01*
X017928Y008102D01*
X017803Y008050D01*
X017668Y008050D01*
X017828Y007630D01*
X017858Y007618D01*
X017930Y007546D01*
X017930Y007761D01*
X017930Y007664D02*
X017816Y007664D01*
X016115Y006948D02*
X016046Y006948D01*
X014409Y007829D02*
X014401Y007827D01*
X014371Y007824D01*
X014352Y007815D01*
X013383Y007569D01*
X013157Y007632D01*
X013157Y007710D01*
X013032Y007835D01*
X013092Y007835D01*
X013187Y007875D01*
X013260Y007948D01*
X013300Y008043D01*
X013300Y008047D01*
X013350Y007997D01*
X013350Y007937D01*
X013402Y007812D01*
X013497Y007717D01*
X013622Y007665D01*
X013758Y007665D01*
X013883Y007717D01*
X013978Y007812D01*
X014030Y007937D01*
X014030Y007952D01*
X014365Y007952D01*
X014408Y007994D01*
X014409Y007829D01*
X014409Y007902D02*
X014015Y007902D01*
X013756Y007664D02*
X013157Y007664D01*
X013215Y007902D02*
X013365Y007902D01*
X018570Y006270D02*
X018715Y006270D01*
X018570Y006270D01*
X018570Y006270D01*
X018715Y006270D02*
X018715Y006270D01*
X001200Y004086D02*
X001140Y004086D01*
D49*
X005616Y003925D02*
X005995Y003650D01*
X006365Y003225D01*
X007775Y003055D02*
X008245Y003520D01*
X008370Y003635D01*
X008820Y003670D01*
X008954Y003710D01*
X009005Y003659D01*
X009239Y003910D02*
X008750Y003910D01*
X008574Y003964D01*
X008560Y003950D01*
X008574Y003964D02*
X008520Y003980D01*
X008165Y003980D01*
X008165Y003842D01*
X008164Y003842D01*
X007967Y003842D02*
X007960Y003849D01*
X007960Y004180D01*
X009010Y004180D01*
X009005Y004175D01*
X009005Y004171D01*
X009010Y004180D02*
X009100Y004180D01*
X009449Y004315D01*
X008970Y004565D02*
X008970Y004830D01*
X008977Y004837D01*
X008977Y004884D01*
X008977Y005356D02*
X008870Y005650D01*
X008665Y005880D01*
X008630Y006255D02*
X007825Y006280D01*
X007815Y006695D02*
X008110Y006670D01*
X010390Y005825D02*
X010375Y005780D01*
X010130Y004845D02*
X010140Y004825D01*
X010450Y004470D02*
X010650Y004670D01*
X010733Y004670D01*
X011160Y004243D01*
X011160Y004170D01*
X011160Y004165D01*
X010733Y004592D01*
X010733Y004670D01*
X010750Y004670D01*
X010745Y004665D01*
X010745Y004675D01*
X011160Y004260D01*
X011160Y004170D01*
X010450Y004470D02*
X010461Y004510D01*
X009961Y004315D01*
X009961Y003825D01*
X010150Y003485D02*
X010150Y003365D01*
X009830Y003030D01*
X009449Y003825D02*
X009239Y003910D01*
X010730Y004655D02*
X010735Y004655D01*
X010745Y004665D01*
X011960Y004270D02*
X011960Y004170D01*
X011960Y004270D02*
X012360Y004670D01*
X012387Y004670D01*
X015170Y005495D02*
X015185Y005774D01*
X015134Y005800D01*
X011760Y007820D02*
X011754Y008489D01*
X011760Y008520D01*
X012310Y008520D01*
X012560Y008519D01*
X012560Y008520D01*
X012310Y008520D01*
X011560Y008520D02*
X011557Y008489D01*
X011560Y008520D02*
X011560Y008720D01*
X011360Y008920D01*
X011360Y009070D01*
X011360Y009220D01*
X011160Y009420D01*
X011160Y009620D01*
X011163Y009651D01*
X011160Y009670D01*
X011360Y009670D02*
X011360Y009651D01*
X011360Y009670D02*
X011510Y009670D01*
X011557Y009651D01*
X011510Y009720D01*
X013210Y009920D02*
X013310Y009984D01*
X014705Y010185D02*
X018610Y010185D01*
X018140Y010190D02*
X018140Y009580D01*
X017860Y009295D01*
X016565Y009365D02*
X016530Y009830D01*
X016240Y009810D02*
X016238Y009810D01*
X015572Y008302D02*
X015540Y008280D01*
X015230Y007970D01*
X015020Y007970D01*
X015020Y007963D01*
X011360Y007815D02*
X011360Y008489D01*
X011160Y008320D02*
X011010Y008160D01*
X010590Y007990D01*
X009850Y007990D02*
X009650Y008125D01*
X009655Y008134D01*
X009505Y008870D01*
X010160Y008520D02*
X010960Y008520D01*
X003249Y008550D02*
X003245Y008544D01*
X003245Y009056D02*
X003111Y009156D01*
X003260Y009320D01*
X001729Y007490D02*
X001729Y006761D01*
X001735Y006755D01*
X002085Y006755D01*
X007376Y002268D02*
X007375Y001950D01*
X007770Y001985D02*
X007770Y002268D01*
X007967Y002268D02*
X007967Y002088D01*
X009285Y000515D02*
X009440Y000420D01*
X010230Y000425D01*
X015060Y000685D02*
X015060Y001420D01*
X015060Y002175D01*
X015395Y002615D01*
X018179Y002776D02*
X018210Y002770D01*
X018210Y002970D02*
X018179Y002973D01*
X018210Y002970D02*
X018410Y002970D01*
X018610Y003170D01*
X018760Y003170D01*
X018910Y003170D01*
X019110Y003370D01*
X019310Y003370D01*
X019341Y003367D01*
X019360Y003370D01*
X019360Y003170D02*
X019341Y003170D01*
X019360Y003170D02*
X019360Y003020D01*
X019341Y002973D01*
X019360Y002970D01*
X019360Y002820D01*
X019341Y002776D01*
X019410Y001971D02*
X019410Y001970D01*
X019610Y001770D01*
X019610Y001470D01*
X019410Y000870D02*
X019410Y000869D01*
X016770Y000535D02*
X016765Y000535D01*
X016770Y000535D02*
X016530Y000425D01*
X015320Y000425D01*
X015060Y000685D01*
X001490Y000780D02*
X001490Y001395D01*
X019420Y009175D02*
X019521Y008985D01*
X019510Y008920D01*
X019420Y009175D02*
X019350Y009365D01*
D50*
X019350Y009365D03*
X019675Y009400D03*
X019495Y009760D03*
X019190Y010020D03*
X018715Y009505D03*
X017865Y009300D03*
X018015Y008920D03*
X017655Y008785D03*
X017270Y008755D03*
X017735Y008390D03*
X017070Y008240D03*
X017820Y007915D03*
X017890Y007585D03*
X017665Y007330D03*
X017635Y006965D03*
X017145Y007190D03*
X016890Y007370D03*
X016610Y007215D03*
X016960Y006920D03*
X016090Y007540D03*
X016085Y007880D03*
X015515Y007500D03*
X014495Y007050D03*
X014965Y006365D03*
X015710Y006870D03*
X015925Y006105D03*
X016360Y005970D03*
X015940Y005750D03*
X015645Y005440D03*
X015170Y005495D03*
X014690Y005600D03*
X014100Y005000D03*
X014155Y004475D03*
X014630Y004440D03*
X014335Y004010D03*
X015195Y003545D03*
X016160Y003860D03*
X016465Y003735D03*
X016815Y003890D03*
X016380Y004190D03*
X015715Y004235D03*
X016080Y004605D03*
X015162Y004830D03*
X016510Y005250D03*
X016875Y005540D03*
X018360Y005020D03*
X018530Y005330D03*
X019430Y005075D03*
X019435Y004690D03*
X019440Y004260D03*
X019180Y003880D03*
X018585Y003990D03*
X017540Y003735D03*
X017110Y004345D03*
X017185Y004660D03*
X018415Y004645D03*
X019460Y005785D03*
X018625Y005990D03*
X018535Y006520D03*
X019755Y007810D03*
X017395Y009305D03*
X016565Y009365D03*
X015980Y009365D03*
X015655Y008920D03*
X016010Y008670D03*
X015520Y008270D03*
X014380Y007890D03*
X013690Y008005D03*
X013325Y007720D03*
X012790Y007860D03*
X012010Y008270D03*
X012310Y009070D03*
X013365Y009035D03*
X014440Y009460D03*
X015275Y009745D03*
X014705Y010190D03*
X014525Y008950D03*
X012020Y009675D03*
X011510Y009950D03*
X011225Y010170D03*
X010710Y009920D03*
X009250Y008330D03*
X009035Y008050D03*
X007810Y007570D03*
X007815Y006695D03*
X007450Y006355D03*
X007825Y006280D03*
X008055Y005900D03*
X008350Y005660D03*
X008870Y005650D03*
X009745Y005660D03*
X010390Y005825D03*
X011360Y004960D03*
X011745Y004960D03*
X011740Y004625D03*
X011355Y004625D03*
X010470Y004095D03*
X010120Y004865D03*
X008970Y004565D03*
X008005Y004840D03*
X007945Y004455D03*
X007118Y003754D03*
X009270Y002900D03*
X009265Y002570D03*
X009260Y002225D03*
X009795Y002190D03*
X009660Y001535D03*
X010245Y001080D03*
X010490Y001495D03*
X011310Y000800D03*
X013015Y001585D03*
X012050Y001845D03*
X011795Y002185D03*
X012920Y002560D03*
X013820Y003225D03*
X013275Y003390D03*
X013355Y004205D03*
X012935Y004295D03*
X012955Y005520D03*
X012610Y005800D03*
X012655Y006255D03*
X013395Y005795D03*
X013145Y006955D03*
X009895Y007085D03*
X007065Y006360D03*
X006695Y006370D03*
X002450Y003475D03*
X004860Y002610D03*
X006865Y001795D03*
X008380Y001940D03*
X009830Y003030D03*
X009715Y003410D03*
X010730Y003250D03*
X014755Y002510D03*
X015435Y002605D03*
X015945Y002725D03*
X018000Y002070D03*
X018805Y002280D03*
X019460Y002470D03*
X019610Y001470D03*
X016740Y001320D03*
X008800Y000800D03*
D51*
X008800Y001004D01*
X008330Y000869D02*
X008315Y000505D01*
X008580Y000510D01*
X009675Y000759D02*
X009766Y000870D01*
X009875Y000870D01*
X010030Y000980D01*
X010245Y001080D01*
X010365Y001275D02*
X009950Y001625D01*
X009705Y001775D01*
X009705Y001765D01*
X008975Y001765D01*
X008730Y002655D01*
X008565Y002665D01*
X008565Y002660D01*
X008560Y002860D02*
X008895Y002805D01*
X009265Y002570D01*
X009270Y002900D02*
X008557Y003055D01*
X008557Y003252D02*
X008775Y003245D01*
X009240Y003245D01*
X009400Y003210D01*
X009540Y003040D01*
X009540Y002055D01*
X010085Y001735D01*
X010545Y001790D01*
X012050Y001845D01*
X012250Y001695D02*
X012400Y002640D01*
X012387Y002670D01*
X012310Y002670D01*
X012360Y002670D02*
X012387Y002670D01*
X012360Y002670D02*
X011960Y003070D01*
X011960Y003170D01*
X011160Y003170D02*
X011160Y003070D01*
X010760Y002670D01*
X010733Y002670D01*
X010960Y002920D01*
X010120Y002820D02*
X009978Y002962D01*
X009972Y002962D01*
X009986Y002948D01*
X010000Y002948D01*
X010040Y002820D02*
X009830Y003030D01*
X009820Y003040D01*
X009750Y002845D01*
X010040Y002820D02*
X010120Y002820D01*
X009715Y003410D02*
X008760Y003395D01*
X008759Y003407D01*
X008755Y003418D01*
X008748Y003429D01*
X008740Y003437D01*
X008729Y003444D01*
X008718Y003448D01*
X008706Y003449D01*
X008557Y003449D01*
X008240Y003535D02*
X008170Y003535D01*
X007775Y003055D01*
X007770Y003405D01*
X007775Y003055D02*
X007770Y003842D01*
X007573Y003842D02*
X007575Y004324D01*
X007075Y004329D02*
X007376Y003842D01*
X007118Y003754D02*
X006840Y004010D01*
X006445Y004519D01*
X007075Y004841D02*
X007075Y005195D01*
X007575Y005200D02*
X007575Y004836D01*
X008005Y004840D02*
X008269Y004884D01*
X008269Y005356D02*
X008350Y005660D01*
X008895Y006075D02*
X009025Y005810D01*
X009495Y005810D01*
X009720Y005920D01*
X010390Y005825D01*
X010060Y005815D01*
X009570Y006070D02*
X009645Y007190D01*
X010225Y007636D01*
X010590Y007990D02*
X009850Y007990D01*
X009655Y008134D02*
X009645Y007840D01*
X009160Y007720D02*
X009160Y007676D01*
X009160Y007720D02*
X008710Y007670D01*
X008410Y007570D01*
X008409Y007567D01*
X008360Y007120D02*
X008010Y007220D01*
X007810Y007570D01*
X008360Y007120D02*
X008409Y007134D01*
X008409Y006701D02*
X008360Y006670D01*
X008110Y006670D01*
X008395Y006700D02*
X008400Y006685D01*
X008408Y006697D02*
X008395Y006700D01*
X008408Y006697D02*
X008795Y006595D01*
X008895Y006435D01*
X008895Y006075D01*
X008710Y006270D02*
X008630Y006270D01*
X008630Y006255D01*
X008630Y006270D02*
X008410Y006270D01*
X008409Y006288D01*
X008410Y006270D02*
X008410Y006320D01*
X008710Y006270D02*
X007825Y006280D01*
X007075Y005785D02*
X006490Y005590D01*
X006430Y005415D01*
X006420Y005400D01*
X006435Y005395D01*
X006450Y005385D01*
X006430Y005355D01*
X006440Y005350D01*
X004669Y006701D02*
X003815Y006700D01*
X003405Y006919D02*
X002900Y006900D01*
X002880Y006880D01*
X002830Y006750D01*
X002890Y006920D01*
X002900Y006900D02*
X002891Y007490D01*
X003405Y007431D02*
X003405Y007925D01*
X003610Y008175D01*
X003860Y008435D01*
X003951Y007970D02*
X004610Y008070D01*
X004660Y008020D01*
X004669Y008000D01*
X003439Y007970D02*
X003360Y008070D01*
X003439Y007970D02*
X003405Y007925D01*
X003820Y007135D02*
X004680Y007135D01*
X004665Y007130D01*
X004669Y007134D01*
X003315Y006750D02*
X003145Y006450D01*
X002425Y006750D02*
X002135Y006705D01*
X002085Y006755D01*
X003860Y009105D02*
X003860Y009320D01*
X004660Y009320D02*
X004669Y009300D01*
X007910Y009320D02*
X008160Y009070D01*
X008360Y009270D01*
X008409Y009300D01*
X008160Y009070D02*
X008360Y008870D01*
X008409Y008866D01*
X008410Y008870D01*
X009505Y008870D01*
X009510Y009214D01*
X009510Y009220D01*
X009060Y009220D01*
X009060Y009214D01*
X009060Y009720D02*
X008410Y009720D01*
X008409Y009713D01*
X007910Y009870D02*
X007910Y009320D01*
X007910Y009870D02*
X008260Y010220D01*
X010760Y010220D01*
X010960Y010020D01*
X010960Y009670D01*
X010966Y009651D01*
X011160Y009670D02*
X011160Y009220D01*
X012010Y009220D01*
X012260Y009370D01*
X012710Y009870D01*
X012960Y010170D01*
X013310Y010170D01*
X014705Y010190D01*
X014970Y009930D02*
X015009Y009716D01*
X014740Y009720D01*
X014466Y009830D01*
X014440Y009460D02*
X014600Y008740D01*
X015020Y008592D01*
X015460Y008470D01*
X015572Y008302D01*
X015520Y008270D01*
X015780Y008415D02*
X015815Y007345D01*
X015410Y006920D01*
X015410Y006870D01*
X015160Y006620D01*
X014860Y006620D01*
X014410Y006170D01*
X014410Y005970D01*
X014310Y005870D01*
X014010Y005870D01*
X013960Y005820D01*
X013960Y005255D01*
X014165Y005230D01*
X014375Y005140D01*
X014435Y005025D01*
X014520Y004770D01*
X014410Y004500D01*
X014405Y004350D01*
X014360Y004270D01*
X014210Y004225D01*
X014070Y004120D01*
X014065Y003940D01*
X014130Y003775D01*
X014320Y003740D01*
X014555Y003810D01*
X014845Y003845D01*
X015130Y003835D01*
X015240Y003670D01*
X015195Y003545D01*
X015760Y003580D02*
X015755Y003671D01*
X014981Y004160D01*
X014816Y004160D01*
X014631Y004115D01*
X014335Y004010D01*
X013910Y004165D02*
X013905Y004160D01*
X013674Y004160D01*
X013910Y004165D02*
X013910Y004870D01*
X013630Y005505D01*
X013710Y005570D01*
X013710Y005770D01*
X013910Y005970D01*
X013910Y006470D01*
X013860Y006520D01*
X013460Y006520D01*
X013380Y006650D01*
X013380Y007300D01*
X014445Y007570D01*
X015010Y007620D01*
X015020Y007648D01*
X015060Y007670D01*
X014780Y007700D01*
X014670Y007770D01*
X014665Y008285D01*
X015060Y008270D01*
X015020Y008277D01*
X015010Y008320D01*
X014690Y008315D01*
X014665Y008285D01*
X014690Y008315D02*
X014335Y008785D01*
X013905Y009065D01*
X013905Y009740D01*
X013954Y009830D01*
X013615Y009905D01*
X013310Y010170D02*
X013210Y010020D01*
X012960Y010170D02*
X011225Y010170D01*
X010710Y009920D02*
X010560Y010070D01*
X009360Y010070D01*
X009060Y009770D01*
X009060Y009726D01*
X009060Y009720D01*
X009510Y009726D02*
X010160Y009621D01*
X010210Y009070D01*
X010160Y008520D02*
X010160Y008519D01*
X010960Y008520D02*
X010966Y008489D01*
X011160Y008470D02*
X011163Y008489D01*
X011160Y008470D02*
X011160Y008320D01*
X010590Y007990D02*
X009645Y007190D01*
X009160Y007164D02*
X009265Y006670D01*
X009160Y006120D02*
X009265Y006080D01*
X009290Y006065D01*
X009570Y006070D01*
X009430Y006095D01*
X009570Y006070D02*
X011054Y006070D01*
X011566Y006070D02*
X011835Y006075D01*
X012215Y006255D01*
X012655Y006255D01*
X013030Y006291D02*
X013220Y006540D01*
X013145Y006955D01*
X012760Y006969D01*
X012345Y007120D02*
X012345Y007820D01*
X011760Y007820D01*
X011360Y007815D02*
X010820Y007800D01*
X010815Y007125D01*
X011110Y007120D01*
X012110Y007120D02*
X012345Y007120D01*
X012760Y007481D02*
X012915Y007430D01*
X013380Y007300D01*
X013325Y007720D02*
X012780Y007855D01*
X013040Y008095D02*
X013040Y008755D01*
X013050Y008810D01*
X013365Y009035D01*
X012560Y009621D02*
X012410Y009486D01*
X012020Y009675D02*
X011760Y009670D01*
X011754Y009651D01*
X013830Y008400D02*
X014005Y008305D01*
X013690Y008005D01*
X013040Y008095D02*
X012100Y008095D01*
X012010Y008270D01*
X014495Y007050D02*
X014700Y007330D01*
X015010Y007370D01*
X015020Y007333D01*
X015010Y007020D02*
X015020Y007018D01*
X015010Y007020D02*
X014410Y006420D01*
X013960Y006870D01*
X013250Y006525D02*
X013221Y006445D01*
X013030Y006291D01*
X013250Y006525D02*
X013510Y006220D01*
X013654Y006220D01*
X013395Y005795D01*
X013040Y005855D02*
X013030Y005779D01*
X013040Y005855D02*
X012955Y005810D01*
X012955Y005520D01*
X013699Y005525D02*
X013710Y005570D01*
X014211Y005525D02*
X014260Y005570D01*
X014260Y005470D01*
X014435Y005470D01*
X014835Y004895D01*
X014835Y004755D01*
X014821Y004751D01*
X014816Y004751D01*
X014690Y004625D01*
X014670Y004585D01*
X014630Y004440D01*
X014965Y004495D02*
X015085Y004420D01*
X015300Y004235D01*
X015715Y004235D01*
X015900Y003930D02*
X016293Y004445D01*
X016475Y004790D01*
X016505Y005235D01*
X016510Y005250D01*
X016875Y005540D02*
X017075Y006125D01*
X017210Y006470D01*
X017182Y006430D01*
X016867Y006430D02*
X016860Y006420D01*
X016785Y005970D01*
X016730Y005740D01*
X016675Y005655D01*
X015955Y005275D01*
X015625Y005150D01*
X015395Y005280D01*
X015395Y006055D01*
X015110Y006320D01*
X014965Y006365D01*
X014410Y006420D02*
X014210Y006220D01*
X014166Y006220D01*
X015608Y006430D02*
X015610Y006470D01*
X015710Y006570D01*
X015710Y006870D01*
X016375Y006930D02*
X016960Y006920D01*
X017145Y007190D02*
X017140Y007455D01*
X016990Y007725D01*
X016870Y007985D01*
X016830Y008265D01*
X016780Y009050D01*
X016815Y009230D01*
X016850Y009375D01*
X016867Y009810D01*
X016860Y009770D01*
X017182Y009810D02*
X017210Y009820D01*
X017130Y009450D01*
X016940Y009000D01*
X016980Y008530D01*
X017255Y008400D01*
X017665Y007330D01*
X017445Y007220D02*
X017070Y008240D01*
X017410Y008500D02*
X017605Y008120D01*
X017695Y007795D01*
X017890Y007585D01*
X018160Y007320D02*
X018010Y007170D01*
X018010Y006770D01*
X018060Y006720D01*
X018060Y005620D01*
X017860Y005420D01*
X017809Y005370D01*
X017810Y005420D01*
X017810Y005270D01*
X017410Y004870D01*
X017410Y003995D01*
X017845Y003995D01*
X017845Y003470D01*
X017860Y003470D01*
X017995Y003365D02*
X018195Y003365D01*
X018179Y003367D01*
X018179Y003564D02*
X018160Y003570D01*
X017540Y003735D02*
X017185Y003690D01*
X016730Y003650D01*
X016465Y003735D01*
X016730Y003645D02*
X017520Y003735D01*
X017185Y003690D01*
X016815Y003890D02*
X016860Y004010D01*
X016850Y004310D01*
X016890Y004460D01*
X016990Y004575D01*
X017185Y004660D01*
X017125Y005065D02*
X016740Y004545D01*
X016550Y004010D01*
X016160Y003860D01*
X015900Y003930D02*
X015760Y003580D01*
X015760Y003585D02*
X015755Y003671D01*
X015885Y003915D02*
X016293Y004445D01*
X016380Y004190D02*
X016580Y004620D01*
X017080Y005410D01*
X017155Y005750D01*
X017220Y005975D01*
X017430Y006075D01*
X017460Y006420D01*
X017497Y006430D01*
X017810Y006420D02*
X017812Y006430D01*
X017810Y006420D02*
X017810Y006070D01*
X017710Y005970D01*
X017355Y005830D01*
X017265Y005345D01*
X017125Y005065D01*
X016570Y005800D02*
X016005Y005510D01*
X015645Y005440D01*
X015646Y005800D02*
X015940Y005750D01*
X016360Y005970D02*
X016238Y006430D01*
X016553Y006430D02*
X016625Y006155D01*
X016570Y005800D01*
X015925Y006105D02*
X015923Y006430D01*
X016375Y006930D02*
X016375Y007895D01*
X016225Y008800D01*
X015760Y009190D01*
X015608Y009810D01*
X015910Y009770D02*
X015923Y009810D01*
X015910Y009770D02*
X015910Y009570D01*
X015980Y009365D01*
X016260Y009200D02*
X016390Y008960D01*
X016540Y007940D01*
X016610Y007215D01*
X016890Y007370D02*
X016705Y007945D01*
X016565Y009365D01*
X016260Y009200D02*
X016240Y009810D01*
X016510Y009820D02*
X016553Y009810D01*
X016530Y009830D02*
X016510Y009820D01*
X015275Y009745D02*
X015275Y009740D01*
X015060Y009715D01*
X015009Y009716D01*
X015020Y009222D02*
X015370Y009125D01*
X015400Y009120D01*
X015565Y008955D01*
X015655Y008920D01*
X015260Y008870D02*
X015780Y008415D01*
X016025Y008655D02*
X016010Y008670D01*
X016025Y008655D02*
X016025Y008060D01*
X016045Y008040D01*
X017410Y008500D02*
X017500Y008775D01*
X017655Y008785D01*
X018015Y008920D02*
X018400Y008907D01*
X018388Y008895D01*
X018400Y008592D02*
X018360Y008570D01*
X018150Y008580D01*
X017735Y008390D01*
X017930Y008180D02*
X018027Y008277D01*
X018400Y008277D01*
X018400Y008245D01*
X018665Y008245D01*
X018785Y008160D01*
X019500Y008160D01*
X019500Y008470D01*
X019516Y008470D01*
X019795Y008565D01*
X019795Y009135D01*
X019675Y009400D01*
X019009Y008985D02*
X019010Y008920D01*
X019010Y008470D01*
X019004Y008470D01*
X018400Y008277D02*
X017605Y008120D01*
X017760Y007990D02*
X017930Y008160D01*
X017930Y008180D01*
X017760Y007990D02*
X017760Y007975D01*
X017820Y007915D01*
X018400Y007963D02*
X018410Y007920D01*
X019004Y007800D01*
X019060Y007920D01*
X019130Y007670D01*
X019260Y007605D01*
X019310Y007480D01*
X019525Y007385D01*
X019525Y007360D01*
X019511Y007285D01*
X018999Y007285D02*
X018985Y007345D01*
X018620Y007345D01*
X018410Y007370D01*
X018400Y007333D01*
X018360Y007320D01*
X018160Y007320D01*
X018310Y006970D02*
X018310Y005070D01*
X018360Y005020D01*
X018911Y005370D02*
X018710Y006270D01*
X018715Y006270D02*
X018545Y006440D01*
X018535Y006520D01*
X018410Y007020D02*
X018994Y006780D01*
X019506Y006780D02*
X019510Y006780D01*
X019510Y006420D01*
X019305Y006270D01*
X018410Y007020D02*
X018400Y007018D01*
X018360Y006970D01*
X018310Y006970D01*
X017635Y006965D02*
X017445Y007220D01*
X015260Y008870D02*
X015060Y008870D01*
X015020Y008907D01*
X018400Y009222D02*
X018403Y009222D01*
X018405Y009220D01*
X018400Y009230D01*
X018400Y009222D02*
X018772Y009222D01*
X019009Y008985D01*
X018405Y009220D02*
X018405Y009705D01*
X009745Y005361D02*
X009725Y005361D01*
X010470Y004095D02*
X010230Y003975D01*
X010230Y003565D01*
X010150Y003485D01*
X012010Y003670D02*
X012410Y003670D01*
X012935Y004295D01*
X013910Y004165D02*
X013910Y003650D01*
X014145Y003520D01*
X013910Y003620D02*
X013849Y003604D01*
X013910Y003620D02*
X013910Y003650D01*
X013674Y003570D02*
X013674Y003569D01*
X013674Y003570D02*
X013595Y003570D01*
X013820Y003225D02*
X013590Y002890D01*
X013390Y002700D01*
X013130Y002455D01*
X012890Y002215D01*
X012350Y001570D01*
X012160Y001270D01*
X011040Y001275D01*
X010365Y001275D01*
X010490Y001495D02*
X010506Y001526D01*
X010775Y001526D01*
X011310Y001526D01*
X011340Y001530D01*
X011880Y001530D01*
X011910Y001526D01*
X011950Y001530D01*
X012250Y001695D01*
X011910Y001526D02*
X011910Y001520D01*
X012160Y001040D02*
X012545Y001440D01*
X012715Y001625D01*
X013095Y002170D01*
X013330Y002405D01*
X013894Y002720D01*
X014155Y002395D02*
X014155Y003245D01*
X014406Y002720D02*
X014685Y002820D01*
X015440Y002870D01*
X015945Y002725D01*
X015765Y003075D02*
X015755Y003159D01*
X016180Y003455D02*
X016210Y001520D01*
X016360Y001370D01*
X016740Y001320D01*
X017110Y001370D02*
X016730Y000915D01*
X016495Y000680D01*
X016185Y000710D01*
X015560Y000920D01*
X015960Y001420D02*
X015060Y001420D01*
X013210Y001420D01*
X013210Y001380D01*
X013020Y001190D01*
X012160Y001040D02*
X012000Y001035D01*
X011940Y001040D01*
X011910Y001014D01*
X011880Y001020D01*
X011350Y001020D01*
X011310Y001014D01*
X011310Y000800D01*
X011280Y000990D02*
X011310Y001014D01*
X011310Y001020D01*
X011910Y001020D02*
X011910Y001014D01*
X011310Y001520D02*
X011310Y001526D01*
X009675Y001495D02*
X009675Y001271D01*
X009675Y001495D02*
X009660Y001535D01*
X009255Y002031D02*
X009260Y002225D01*
X008800Y001785D02*
X008630Y002400D01*
X008330Y002400D01*
X008166Y002270D01*
X008164Y002268D01*
X007967Y002088D02*
X008180Y001875D01*
X008315Y001875D01*
X008380Y001940D01*
X008800Y001785D02*
X008805Y001695D01*
X008800Y001516D01*
X007761Y001795D02*
X007770Y001985D01*
X007375Y001950D02*
X007249Y001795D01*
X007220Y001790D02*
X007220Y001355D01*
X006530Y001345D01*
X006530Y001790D01*
X007220Y001790D01*
X007220Y001762D02*
X006530Y001762D01*
X006530Y001683D02*
X007220Y001683D01*
X007220Y001605D02*
X006530Y001605D01*
X006530Y001526D02*
X007220Y001526D01*
X007220Y001448D02*
X006530Y001448D01*
X006530Y001369D02*
X007220Y001369D01*
X007279Y001330D02*
X007279Y000890D01*
X006466Y000890D02*
X006466Y001330D01*
X006458Y001841D02*
X006455Y002040D01*
X006795Y002375D02*
X006035Y002375D01*
X005550Y002510D02*
X005415Y002685D01*
X005290Y002760D01*
X004860Y002610D02*
X004873Y002567D01*
X004903Y002318D01*
X004845Y002376D01*
X004903Y002318D02*
X005045Y002176D01*
X004565Y002855D02*
X004445Y002855D01*
X004565Y002855D02*
X004665Y002955D01*
X006365Y003225D02*
X006690Y003055D01*
X006983Y003055D01*
X006983Y003252D02*
X006755Y003260D01*
X006715Y003615D01*
X006365Y003895D01*
X006980Y003460D02*
X007118Y003754D01*
X007514Y002799D02*
X007925Y002665D01*
X006983Y002661D01*
X006795Y002375D02*
X006990Y002275D01*
X006455Y002710D02*
X006485Y002859D01*
X009701Y000865D02*
X009675Y000759D01*
X012915Y002565D02*
X012920Y002560D01*
X012915Y002565D02*
X012925Y002575D01*
X012955Y003535D01*
X012537Y003670D02*
X012510Y003670D01*
X012537Y003670D02*
X012410Y003670D01*
X014155Y004475D02*
X014225Y004785D01*
X014210Y004900D01*
X014100Y005000D01*
X014225Y004895D01*
X014245Y004770D01*
X014835Y004755D02*
X014965Y004495D01*
X015162Y004830D02*
X015274Y005030D01*
X015271Y005032D01*
X017859Y004470D02*
X017860Y004470D01*
X018080Y004200D01*
X018585Y004400D02*
X018585Y003990D01*
X019180Y003880D02*
X019210Y003770D01*
X019310Y003670D01*
X019310Y003570D01*
X019341Y003564D01*
X018760Y004400D02*
X018585Y004400D01*
X017710Y003170D02*
X017060Y002970D01*
X018000Y002070D02*
X018000Y001585D01*
X017760Y001370D01*
X017110Y001370D01*
X014155Y002395D02*
X013560Y001920D01*
X013020Y000495D02*
X012995Y000470D01*
X012995Y000435D01*
X009035Y008050D02*
X008660Y008435D01*
X008655Y008445D01*
X008660Y008435D02*
X008545Y008435D01*
X008410Y008420D01*
X008409Y008433D01*
X009250Y008330D02*
X009285Y008580D01*
D52*
X010210Y009070D02*
X011360Y009070D01*
X011360Y009220D02*
X012010Y009220D01*
X012410Y009486D01*
X012655Y009115D01*
X012310Y009070D02*
X012310Y008520D01*
X013685Y008775D02*
X013649Y009350D01*
X013685Y008775D02*
X014005Y008305D01*
X013886Y008400D02*
X013881Y008427D01*
X013886Y008400D02*
X013830Y008400D01*
X012560Y009621D02*
X012860Y010020D01*
X013210Y010020D01*
X013210Y009920D01*
X011510Y009950D02*
X011510Y009720D01*
X007625Y007120D02*
X007625Y006890D01*
X007540Y006890D01*
X007480Y006630D01*
X008408Y006697D02*
X008409Y006701D01*
X009745Y005660D02*
X009745Y005361D01*
X009725Y005361D02*
X009725Y005311D01*
X009331Y005356D01*
X008970Y004565D02*
X008700Y004455D01*
X010730Y003250D02*
X010960Y002920D01*
X010733Y002670D02*
X009795Y002190D01*
X010775Y001546D02*
X010775Y001526D01*
X012545Y001440D02*
X012545Y001341D01*
X012650Y001341D01*
X013020Y001190D02*
X013020Y000495D01*
X012680Y000495D01*
X012680Y000515D01*
X012565Y000515D01*
X012565Y000829D01*
X012650Y000829D01*
X015560Y001920D02*
X016370Y001035D01*
X017060Y001970D02*
X017960Y002370D01*
X018270Y002370D01*
X018210Y002770D01*
X018270Y002370D02*
X018265Y001065D01*
X018465Y000880D01*
X019410Y000870D01*
X019460Y002470D02*
X019350Y002735D01*
X019341Y002973D01*
X019750Y002980D01*
X019755Y003290D01*
X019755Y005325D01*
X019460Y005785D01*
X018080Y004200D02*
X018160Y003570D01*
X016180Y003455D02*
X015765Y003075D01*
X014155Y003245D01*
X014145Y003520D01*
X013910Y003620D01*
X013849Y003604D02*
X013674Y003569D01*
X013595Y003570D02*
X013275Y003390D01*
X015162Y004830D02*
X015810Y004805D01*
X015162Y004830D02*
X015110Y005100D01*
X013630Y005505D02*
X012955Y005520D01*
X013960Y006870D02*
X013960Y006911D01*
X013881Y006931D01*
X018140Y009910D02*
X018405Y010015D01*
X018700Y009910D01*
X018610Y010185D01*
X018935Y010135D02*
X019190Y010020D01*
X018140Y009910D02*
X018140Y010190D01*
X006365Y003895D02*
X005960Y004565D01*
X005871Y005185D01*
X005290Y004565D02*
X005104Y003925D01*
X005190Y003315D01*
X005735Y002859D02*
X006485Y002859D01*
X006455Y002040D02*
X005045Y002176D01*
X006458Y001841D02*
X006865Y001795D01*
X007249Y001795D02*
X007279Y001330D01*
X006466Y001330D01*
X006458Y001841D01*
X007761Y001795D02*
X008065Y001620D01*
X008330Y001381D01*
X003469Y002700D02*
X003320Y002705D01*
X003795Y004025D02*
X003925Y004104D01*
X002310Y008091D02*
X003249Y008550D01*
X003260Y009320D02*
X003860Y009320D01*
X004660Y009320D01*
D53*
X005310Y009370D03*
X005310Y008970D03*
X005310Y008570D03*
X005310Y008170D03*
X005310Y007770D03*
X005310Y007370D03*
X005300Y006985D03*
X005290Y006560D03*
X005655Y006305D03*
X006000Y006205D03*
X006360Y006200D03*
X006050Y005785D03*
X005740Y005790D03*
X004035Y006385D03*
X003740Y006325D03*
X003465Y006460D03*
X003145Y006450D03*
X002830Y006750D03*
X002425Y006750D03*
X002085Y006755D03*
X002260Y006355D03*
X002245Y005975D03*
X002205Y005660D03*
X002575Y005650D03*
X002935Y005665D03*
X003260Y005670D03*
X003575Y005660D03*
X003050Y005935D03*
X002855Y004760D03*
X002545Y004765D03*
X002210Y004765D03*
X002210Y004430D03*
X002200Y004110D03*
X002195Y003755D03*
X001905Y003610D03*
X001570Y003610D03*
X000505Y003670D03*
X000605Y002775D03*
X001375Y002780D03*
X002400Y002715D03*
X002405Y002390D03*
X002395Y002035D03*
X002160Y001795D03*
X001845Y001790D03*
X001565Y001630D03*
X001200Y001625D03*
X000820Y001595D03*
X000510Y001720D03*
X000510Y002070D03*
X001470Y002015D03*
X002510Y001710D03*
X002830Y001780D03*
X003175Y001815D03*
X003565Y001650D03*
X004425Y001715D03*
X004440Y002080D03*
X004445Y002455D03*
X004445Y002855D03*
X005290Y002760D03*
X005895Y002460D03*
X006990Y002275D03*
X005955Y001745D03*
X005650Y001770D03*
X006875Y000895D03*
X006860Y000535D03*
X007915Y000505D03*
X008580Y000510D03*
X009285Y000515D03*
X010110Y000510D03*
X010530Y000515D03*
X010990Y000510D03*
X011605Y000535D03*
X012180Y000535D03*
X012565Y000515D03*
X010110Y002005D03*
X011340Y002515D03*
X009255Y001105D03*
X007775Y003055D03*
X004720Y003750D03*
X004080Y003735D03*
X002835Y003800D03*
X002825Y003470D03*
X002820Y003140D03*
X002505Y003045D03*
X002835Y004135D03*
X002840Y004440D03*
X007625Y007120D03*
X007755Y008035D03*
X007760Y008520D03*
X007760Y009020D03*
X007570Y009370D03*
X007580Y009755D03*
X007645Y010105D03*
X007240Y010120D03*
X006810Y010120D03*
X006410Y010120D03*
X006010Y010120D03*
X005560Y010120D03*
X005085Y010125D03*
X005310Y009770D03*
X004645Y010130D03*
X003900Y010130D03*
X003905Y009730D03*
X004010Y007520D03*
X010160Y009070D03*
X011090Y008935D03*
X012655Y009115D03*
X013205Y009570D03*
X013100Y004855D03*
X018590Y003495D03*
X016370Y001035D03*
X016765Y000535D03*
X005620Y000515D03*
X005215Y000515D03*
X004845Y000515D03*
X004495Y000520D03*
X004110Y000520D03*
X003755Y000530D03*
X003410Y000520D03*
X003060Y000520D03*
X002710Y000520D03*
X002340Y000510D03*
X002000Y000505D03*
X001660Y000520D03*
X001310Y000520D03*
X000560Y000570D03*
X000510Y001370D03*
D54*
X004665Y002955D02*
X005080Y002955D01*
X006485Y002859D02*
X006983Y002858D01*
X007605Y000435D02*
X012995Y000435D01*
X017710Y003170D02*
X018179Y003170D01*
X017995Y003365D02*
X017860Y003470D01*
X017845Y003470D02*
X016210Y003470D01*
X016180Y003455D01*
X017185Y003690D02*
X017110Y004345D01*
X018911Y005370D02*
X019125Y005370D01*
X019355Y005140D01*
X019425Y005070D02*
X019430Y005075D01*
X004025Y005900D02*
X003050Y005935D01*
X003740Y006325D02*
X004025Y005900D01*
D55*
X003315Y006750D02*
X001710Y006755D01*
D56*
X001170Y005210D02*
X002474Y005215D01*
X002986Y005215D02*
X003689Y005215D01*
X003310Y005190D01*
X003310Y004690D01*
X003925Y004690D01*
X003925Y004616D01*
X003795Y004025D02*
X003310Y004020D01*
X003315Y003310D01*
X003320Y002705D01*
X003469Y002700D02*
X002845Y002691D01*
X003981Y002700D02*
X003981Y002160D01*
X003981Y002700D02*
X003985Y003310D01*
X004520Y003315D01*
X005190Y003315D02*
X005735Y003371D01*
M02*
