G75*
G70*
%OFA0B0*%
%FSLAX24Y24*%
%IPPOS*%
%LPD*%
%AMOC8*
5,1,8,0,0,1.08239X$1,22.5*
%
%ADD10C,0.0000*%
%ADD11C,0.0020*%
%ADD12C,0.0030*%
%ADD13C,0.0040*%
%ADD14C,0.0160*%
%ADD15C,0.0060*%
%ADD16C,0.0039*%
%ADD17C,0.0050*%
%ADD18R,0.0591X0.0236*%
%ADD19R,0.0160X0.0280*%
%ADD20C,0.0080*%
%ADD21R,0.0280X0.0160*%
%ADD22C,0.0010*%
D10*
X000260Y000270D02*
X000260Y010370D01*
X019910Y010370D01*
X019910Y000270D01*
X000260Y000270D01*
X000734Y001020D02*
X000736Y001053D01*
X000742Y001085D01*
X000751Y001116D01*
X000764Y001146D01*
X000781Y001174D01*
X000801Y001200D01*
X000824Y001224D01*
X000849Y001244D01*
X000877Y001262D01*
X000906Y001276D01*
X000937Y001286D01*
X000969Y001293D01*
X001002Y001296D01*
X001035Y001295D01*
X001067Y001290D01*
X001098Y001281D01*
X001129Y001269D01*
X001157Y001253D01*
X001184Y001234D01*
X001208Y001212D01*
X001229Y001187D01*
X001248Y001160D01*
X001263Y001131D01*
X001274Y001101D01*
X001282Y001069D01*
X001286Y001036D01*
X001286Y001004D01*
X001282Y000971D01*
X001274Y000939D01*
X001263Y000909D01*
X001248Y000880D01*
X001229Y000853D01*
X001208Y000828D01*
X001184Y000806D01*
X001157Y000787D01*
X001129Y000771D01*
X001098Y000759D01*
X001067Y000750D01*
X001035Y000745D01*
X001002Y000744D01*
X000969Y000747D01*
X000937Y000754D01*
X000906Y000764D01*
X000877Y000778D01*
X000849Y000796D01*
X000824Y000816D01*
X000801Y000840D01*
X000781Y000866D01*
X000764Y000894D01*
X000751Y000924D01*
X000742Y000955D01*
X000736Y000987D01*
X000734Y001020D01*
X000734Y002370D02*
X000736Y002403D01*
X000742Y002435D01*
X000751Y002466D01*
X000764Y002496D01*
X000781Y002524D01*
X000801Y002550D01*
X000824Y002574D01*
X000849Y002594D01*
X000877Y002612D01*
X000906Y002626D01*
X000937Y002636D01*
X000969Y002643D01*
X001002Y002646D01*
X001035Y002645D01*
X001067Y002640D01*
X001098Y002631D01*
X001129Y002619D01*
X001157Y002603D01*
X001184Y002584D01*
X001208Y002562D01*
X001229Y002537D01*
X001248Y002510D01*
X001263Y002481D01*
X001274Y002451D01*
X001282Y002419D01*
X001286Y002386D01*
X001286Y002354D01*
X001282Y002321D01*
X001274Y002289D01*
X001263Y002259D01*
X001248Y002230D01*
X001229Y002203D01*
X001208Y002178D01*
X001184Y002156D01*
X001157Y002137D01*
X001129Y002121D01*
X001098Y002109D01*
X001067Y002100D01*
X001035Y002095D01*
X001002Y002094D01*
X000969Y002097D01*
X000937Y002104D01*
X000906Y002114D01*
X000877Y002128D01*
X000849Y002146D01*
X000824Y002166D01*
X000801Y002190D01*
X000781Y002216D01*
X000764Y002244D01*
X000751Y002274D01*
X000742Y002305D01*
X000736Y002337D01*
X000734Y002370D01*
X000734Y003200D02*
X000736Y003233D01*
X000742Y003265D01*
X000751Y003296D01*
X000764Y003326D01*
X000781Y003354D01*
X000801Y003380D01*
X000824Y003404D01*
X000849Y003424D01*
X000877Y003442D01*
X000906Y003456D01*
X000937Y003466D01*
X000969Y003473D01*
X001002Y003476D01*
X001035Y003475D01*
X001067Y003470D01*
X001098Y003461D01*
X001129Y003449D01*
X001157Y003433D01*
X001184Y003414D01*
X001208Y003392D01*
X001229Y003367D01*
X001248Y003340D01*
X001263Y003311D01*
X001274Y003281D01*
X001282Y003249D01*
X001286Y003216D01*
X001286Y003184D01*
X001282Y003151D01*
X001274Y003119D01*
X001263Y003089D01*
X001248Y003060D01*
X001229Y003033D01*
X001208Y003008D01*
X001184Y002986D01*
X001157Y002967D01*
X001129Y002951D01*
X001098Y002939D01*
X001067Y002930D01*
X001035Y002925D01*
X001002Y002924D01*
X000969Y002927D01*
X000937Y002934D01*
X000906Y002944D01*
X000877Y002958D01*
X000849Y002976D01*
X000824Y002996D01*
X000801Y003020D01*
X000781Y003046D01*
X000764Y003074D01*
X000751Y003104D01*
X000742Y003135D01*
X000736Y003167D01*
X000734Y003200D01*
X000734Y007570D02*
X000736Y007603D01*
X000742Y007635D01*
X000751Y007666D01*
X000764Y007696D01*
X000781Y007724D01*
X000801Y007750D01*
X000824Y007774D01*
X000849Y007794D01*
X000877Y007812D01*
X000906Y007826D01*
X000937Y007836D01*
X000969Y007843D01*
X001002Y007846D01*
X001035Y007845D01*
X001067Y007840D01*
X001098Y007831D01*
X001129Y007819D01*
X001157Y007803D01*
X001184Y007784D01*
X001208Y007762D01*
X001229Y007737D01*
X001248Y007710D01*
X001263Y007681D01*
X001274Y007651D01*
X001282Y007619D01*
X001286Y007586D01*
X001286Y007554D01*
X001282Y007521D01*
X001274Y007489D01*
X001263Y007459D01*
X001248Y007430D01*
X001229Y007403D01*
X001208Y007378D01*
X001184Y007356D01*
X001157Y007337D01*
X001129Y007321D01*
X001098Y007309D01*
X001067Y007300D01*
X001035Y007295D01*
X001002Y007294D01*
X000969Y007297D01*
X000937Y007304D01*
X000906Y007314D01*
X000877Y007328D01*
X000849Y007346D01*
X000824Y007366D01*
X000801Y007390D01*
X000781Y007416D01*
X000764Y007444D01*
X000751Y007474D01*
X000742Y007505D01*
X000736Y007537D01*
X000734Y007570D01*
X000734Y008420D02*
X000736Y008453D01*
X000742Y008485D01*
X000751Y008516D01*
X000764Y008546D01*
X000781Y008574D01*
X000801Y008600D01*
X000824Y008624D01*
X000849Y008644D01*
X000877Y008662D01*
X000906Y008676D01*
X000937Y008686D01*
X000969Y008693D01*
X001002Y008696D01*
X001035Y008695D01*
X001067Y008690D01*
X001098Y008681D01*
X001129Y008669D01*
X001157Y008653D01*
X001184Y008634D01*
X001208Y008612D01*
X001229Y008587D01*
X001248Y008560D01*
X001263Y008531D01*
X001274Y008501D01*
X001282Y008469D01*
X001286Y008436D01*
X001286Y008404D01*
X001282Y008371D01*
X001274Y008339D01*
X001263Y008309D01*
X001248Y008280D01*
X001229Y008253D01*
X001208Y008228D01*
X001184Y008206D01*
X001157Y008187D01*
X001129Y008171D01*
X001098Y008159D01*
X001067Y008150D01*
X001035Y008145D01*
X001002Y008144D01*
X000969Y008147D01*
X000937Y008154D01*
X000906Y008164D01*
X000877Y008178D01*
X000849Y008196D01*
X000824Y008216D01*
X000801Y008240D01*
X000781Y008266D01*
X000764Y008294D01*
X000751Y008324D01*
X000742Y008355D01*
X000736Y008387D01*
X000734Y008420D01*
X000734Y009920D02*
X000736Y009953D01*
X000742Y009985D01*
X000751Y010016D01*
X000764Y010046D01*
X000781Y010074D01*
X000801Y010100D01*
X000824Y010124D01*
X000849Y010144D01*
X000877Y010162D01*
X000906Y010176D01*
X000937Y010186D01*
X000969Y010193D01*
X001002Y010196D01*
X001035Y010195D01*
X001067Y010190D01*
X001098Y010181D01*
X001129Y010169D01*
X001157Y010153D01*
X001184Y010134D01*
X001208Y010112D01*
X001229Y010087D01*
X001248Y010060D01*
X001263Y010031D01*
X001274Y010001D01*
X001282Y009969D01*
X001286Y009936D01*
X001286Y009904D01*
X001282Y009871D01*
X001274Y009839D01*
X001263Y009809D01*
X001248Y009780D01*
X001229Y009753D01*
X001208Y009728D01*
X001184Y009706D01*
X001157Y009687D01*
X001129Y009671D01*
X001098Y009659D01*
X001067Y009650D01*
X001035Y009645D01*
X001002Y009644D01*
X000969Y009647D01*
X000937Y009654D01*
X000906Y009664D01*
X000877Y009678D01*
X000849Y009696D01*
X000824Y009716D01*
X000801Y009740D01*
X000781Y009766D01*
X000764Y009794D01*
X000751Y009824D01*
X000742Y009855D01*
X000736Y009887D01*
X000734Y009920D01*
D11*
X006368Y008510D02*
X006404Y008436D01*
X006478Y008363D01*
X006478Y008473D01*
X006514Y008510D01*
X006551Y008510D01*
X006588Y008473D01*
X006588Y008399D01*
X006551Y008363D01*
X006478Y008363D01*
X006478Y008289D02*
X006478Y008142D01*
X006588Y008068D02*
X006368Y007921D01*
X006441Y007847D02*
X006588Y007847D01*
X006588Y007921D02*
X006368Y008068D01*
X006441Y007847D02*
X006368Y007773D01*
X006441Y007700D01*
X006588Y007700D01*
X006588Y007626D02*
X006368Y007626D01*
X006441Y007552D01*
X006368Y007479D01*
X006588Y007479D01*
X006478Y007700D02*
X006478Y007847D01*
X007563Y007452D02*
X007710Y007305D01*
X007673Y007231D02*
X007600Y007231D01*
X007563Y007194D01*
X007563Y007121D01*
X007600Y007084D01*
X007673Y007084D01*
X007710Y007121D01*
X007710Y007194D01*
X007673Y007231D01*
X007563Y007305D02*
X007710Y007452D01*
X007710Y007010D02*
X007710Y006937D01*
X007710Y006973D02*
X007490Y006973D01*
X007490Y006937D01*
X007563Y006826D02*
X007600Y006862D01*
X007673Y006862D01*
X007710Y006826D01*
X007710Y006716D01*
X007490Y006716D01*
X007563Y006716D02*
X007563Y006826D01*
X007563Y006641D02*
X007710Y006641D01*
X007710Y006531D01*
X007673Y006495D01*
X007563Y006495D01*
X014925Y009380D02*
X015072Y009380D01*
X014998Y009380D02*
X014998Y009600D01*
X014925Y009527D01*
X004221Y001870D02*
X004128Y001870D01*
X004128Y001730D01*
X004221Y001730D01*
X004174Y001800D02*
X004128Y001800D01*
X004074Y001730D02*
X003980Y001730D01*
X003980Y001870D01*
X003926Y001847D02*
X003926Y001823D01*
X003903Y001800D01*
X003833Y001800D01*
X003779Y001800D02*
X003686Y001800D01*
X003686Y001823D02*
X003686Y001730D01*
X003632Y001730D02*
X003632Y001870D01*
X003686Y001823D02*
X003732Y001870D01*
X003779Y001823D01*
X003779Y001730D01*
X003833Y001730D02*
X003903Y001730D01*
X003926Y001753D01*
X003926Y001777D01*
X003903Y001800D01*
X003926Y001847D02*
X003903Y001870D01*
X003833Y001870D01*
X003833Y001730D01*
X003632Y001730D02*
X003538Y001870D01*
X003538Y001730D01*
X003484Y001730D02*
X003391Y001730D01*
X003391Y001870D01*
X003484Y001870D01*
X003438Y001800D02*
X003391Y001800D01*
X012850Y000867D02*
X012923Y000940D01*
X012923Y000720D01*
X012850Y000720D02*
X012997Y000720D01*
X016170Y000697D02*
X016207Y000660D01*
X016280Y000660D01*
X016317Y000697D01*
X016317Y000770D01*
X016243Y000770D01*
X016170Y000843D02*
X016170Y000697D01*
X016170Y000843D02*
X016207Y000880D01*
X016280Y000880D01*
X016317Y000843D01*
X016391Y000880D02*
X016391Y000660D01*
X016538Y000660D02*
X016538Y000880D01*
X016612Y000880D02*
X016722Y000880D01*
X016759Y000843D01*
X016759Y000697D01*
X016722Y000660D01*
X016612Y000660D01*
X016612Y000880D01*
X016391Y000880D02*
X016538Y000660D01*
D12*
X012734Y001860D02*
X012540Y001860D01*
X012637Y001860D02*
X012637Y002150D01*
X012540Y002054D01*
X008189Y004520D02*
X007995Y004520D01*
X008092Y004520D02*
X008092Y004810D01*
X007995Y004714D01*
X006892Y004090D02*
X006892Y003800D01*
X006795Y003800D02*
X006989Y003800D01*
X006795Y003994D02*
X006892Y004090D01*
X008375Y005740D02*
X008569Y005740D01*
X008472Y005740D02*
X008472Y006030D01*
X008375Y005934D01*
X006013Y007110D02*
X005643Y007110D01*
X005643Y007295D01*
X005705Y007357D01*
X005828Y007357D01*
X005890Y007295D01*
X005890Y007110D01*
X005890Y007478D02*
X005890Y007725D01*
X005828Y007725D01*
X005766Y007663D01*
X005766Y007540D01*
X005828Y007478D01*
X005952Y007478D01*
X006013Y007540D01*
X006013Y007663D01*
X005952Y007847D02*
X005828Y007847D01*
X005766Y007908D01*
X005766Y008093D01*
X005890Y008277D02*
X005952Y008215D01*
X006013Y008277D01*
X006013Y008462D01*
X005828Y008462D01*
X005766Y008400D01*
X005766Y008277D01*
X005890Y008277D02*
X005890Y008462D01*
X006013Y008583D02*
X005766Y008583D01*
X005766Y008768D01*
X005828Y008830D01*
X006013Y008830D01*
X005828Y009320D02*
X005828Y009567D01*
X005643Y009505D02*
X005828Y009320D01*
X006013Y009505D02*
X005643Y009505D01*
X003345Y009855D02*
X003160Y010040D01*
X003098Y009979D02*
X003345Y010225D01*
X003098Y010225D02*
X003098Y009855D01*
X002853Y009855D02*
X002853Y010225D01*
X002730Y010225D02*
X002977Y010225D01*
X002609Y010225D02*
X002362Y010225D01*
X002362Y010040D01*
X002485Y010102D01*
X002547Y010102D01*
X002609Y010040D01*
X002609Y009917D01*
X002547Y009855D01*
X002423Y009855D01*
X002362Y009917D01*
X002117Y009855D02*
X002117Y010225D01*
X002240Y010225D02*
X001993Y010225D01*
X001872Y010225D02*
X001625Y009979D01*
X001687Y010040D02*
X001872Y009855D01*
X001625Y009855D02*
X001625Y010225D01*
X001680Y008920D02*
X001865Y008920D01*
X001927Y008859D01*
X001927Y008735D01*
X001865Y008674D01*
X001680Y008674D01*
X001680Y008550D02*
X001680Y008920D01*
X002048Y008920D02*
X002234Y008920D01*
X002295Y008859D01*
X002295Y008735D01*
X002234Y008674D01*
X002048Y008674D01*
X002417Y008735D02*
X002664Y008735D01*
X002602Y008550D02*
X002602Y008920D01*
X002417Y008735D01*
X002048Y008550D02*
X002048Y008920D01*
X005952Y007847D02*
X006013Y007908D01*
X006013Y008093D01*
X010575Y008100D02*
X010769Y008100D01*
X010672Y008100D02*
X010672Y008390D01*
X010575Y008294D01*
X017860Y003899D02*
X017957Y003995D01*
X017957Y003705D01*
X017860Y003705D02*
X018054Y003705D01*
D13*
X018233Y001854D02*
X018233Y001547D01*
X018080Y001700D02*
X018387Y001700D01*
X002241Y007490D02*
X002243Y007506D01*
X002248Y007521D01*
X002257Y007534D01*
X002269Y007545D01*
X002283Y007553D01*
X002298Y007558D01*
X002314Y007559D01*
X002330Y007556D01*
X002344Y007550D01*
X002357Y007540D01*
X002368Y007528D01*
X002375Y007514D01*
X002379Y007498D01*
X002379Y007482D01*
X002375Y007466D01*
X002368Y007452D01*
X002357Y007440D01*
X002345Y007430D01*
X002330Y007424D01*
X002314Y007421D01*
X002298Y007422D01*
X002283Y007427D01*
X002269Y007435D01*
X002257Y007446D01*
X002248Y007459D01*
X002243Y007474D01*
X002241Y007490D01*
X002034Y007490D02*
X002036Y007523D01*
X002042Y007555D01*
X002051Y007586D01*
X002064Y007616D01*
X002081Y007644D01*
X002101Y007670D01*
X002124Y007694D01*
X002149Y007714D01*
X002177Y007732D01*
X002206Y007746D01*
X002237Y007756D01*
X002269Y007763D01*
X002302Y007766D01*
X002335Y007765D01*
X002367Y007760D01*
X002398Y007751D01*
X002429Y007739D01*
X002457Y007723D01*
X002484Y007704D01*
X002508Y007682D01*
X002529Y007657D01*
X002548Y007630D01*
X002563Y007601D01*
X002574Y007571D01*
X002582Y007539D01*
X002586Y007506D01*
X002586Y007474D01*
X002582Y007441D01*
X002574Y007409D01*
X002563Y007379D01*
X002548Y007350D01*
X002529Y007323D01*
X002508Y007298D01*
X002484Y007276D01*
X002457Y007257D01*
X002429Y007241D01*
X002398Y007229D01*
X002367Y007220D01*
X002335Y007215D01*
X002302Y007214D01*
X002269Y007217D01*
X002237Y007224D01*
X002206Y007234D01*
X002177Y007248D01*
X002149Y007266D01*
X002124Y007286D01*
X002101Y007310D01*
X002081Y007336D01*
X002064Y007364D01*
X002051Y007394D01*
X002042Y007425D01*
X002036Y007457D01*
X002034Y007490D01*
X001958Y003308D02*
X001958Y003001D01*
X001728Y003231D01*
X002188Y003231D01*
X001958Y002847D02*
X001805Y002847D01*
X001728Y002770D01*
X001728Y002540D01*
X002188Y002540D01*
X002035Y002540D02*
X002035Y002770D01*
X001958Y002847D01*
X001958Y002387D02*
X001805Y002387D01*
X001728Y002310D01*
X001728Y002080D01*
X002188Y002080D01*
X002035Y002080D02*
X002035Y002310D01*
X001958Y002387D01*
D14*
X002833Y002435D02*
X002857Y002435D01*
X003725Y002688D02*
X003725Y002712D01*
X003725Y002172D02*
X003725Y002148D01*
X005723Y003115D02*
X005747Y003115D01*
X005360Y003913D02*
X005360Y003937D01*
X003937Y004360D02*
X003913Y004360D01*
X003945Y005203D02*
X003945Y005227D01*
X002730Y005227D02*
X002730Y005203D01*
X005615Y005197D02*
X005615Y005173D01*
X008993Y003915D02*
X009017Y003915D01*
X009705Y003837D02*
X009705Y003813D01*
X009705Y004303D02*
X009705Y004327D01*
X009737Y005105D02*
X009713Y005105D01*
X013018Y006035D02*
X013042Y006035D01*
X013910Y006208D02*
X013910Y006232D01*
X012772Y007225D02*
X012748Y007225D01*
X013905Y009338D02*
X013905Y009362D01*
X009522Y009470D02*
X009498Y009470D01*
X003417Y007175D02*
X003393Y007175D01*
X009243Y001775D02*
X009267Y001775D01*
X008342Y001125D02*
X008318Y001125D01*
X007535Y001318D02*
X007535Y001342D01*
X007535Y000902D02*
X007535Y000878D01*
X006210Y000902D02*
X006210Y000878D01*
X006210Y001318D02*
X006210Y001342D01*
X011898Y001270D02*
X011922Y001270D01*
X012638Y001085D02*
X012662Y001085D01*
X019260Y007788D02*
X019260Y007812D01*
D15*
X018090Y006740D02*
X015330Y006740D01*
X015330Y009360D01*
X015470Y009500D01*
X018090Y009500D01*
X018090Y006740D01*
X015489Y009200D02*
X015491Y009223D01*
X015497Y009246D01*
X015506Y009267D01*
X015519Y009287D01*
X015535Y009304D01*
X015553Y009318D01*
X015573Y009329D01*
X015595Y009337D01*
X015618Y009341D01*
X015642Y009341D01*
X015665Y009337D01*
X015687Y009329D01*
X015707Y009318D01*
X015725Y009304D01*
X015741Y009287D01*
X015754Y009267D01*
X015763Y009246D01*
X015769Y009223D01*
X015771Y009200D01*
X015769Y009177D01*
X015763Y009154D01*
X015754Y009133D01*
X015741Y009113D01*
X015725Y009096D01*
X015707Y009082D01*
X015687Y009071D01*
X015665Y009063D01*
X015642Y009059D01*
X015618Y009059D01*
X015595Y009063D01*
X015573Y009071D01*
X015553Y009082D01*
X015535Y009096D01*
X015519Y009113D01*
X015506Y009133D01*
X015497Y009154D01*
X015491Y009177D01*
X015489Y009200D01*
D16*
X008448Y009910D02*
X008448Y009969D01*
X004629Y009969D01*
X004629Y009910D01*
X004629Y006091D02*
X004629Y005992D01*
X008448Y005992D01*
X008448Y006091D01*
D17*
X007423Y006465D02*
X007425Y006490D01*
X007431Y006514D01*
X007440Y006537D01*
X007453Y006558D01*
X007470Y006577D01*
X007489Y006594D01*
X007510Y006607D01*
X007533Y006616D01*
X007557Y006622D01*
X007582Y006624D01*
X007607Y006622D01*
X007631Y006616D01*
X007654Y006607D01*
X007675Y006594D01*
X007694Y006577D01*
X007711Y006558D01*
X007724Y006537D01*
X007733Y006514D01*
X007739Y006490D01*
X007741Y006465D01*
X007739Y006440D01*
X007733Y006416D01*
X007724Y006393D01*
X007711Y006372D01*
X007694Y006353D01*
X007675Y006336D01*
X007654Y006323D01*
X007631Y006314D01*
X007607Y006308D01*
X007582Y006306D01*
X007557Y006308D01*
X007533Y006314D01*
X007510Y006323D01*
X007489Y006336D01*
X007470Y006353D01*
X007453Y006372D01*
X007440Y006393D01*
X007431Y006416D01*
X007425Y006440D01*
X007423Y006465D01*
X010615Y005166D02*
X012505Y005166D01*
X013608Y005010D02*
X013610Y005023D01*
X013615Y005035D01*
X013624Y005045D01*
X013635Y005052D01*
X013647Y005056D01*
X013661Y005056D01*
X013673Y005052D01*
X013684Y005045D01*
X013693Y005035D01*
X013698Y005023D01*
X013700Y005010D01*
X013698Y004997D01*
X013693Y004985D01*
X013684Y004975D01*
X013673Y004968D01*
X013661Y004964D01*
X013647Y004964D01*
X013635Y004968D01*
X013624Y004975D01*
X013615Y004985D01*
X013610Y004997D01*
X013608Y005010D01*
X013851Y003373D02*
X014639Y003373D01*
X012505Y002174D02*
X010615Y002174D01*
X011615Y002489D02*
X011617Y002512D01*
X011623Y002535D01*
X011632Y002557D01*
X011645Y002576D01*
X011661Y002593D01*
X011679Y002608D01*
X011700Y002619D01*
X011722Y002627D01*
X011745Y002631D01*
X011769Y002631D01*
X011792Y002627D01*
X011814Y002619D01*
X011835Y002608D01*
X011853Y002593D01*
X011869Y002576D01*
X011882Y002557D01*
X011891Y002535D01*
X011897Y002512D01*
X011899Y002489D01*
X011897Y002466D01*
X011891Y002443D01*
X011882Y002421D01*
X011869Y002402D01*
X011853Y002385D01*
X011835Y002370D01*
X011814Y002359D01*
X011792Y002351D01*
X011769Y002347D01*
X011745Y002347D01*
X011722Y002351D01*
X011700Y002359D01*
X011679Y002370D01*
X011661Y002385D01*
X011645Y002402D01*
X011632Y002421D01*
X011623Y002443D01*
X011617Y002466D01*
X011615Y002489D01*
X008557Y002504D02*
X008557Y002268D01*
X008321Y002268D01*
X007219Y002268D02*
X006983Y002268D01*
X006983Y002504D01*
X006983Y003586D02*
X007239Y003842D01*
X008321Y003842D02*
X008557Y003842D01*
X008557Y003606D01*
X013133Y006853D02*
X013290Y006695D01*
X013448Y006695D01*
X013133Y006853D02*
X013133Y008546D01*
X013290Y008703D01*
X013448Y008703D01*
X014314Y008703D02*
X014471Y008703D01*
X014629Y008585D01*
X014629Y006853D01*
X014432Y006695D01*
X014314Y006695D01*
D18*
X002528Y009332D03*
D19*
X003695Y007970D03*
X011310Y006070D03*
X013955Y005525D03*
X015390Y005800D03*
X019250Y006780D03*
X019255Y007285D03*
X019260Y008470D03*
X019265Y008985D03*
X014210Y009830D03*
X014150Y002720D03*
X007505Y001795D03*
D20*
X004560Y001360D02*
X004560Y000860D01*
X004310Y000610D01*
X003810Y000610D01*
X003560Y000860D01*
X003310Y000610D01*
X002810Y000610D01*
X002560Y000860D01*
X002310Y000610D01*
X001810Y000610D01*
X001560Y000860D01*
X001560Y001360D01*
X001810Y001610D01*
X002310Y001610D01*
X002560Y001360D01*
X002810Y001610D01*
X003310Y001610D01*
X003560Y001360D01*
X003810Y001610D01*
X004310Y001610D01*
X004560Y001360D01*
X006989Y005435D02*
X007065Y005551D01*
X007075Y005557D02*
X007167Y005435D01*
X007256Y005557D02*
X007075Y005557D01*
X006894Y005557D01*
X007394Y005562D02*
X007575Y005562D01*
X007667Y005440D01*
X007565Y005556D02*
X007489Y005440D01*
X007575Y005562D02*
X007756Y005562D01*
X009179Y006320D02*
X009255Y006436D01*
X009265Y006442D02*
X009357Y006320D01*
X009446Y006442D02*
X009265Y006442D01*
X009084Y006442D01*
X010779Y008489D02*
X010779Y008776D01*
X010779Y009364D02*
X010779Y009651D01*
X011941Y009651D02*
X011941Y009364D01*
X011941Y008776D02*
X011941Y008489D01*
X018943Y006451D02*
X018943Y006270D01*
X019065Y006362D01*
X018943Y006270D02*
X018943Y006089D01*
X019065Y006184D02*
X018949Y006260D01*
X019054Y003751D02*
X019341Y003751D01*
X018466Y003751D02*
X018179Y003751D01*
X018179Y002589D02*
X018466Y002589D01*
X019054Y002589D02*
X019341Y002589D01*
X018715Y001380D02*
X018215Y001380D01*
X017965Y001130D01*
X017715Y001380D01*
X017215Y001380D01*
X016965Y001130D01*
X016965Y000630D01*
X017215Y000380D01*
X017715Y000380D01*
X017965Y000630D01*
X018215Y000380D01*
X018715Y000380D01*
X018965Y000630D01*
X018965Y001130D01*
X018715Y001380D01*
X016060Y000670D02*
X016060Y002170D01*
X015810Y002420D01*
X015310Y002420D01*
X015060Y002170D01*
X015060Y000670D01*
X015310Y000420D01*
X015810Y000420D01*
X016060Y000670D01*
X015060Y000670D02*
X014810Y000420D01*
X014310Y000420D01*
X014060Y000670D01*
X014060Y002170D01*
X014310Y002420D01*
X014810Y002420D01*
X015060Y002170D01*
X014060Y002170D02*
X013810Y002420D01*
X013310Y002420D01*
X013060Y002170D01*
X013060Y000670D01*
X013310Y000420D01*
X013810Y000420D01*
X014060Y000670D01*
X013810Y000288D02*
X013310Y000288D01*
X002507Y007018D02*
X002113Y007018D01*
D21*
X003245Y008800D03*
X009060Y009470D03*
X009160Y007420D03*
X006445Y004775D03*
X007075Y004585D03*
X007575Y004580D03*
X010775Y001290D03*
X011310Y001270D03*
X009675Y001015D03*
X008800Y001260D03*
X015755Y003415D03*
D22*
X010587Y005483D02*
X010587Y005583D01*
X010562Y005608D01*
X010487Y005608D01*
X010487Y005458D01*
X010562Y005458D01*
X010587Y005483D01*
X010439Y005458D02*
X010339Y005608D01*
X010292Y005608D02*
X010192Y005608D01*
X010242Y005608D02*
X010242Y005458D01*
X010339Y005458D02*
X010439Y005608D01*
X009722Y006727D02*
X009747Y006752D01*
X009747Y006802D01*
X009722Y006827D01*
X009697Y006827D01*
X009672Y006802D01*
X009672Y006777D01*
X009672Y006802D02*
X009647Y006827D01*
X009622Y006827D01*
X009597Y006802D01*
X009597Y006752D01*
X009622Y006727D01*
X009722Y006874D02*
X009722Y006899D01*
X009747Y006899D01*
X009747Y006874D01*
X009722Y006874D01*
X009722Y006948D02*
X009747Y006973D01*
X009747Y007023D01*
X009722Y007048D01*
X009697Y007048D01*
X009672Y007023D01*
X009672Y006998D01*
X009672Y007023D02*
X009647Y007048D01*
X009622Y007048D01*
X009597Y007023D01*
X009597Y006973D01*
X009622Y006948D01*
X009597Y007095D02*
X009697Y007095D01*
X009747Y007145D01*
X009697Y007195D01*
X009597Y007195D01*
X009622Y007243D02*
X009722Y007243D01*
X009747Y007268D01*
X009747Y007318D01*
X009722Y007343D01*
X009672Y007343D01*
X009672Y007293D01*
X009622Y007343D02*
X009597Y007318D01*
X009597Y007268D01*
X009622Y007243D01*
X009597Y007390D02*
X009597Y007465D01*
X009622Y007490D01*
X009672Y007490D01*
X009697Y007465D01*
X009697Y007390D01*
X009747Y007390D02*
X009597Y007390D01*
X009622Y007537D02*
X009647Y007537D01*
X009672Y007562D01*
X009672Y007612D01*
X009697Y007637D01*
X009722Y007637D01*
X009747Y007612D01*
X009747Y007562D01*
X009722Y007537D01*
X009622Y007537D02*
X009597Y007562D01*
X009597Y007612D01*
X009622Y007637D01*
X009082Y008267D02*
X008932Y008267D01*
X008932Y008342D01*
X008957Y008367D01*
X009007Y008367D01*
X009032Y008342D01*
X009032Y008267D01*
X009032Y008317D02*
X009082Y008367D01*
X009082Y008414D02*
X008932Y008514D01*
X008932Y008562D02*
X008932Y008637D01*
X008957Y008662D01*
X009057Y008662D01*
X009082Y008637D01*
X009082Y008562D01*
X008932Y008562D01*
X008932Y008414D02*
X009082Y008514D01*
X012867Y010058D02*
X012892Y010032D01*
X012943Y010032D01*
X012968Y010058D01*
X012968Y010083D01*
X012943Y010108D01*
X012918Y010108D01*
X012943Y010108D02*
X012968Y010133D01*
X012968Y010158D01*
X012943Y010183D01*
X012892Y010183D01*
X012867Y010158D01*
X013015Y010058D02*
X013015Y010032D01*
X013040Y010032D01*
X013040Y010058D01*
X013015Y010058D01*
X013088Y010058D02*
X013113Y010032D01*
X013164Y010032D01*
X013189Y010058D01*
X013189Y010083D01*
X013164Y010108D01*
X013139Y010108D01*
X013164Y010108D02*
X013189Y010133D01*
X013189Y010158D01*
X013164Y010183D01*
X013113Y010183D01*
X013088Y010158D01*
X013236Y010183D02*
X013236Y010083D01*
X013286Y010032D01*
X013336Y010083D01*
X013336Y010183D01*
X015137Y010166D02*
X015288Y010166D01*
X015262Y010069D02*
X015288Y010044D01*
X015288Y009993D01*
X015262Y009968D01*
X015288Y009921D02*
X015237Y009871D01*
X015237Y009896D02*
X015237Y009821D01*
X015288Y009821D02*
X015137Y009821D01*
X015137Y009896D01*
X015162Y009921D01*
X015212Y009921D01*
X015237Y009896D01*
X015187Y009968D02*
X015212Y009993D01*
X015212Y010044D01*
X015237Y010069D01*
X015262Y010069D01*
X015162Y010069D02*
X015137Y010044D01*
X015137Y009993D01*
X015162Y009968D01*
X015187Y009968D01*
X015137Y010116D02*
X015137Y010216D01*
X018142Y010053D02*
X018192Y010103D01*
X018242Y010053D01*
X018242Y009953D01*
X018289Y009953D02*
X018364Y009953D01*
X018389Y009978D01*
X018389Y010078D01*
X018364Y010103D01*
X018289Y010103D01*
X018289Y009953D01*
X018242Y010028D02*
X018142Y010028D01*
X018142Y010053D02*
X018142Y009953D01*
X018437Y009978D02*
X018437Y010078D01*
X018462Y010103D01*
X018512Y010103D01*
X018537Y010078D01*
X018584Y010053D02*
X018634Y010103D01*
X018634Y009953D01*
X018584Y009953D02*
X018684Y009953D01*
X018537Y009978D02*
X018512Y009953D01*
X018462Y009953D01*
X018437Y009978D01*
X018857Y009989D02*
X018857Y009889D01*
X018857Y009939D02*
X019007Y009939D01*
X019007Y009842D02*
X018907Y009842D01*
X018857Y009792D01*
X018907Y009742D01*
X019007Y009742D01*
X018982Y009694D02*
X019007Y009669D01*
X019007Y009594D01*
X018857Y009594D01*
X018857Y009669D01*
X018882Y009694D01*
X018907Y009694D01*
X018932Y009669D01*
X018932Y009594D01*
X018932Y009547D02*
X018932Y009447D01*
X018882Y009497D02*
X018982Y009497D01*
X018932Y009669D02*
X018957Y009694D01*
X018982Y009694D01*
X018932Y009742D02*
X018932Y009842D01*
X019632Y009822D02*
X019632Y009897D01*
X019657Y009922D01*
X019757Y009922D01*
X019782Y009897D01*
X019782Y009822D01*
X019632Y009822D01*
X019632Y009774D02*
X019782Y009774D01*
X019632Y009674D01*
X019782Y009674D01*
X019757Y009627D02*
X019707Y009627D01*
X019707Y009577D01*
X019657Y009627D02*
X019632Y009602D01*
X019632Y009552D01*
X019657Y009527D01*
X019757Y009527D01*
X019782Y009552D01*
X019782Y009602D01*
X019757Y009627D01*
X004198Y007341D02*
X004097Y007341D01*
X004047Y007291D01*
X004097Y007241D01*
X004198Y007241D01*
X004172Y007194D02*
X004072Y007194D01*
X004047Y007169D01*
X004047Y007093D01*
X004198Y007093D01*
X004198Y007169D01*
X004172Y007194D01*
X004122Y007241D02*
X004122Y007341D01*
X004147Y007046D02*
X004172Y007046D01*
X004198Y007021D01*
X004198Y006971D01*
X004172Y006946D01*
X004122Y006971D02*
X004097Y006946D01*
X004072Y006946D01*
X004047Y006971D01*
X004047Y007021D01*
X004072Y007046D01*
X004122Y007021D02*
X004147Y007046D01*
X004122Y007021D02*
X004122Y006971D01*
X004207Y006862D02*
X004207Y006762D01*
X004057Y006762D01*
X004082Y006714D02*
X004057Y006689D01*
X004057Y006639D01*
X004082Y006614D01*
X004182Y006614D01*
X004207Y006639D01*
X004207Y006689D01*
X004182Y006714D01*
X004182Y006567D02*
X004207Y006542D01*
X004207Y006492D01*
X004182Y006467D01*
X004132Y006492D02*
X004132Y006542D01*
X004157Y006567D01*
X004182Y006567D01*
X004132Y006492D02*
X004107Y006467D01*
X004082Y006467D01*
X004057Y006492D01*
X004057Y006542D01*
X004082Y006567D01*
M02*
