G75*
G70*
%OFA0B0*%
%FSLAX24Y24*%
%IPPOS*%
%LPD*%
%AMOC8*
5,1,8,0,0,1.08239X$1,22.5*
%
%ADD10C,0.0000*%
%ADD11C,0.0020*%
%ADD12C,0.0030*%
%ADD13C,0.0060*%
%ADD14C,0.0050*%
%ADD15R,0.0280X0.0160*%
%ADD16C,0.0080*%
%ADD17C,0.0160*%
D10*
X000260Y000270D02*
X000260Y010370D01*
X019910Y010370D01*
X019910Y000270D01*
X000260Y000270D01*
X000734Y001020D02*
X000736Y001053D01*
X000742Y001085D01*
X000751Y001116D01*
X000764Y001146D01*
X000781Y001174D01*
X000801Y001200D01*
X000824Y001224D01*
X000849Y001244D01*
X000877Y001262D01*
X000906Y001276D01*
X000937Y001286D01*
X000969Y001293D01*
X001002Y001296D01*
X001035Y001295D01*
X001067Y001290D01*
X001098Y001281D01*
X001129Y001269D01*
X001157Y001253D01*
X001184Y001234D01*
X001208Y001212D01*
X001229Y001187D01*
X001248Y001160D01*
X001263Y001131D01*
X001274Y001101D01*
X001282Y001069D01*
X001286Y001036D01*
X001286Y001004D01*
X001282Y000971D01*
X001274Y000939D01*
X001263Y000909D01*
X001248Y000880D01*
X001229Y000853D01*
X001208Y000828D01*
X001184Y000806D01*
X001157Y000787D01*
X001129Y000771D01*
X001098Y000759D01*
X001067Y000750D01*
X001035Y000745D01*
X001002Y000744D01*
X000969Y000747D01*
X000937Y000754D01*
X000906Y000764D01*
X000877Y000778D01*
X000849Y000796D01*
X000824Y000816D01*
X000801Y000840D01*
X000781Y000866D01*
X000764Y000894D01*
X000751Y000924D01*
X000742Y000955D01*
X000736Y000987D01*
X000734Y001020D01*
X000734Y002370D02*
X000736Y002403D01*
X000742Y002435D01*
X000751Y002466D01*
X000764Y002496D01*
X000781Y002524D01*
X000801Y002550D01*
X000824Y002574D01*
X000849Y002594D01*
X000877Y002612D01*
X000906Y002626D01*
X000937Y002636D01*
X000969Y002643D01*
X001002Y002646D01*
X001035Y002645D01*
X001067Y002640D01*
X001098Y002631D01*
X001129Y002619D01*
X001157Y002603D01*
X001184Y002584D01*
X001208Y002562D01*
X001229Y002537D01*
X001248Y002510D01*
X001263Y002481D01*
X001274Y002451D01*
X001282Y002419D01*
X001286Y002386D01*
X001286Y002354D01*
X001282Y002321D01*
X001274Y002289D01*
X001263Y002259D01*
X001248Y002230D01*
X001229Y002203D01*
X001208Y002178D01*
X001184Y002156D01*
X001157Y002137D01*
X001129Y002121D01*
X001098Y002109D01*
X001067Y002100D01*
X001035Y002095D01*
X001002Y002094D01*
X000969Y002097D01*
X000937Y002104D01*
X000906Y002114D01*
X000877Y002128D01*
X000849Y002146D01*
X000824Y002166D01*
X000801Y002190D01*
X000781Y002216D01*
X000764Y002244D01*
X000751Y002274D01*
X000742Y002305D01*
X000736Y002337D01*
X000734Y002370D01*
X000734Y003200D02*
X000736Y003233D01*
X000742Y003265D01*
X000751Y003296D01*
X000764Y003326D01*
X000781Y003354D01*
X000801Y003380D01*
X000824Y003404D01*
X000849Y003424D01*
X000877Y003442D01*
X000906Y003456D01*
X000937Y003466D01*
X000969Y003473D01*
X001002Y003476D01*
X001035Y003475D01*
X001067Y003470D01*
X001098Y003461D01*
X001129Y003449D01*
X001157Y003433D01*
X001184Y003414D01*
X001208Y003392D01*
X001229Y003367D01*
X001248Y003340D01*
X001263Y003311D01*
X001274Y003281D01*
X001282Y003249D01*
X001286Y003216D01*
X001286Y003184D01*
X001282Y003151D01*
X001274Y003119D01*
X001263Y003089D01*
X001248Y003060D01*
X001229Y003033D01*
X001208Y003008D01*
X001184Y002986D01*
X001157Y002967D01*
X001129Y002951D01*
X001098Y002939D01*
X001067Y002930D01*
X001035Y002925D01*
X001002Y002924D01*
X000969Y002927D01*
X000937Y002934D01*
X000906Y002944D01*
X000877Y002958D01*
X000849Y002976D01*
X000824Y002996D01*
X000801Y003020D01*
X000781Y003046D01*
X000764Y003074D01*
X000751Y003104D01*
X000742Y003135D01*
X000736Y003167D01*
X000734Y003200D01*
X000734Y007570D02*
X000736Y007603D01*
X000742Y007635D01*
X000751Y007666D01*
X000764Y007696D01*
X000781Y007724D01*
X000801Y007750D01*
X000824Y007774D01*
X000849Y007794D01*
X000877Y007812D01*
X000906Y007826D01*
X000937Y007836D01*
X000969Y007843D01*
X001002Y007846D01*
X001035Y007845D01*
X001067Y007840D01*
X001098Y007831D01*
X001129Y007819D01*
X001157Y007803D01*
X001184Y007784D01*
X001208Y007762D01*
X001229Y007737D01*
X001248Y007710D01*
X001263Y007681D01*
X001274Y007651D01*
X001282Y007619D01*
X001286Y007586D01*
X001286Y007554D01*
X001282Y007521D01*
X001274Y007489D01*
X001263Y007459D01*
X001248Y007430D01*
X001229Y007403D01*
X001208Y007378D01*
X001184Y007356D01*
X001157Y007337D01*
X001129Y007321D01*
X001098Y007309D01*
X001067Y007300D01*
X001035Y007295D01*
X001002Y007294D01*
X000969Y007297D01*
X000937Y007304D01*
X000906Y007314D01*
X000877Y007328D01*
X000849Y007346D01*
X000824Y007366D01*
X000801Y007390D01*
X000781Y007416D01*
X000764Y007444D01*
X000751Y007474D01*
X000742Y007505D01*
X000736Y007537D01*
X000734Y007570D01*
X000734Y008420D02*
X000736Y008453D01*
X000742Y008485D01*
X000751Y008516D01*
X000764Y008546D01*
X000781Y008574D01*
X000801Y008600D01*
X000824Y008624D01*
X000849Y008644D01*
X000877Y008662D01*
X000906Y008676D01*
X000937Y008686D01*
X000969Y008693D01*
X001002Y008696D01*
X001035Y008695D01*
X001067Y008690D01*
X001098Y008681D01*
X001129Y008669D01*
X001157Y008653D01*
X001184Y008634D01*
X001208Y008612D01*
X001229Y008587D01*
X001248Y008560D01*
X001263Y008531D01*
X001274Y008501D01*
X001282Y008469D01*
X001286Y008436D01*
X001286Y008404D01*
X001282Y008371D01*
X001274Y008339D01*
X001263Y008309D01*
X001248Y008280D01*
X001229Y008253D01*
X001208Y008228D01*
X001184Y008206D01*
X001157Y008187D01*
X001129Y008171D01*
X001098Y008159D01*
X001067Y008150D01*
X001035Y008145D01*
X001002Y008144D01*
X000969Y008147D01*
X000937Y008154D01*
X000906Y008164D01*
X000877Y008178D01*
X000849Y008196D01*
X000824Y008216D01*
X000801Y008240D01*
X000781Y008266D01*
X000764Y008294D01*
X000751Y008324D01*
X000742Y008355D01*
X000736Y008387D01*
X000734Y008420D01*
X000734Y009920D02*
X000736Y009953D01*
X000742Y009985D01*
X000751Y010016D01*
X000764Y010046D01*
X000781Y010074D01*
X000801Y010100D01*
X000824Y010124D01*
X000849Y010144D01*
X000877Y010162D01*
X000906Y010176D01*
X000937Y010186D01*
X000969Y010193D01*
X001002Y010196D01*
X001035Y010195D01*
X001067Y010190D01*
X001098Y010181D01*
X001129Y010169D01*
X001157Y010153D01*
X001184Y010134D01*
X001208Y010112D01*
X001229Y010087D01*
X001248Y010060D01*
X001263Y010031D01*
X001274Y010001D01*
X001282Y009969D01*
X001286Y009936D01*
X001286Y009904D01*
X001282Y009871D01*
X001274Y009839D01*
X001263Y009809D01*
X001248Y009780D01*
X001229Y009753D01*
X001208Y009728D01*
X001184Y009706D01*
X001157Y009687D01*
X001129Y009671D01*
X001098Y009659D01*
X001067Y009650D01*
X001035Y009645D01*
X001002Y009644D01*
X000969Y009647D01*
X000937Y009654D01*
X000906Y009664D01*
X000877Y009678D01*
X000849Y009696D01*
X000824Y009716D01*
X000801Y009740D01*
X000781Y009766D01*
X000764Y009794D01*
X000751Y009824D01*
X000742Y009855D01*
X000736Y009887D01*
X000734Y009920D01*
D11*
X004585Y009706D02*
X004622Y009669D01*
X004768Y009669D01*
X004732Y009633D02*
X004732Y009706D01*
X004695Y009559D02*
X004658Y009559D01*
X004658Y009412D01*
X004622Y009412D02*
X004695Y009412D01*
X004732Y009448D01*
X004732Y009522D01*
X004695Y009559D01*
X004585Y009522D02*
X004585Y009448D01*
X004622Y009412D01*
X004585Y009338D02*
X004695Y009338D01*
X004732Y009301D01*
X004732Y009191D01*
X004585Y009191D01*
X004585Y009117D02*
X004585Y009080D01*
X004622Y009080D01*
X004622Y009117D01*
X004585Y009117D01*
X004585Y009006D02*
X004695Y009006D01*
X004732Y008969D01*
X004732Y008859D01*
X004585Y008859D01*
X004585Y008785D02*
X004695Y008785D01*
X004732Y008748D01*
X004732Y008675D01*
X004695Y008638D01*
X004695Y008564D02*
X004585Y008564D01*
X004585Y008454D01*
X004622Y008417D01*
X004658Y008454D01*
X004658Y008564D01*
X004695Y008564D02*
X004732Y008527D01*
X004732Y008454D01*
X004732Y008343D02*
X004732Y008307D01*
X004658Y008233D01*
X004585Y008233D02*
X004732Y008233D01*
X004732Y008159D02*
X004658Y008049D01*
X004585Y008159D01*
X004585Y008049D02*
X004805Y008049D01*
X004732Y007975D02*
X004732Y007902D01*
X004768Y007938D02*
X004622Y007938D01*
X004585Y007975D01*
X004805Y007827D02*
X004585Y007681D01*
X004585Y007460D02*
X004805Y007606D01*
X004732Y007386D02*
X004695Y007386D01*
X004695Y007349D01*
X004732Y007349D01*
X004732Y007386D01*
X004622Y007386D02*
X004622Y007349D01*
X004585Y007349D01*
X004585Y007386D01*
X004622Y007386D01*
X004622Y007275D02*
X004585Y007238D01*
X004585Y007128D01*
X004512Y007128D02*
X004732Y007128D01*
X004732Y007238D01*
X004695Y007275D01*
X004622Y007275D01*
X004585Y007054D02*
X004622Y007018D01*
X004768Y007018D01*
X004732Y007054D02*
X004732Y006981D01*
X004732Y006907D02*
X004732Y006834D01*
X004768Y006870D02*
X004622Y006870D01*
X004585Y006907D01*
X004585Y006759D02*
X004695Y006759D01*
X004732Y006723D01*
X004732Y006649D01*
X004695Y006613D01*
X004805Y006613D02*
X004585Y006613D01*
X005565Y007364D02*
X005602Y007328D01*
X005565Y007364D02*
X005565Y007438D01*
X005602Y007475D01*
X005638Y007475D01*
X005675Y007438D01*
X005675Y007364D01*
X005712Y007328D01*
X005748Y007328D01*
X005785Y007364D01*
X005785Y007438D01*
X005748Y007475D01*
X005785Y007549D02*
X005565Y007549D01*
X005565Y007696D01*
X005565Y007770D02*
X005785Y007770D01*
X005785Y007880D01*
X005748Y007916D01*
X005675Y007916D01*
X005638Y007880D01*
X005638Y007770D01*
X005638Y007843D02*
X005565Y007916D01*
X005565Y007991D02*
X005565Y008064D01*
X005565Y008027D02*
X005785Y008027D01*
X005785Y007991D02*
X005785Y008064D01*
X005712Y008138D02*
X005565Y008138D01*
X005675Y008138D02*
X005675Y008285D01*
X005712Y008285D02*
X005565Y008285D01*
X005565Y008359D02*
X005565Y008506D01*
X005565Y008359D02*
X005785Y008359D01*
X005712Y008285D02*
X005785Y008211D01*
X005712Y008138D01*
X006090Y008106D02*
X006310Y007959D01*
X006273Y007885D02*
X006200Y007885D01*
X006163Y007848D01*
X006163Y007738D01*
X006090Y007738D02*
X006310Y007738D01*
X006310Y007848D01*
X006273Y007885D01*
X006163Y007811D02*
X006090Y007885D01*
X006090Y007959D02*
X006310Y008106D01*
X005785Y007696D02*
X005785Y007549D01*
X005675Y007549D02*
X005675Y007622D01*
X006090Y007086D02*
X006310Y006939D01*
X006310Y006865D02*
X006310Y006718D01*
X006310Y006791D02*
X006090Y006791D01*
X006090Y006939D02*
X006310Y007086D01*
X004805Y008638D02*
X004585Y008638D01*
X006090Y008714D02*
X006090Y008787D01*
X006127Y008824D01*
X006200Y008824D01*
X006200Y008750D01*
X006127Y008677D02*
X006090Y008714D01*
X006127Y008677D02*
X006273Y008677D01*
X006310Y008714D01*
X006310Y008787D01*
X006273Y008824D01*
X006310Y008898D02*
X006090Y008898D01*
X006090Y009045D02*
X006310Y009045D01*
X006310Y009119D02*
X006090Y009119D01*
X006090Y009229D01*
X006127Y009266D01*
X006273Y009266D01*
X006310Y009229D01*
X006310Y009119D01*
X006310Y008898D02*
X006090Y009045D01*
X009554Y008355D02*
X009554Y008319D01*
X009701Y008172D01*
X009701Y008135D01*
X009775Y008172D02*
X009775Y008319D01*
X009922Y008172D01*
X009885Y008135D01*
X009812Y008135D01*
X009775Y008172D01*
X009775Y008319D02*
X009812Y008355D01*
X009885Y008355D01*
X009922Y008319D01*
X009922Y008172D01*
X009996Y008245D02*
X010143Y008245D01*
X010217Y008319D02*
X010364Y008172D01*
X010364Y008135D01*
X010438Y008172D02*
X010475Y008135D01*
X010548Y008135D01*
X010585Y008172D01*
X010438Y008319D01*
X010438Y008172D01*
X010438Y008319D02*
X010475Y008355D01*
X010548Y008355D01*
X010585Y008319D01*
X010585Y008172D01*
X010659Y008245D02*
X010806Y008245D01*
X010880Y008208D02*
X010917Y008245D01*
X010954Y008245D01*
X010917Y008245D02*
X010880Y008282D01*
X010880Y008319D01*
X010917Y008355D01*
X010990Y008355D01*
X011027Y008319D01*
X011027Y008172D02*
X010990Y008135D01*
X010917Y008135D01*
X010880Y008172D01*
X010880Y008208D01*
X011101Y008135D02*
X011248Y008135D01*
X011175Y008135D02*
X011175Y008355D01*
X011248Y008282D01*
X011322Y008319D02*
X011469Y008172D01*
X011432Y008135D01*
X011359Y008135D01*
X011322Y008172D01*
X011322Y008319D01*
X011359Y008355D01*
X011432Y008355D01*
X011469Y008319D01*
X011469Y008172D01*
X011543Y008135D02*
X011690Y008135D01*
X011543Y008282D01*
X011543Y008319D01*
X011580Y008355D01*
X011653Y008355D01*
X011690Y008319D01*
X010364Y008355D02*
X010217Y008355D01*
X010217Y008319D01*
X009701Y008355D02*
X009554Y008355D01*
X016338Y000880D02*
X016448Y000880D01*
X016448Y000660D01*
X016338Y000660D01*
X016301Y000697D01*
X016301Y000843D01*
X016338Y000880D01*
X016522Y000880D02*
X016522Y000660D01*
X016669Y000880D01*
X016669Y000660D01*
X016743Y000697D02*
X016743Y000770D01*
X016817Y000770D01*
X016890Y000843D02*
X016890Y000697D01*
X016853Y000660D01*
X016780Y000660D01*
X016743Y000697D01*
X016743Y000843D02*
X016780Y000880D01*
X016853Y000880D01*
X016890Y000843D01*
D12*
X019178Y000930D02*
X019425Y000930D01*
X019302Y000807D02*
X019302Y001054D01*
X011565Y003240D02*
X011372Y003240D01*
X011468Y003240D02*
X011468Y003530D01*
X011565Y003434D01*
X005165Y003900D02*
X004972Y003900D01*
X005068Y003900D02*
X005068Y004190D01*
X005165Y004094D01*
X008949Y008830D02*
X008901Y008878D01*
X008901Y008975D01*
X008949Y009024D01*
X009046Y009024D01*
X009094Y008975D01*
X009094Y008878D01*
X009046Y008830D01*
X008949Y008830D01*
X009196Y008830D02*
X009341Y008830D01*
X009389Y008878D01*
X009389Y008975D01*
X009341Y009024D01*
X009196Y009024D01*
X009537Y009024D02*
X009537Y008830D01*
X009585Y008830D02*
X009489Y008830D01*
X009687Y008975D02*
X009735Y008927D01*
X009880Y008927D01*
X009880Y008830D02*
X009880Y009120D01*
X009735Y009120D01*
X009687Y009072D01*
X009687Y008975D01*
X009585Y009024D02*
X009537Y009024D01*
X009537Y009120D02*
X009537Y009169D01*
X009552Y009465D02*
X009455Y009465D01*
X009552Y009465D02*
X009600Y009513D01*
X009600Y009610D01*
X009552Y009659D01*
X009455Y009659D01*
X009407Y009610D01*
X009407Y009562D01*
X009600Y009562D01*
X009702Y009610D02*
X009750Y009562D01*
X009895Y009562D01*
X009895Y009465D02*
X009895Y009755D01*
X009750Y009755D01*
X009702Y009707D01*
X009702Y009610D01*
X009306Y009610D02*
X009306Y009513D01*
X009257Y009465D01*
X009112Y009465D01*
X009011Y009513D02*
X008963Y009562D01*
X008818Y009562D01*
X008818Y009610D02*
X008818Y009465D01*
X008963Y009465D01*
X009011Y009513D01*
X008866Y009659D02*
X008818Y009610D01*
X008866Y009659D02*
X008963Y009659D01*
X009112Y009659D02*
X009257Y009659D01*
X009306Y009610D01*
X008716Y009659D02*
X008716Y009465D01*
X008523Y009465D02*
X008523Y009610D01*
X008571Y009659D01*
X008716Y009659D01*
X007410Y009640D02*
X007410Y009930D01*
X007362Y009785D02*
X007217Y009640D01*
X007019Y009640D02*
X007019Y009930D01*
X007115Y009930D02*
X006922Y009930D01*
X006821Y009930D02*
X006821Y009785D01*
X006724Y009834D01*
X006676Y009834D01*
X006627Y009785D01*
X006627Y009688D01*
X006676Y009640D01*
X006772Y009640D01*
X006821Y009688D01*
X006821Y009930D02*
X006627Y009930D01*
X006526Y009930D02*
X006333Y009930D01*
X006429Y009930D02*
X006429Y009640D01*
X006231Y009640D02*
X006231Y009930D01*
X006183Y009785D02*
X006038Y009640D01*
X006231Y009737D02*
X006038Y009930D01*
X007217Y009930D02*
X007410Y009737D01*
X003355Y009855D02*
X003355Y010225D01*
X003355Y009979D02*
X003108Y010225D01*
X002987Y010225D02*
X002740Y010225D01*
X002618Y010225D02*
X002618Y010040D01*
X002495Y010102D01*
X002433Y010102D01*
X002372Y010040D01*
X002372Y009917D01*
X002433Y009855D01*
X002557Y009855D01*
X002618Y009917D01*
X002863Y009855D02*
X002863Y010225D01*
X002618Y010225D02*
X002372Y010225D01*
X002250Y010225D02*
X002003Y010225D01*
X001882Y010225D02*
X001882Y009855D01*
X001882Y009979D02*
X001635Y010225D01*
X001820Y010040D02*
X001635Y009855D01*
X002127Y009855D02*
X002127Y010225D01*
X003108Y009855D02*
X003293Y010040D01*
D13*
X008193Y008880D02*
X008620Y008880D01*
X008300Y009201D01*
X008300Y008560D01*
X006790Y006155D02*
X005370Y006155D01*
X005370Y004295D02*
X006790Y004295D01*
D14*
X011676Y004269D02*
X011676Y004387D01*
X011794Y004387D01*
X012346Y004387D02*
X012464Y004387D01*
X012464Y004269D01*
X012464Y003561D02*
X012464Y003443D01*
X012346Y003443D01*
X012149Y003443D02*
X012070Y003521D01*
X011991Y003443D01*
X011794Y003443D02*
X011676Y003443D01*
X011676Y003561D01*
X013963Y005613D02*
X013963Y005928D01*
X013963Y005613D02*
X014278Y005613D01*
X018372Y005613D02*
X018687Y005613D01*
X018687Y005928D01*
X018687Y010022D02*
X018687Y010337D01*
X018372Y010337D01*
X014278Y010337D02*
X013963Y010337D01*
X013963Y010022D01*
D15*
X019015Y008660D03*
X011245Y003490D03*
D16*
X005633Y004515D02*
X005635Y004530D01*
X005641Y004543D01*
X005650Y004555D01*
X005661Y004564D01*
X005675Y004570D01*
X005690Y004572D01*
X005705Y004570D01*
X005718Y004564D01*
X005730Y004555D01*
X005739Y004544D01*
X005745Y004530D01*
X005747Y004515D01*
X005745Y004500D01*
X005739Y004487D01*
X005730Y004475D01*
X005719Y004466D01*
X005705Y004460D01*
X005690Y004458D01*
X005675Y004460D01*
X005662Y004466D01*
X005650Y004475D01*
X005641Y004486D01*
X005635Y004500D01*
X005633Y004515D01*
X004455Y004739D02*
X003825Y004739D01*
X003805Y004721D02*
X004435Y004721D01*
X004455Y004738D02*
X004471Y004733D01*
X004487Y004725D01*
X004501Y004715D01*
X004513Y004703D01*
X004523Y004688D01*
X004530Y004672D01*
X004534Y004655D01*
X004535Y004638D01*
X004533Y004620D01*
X004435Y004722D02*
X004451Y004727D01*
X004467Y004735D01*
X004481Y004745D01*
X004493Y004757D01*
X004503Y004772D01*
X004510Y004788D01*
X004514Y004805D01*
X004515Y004822D01*
X004513Y004840D01*
X003805Y004722D02*
X003789Y004727D01*
X003773Y004735D01*
X003759Y004745D01*
X003747Y004757D01*
X003737Y004772D01*
X003730Y004788D01*
X003726Y004805D01*
X003725Y004822D01*
X003727Y004840D01*
X003825Y004738D02*
X003809Y004733D01*
X003793Y004725D01*
X003779Y004715D01*
X003767Y004703D01*
X003757Y004688D01*
X003750Y004672D01*
X003746Y004655D01*
X003745Y004638D01*
X003747Y004620D01*
X003747Y004070D02*
X003745Y004052D01*
X003746Y004035D01*
X003750Y004018D01*
X003757Y004002D01*
X003767Y003987D01*
X003779Y003975D01*
X003793Y003965D01*
X003809Y003957D01*
X003825Y003952D01*
X003825Y003951D02*
X004455Y003951D01*
X004455Y003952D02*
X004471Y003957D01*
X004487Y003965D01*
X004501Y003975D01*
X004513Y003987D01*
X004523Y004002D01*
X004530Y004018D01*
X004534Y004035D01*
X004535Y004052D01*
X004533Y004070D01*
X004513Y005390D02*
X004515Y005408D01*
X004514Y005425D01*
X004510Y005442D01*
X004503Y005458D01*
X004493Y005473D01*
X004481Y005485D01*
X004467Y005495D01*
X004451Y005503D01*
X004435Y005508D01*
X004435Y005509D02*
X003805Y005509D01*
X003815Y005506D02*
X004445Y005506D01*
X004445Y005507D02*
X004461Y005512D01*
X004477Y005520D01*
X004491Y005530D01*
X004503Y005542D01*
X004513Y005557D01*
X004520Y005573D01*
X004524Y005590D01*
X004525Y005607D01*
X004523Y005625D01*
X003815Y005507D02*
X003799Y005512D01*
X003783Y005520D01*
X003769Y005530D01*
X003757Y005542D01*
X003747Y005557D01*
X003740Y005573D01*
X003736Y005590D01*
X003735Y005607D01*
X003737Y005625D01*
X003805Y005508D02*
X003789Y005503D01*
X003773Y005495D01*
X003759Y005485D01*
X003747Y005473D01*
X003737Y005458D01*
X003730Y005442D01*
X003726Y005425D01*
X003725Y005408D01*
X003727Y005390D01*
X003737Y006175D02*
X003735Y006193D01*
X003736Y006210D01*
X003740Y006227D01*
X003747Y006243D01*
X003757Y006258D01*
X003769Y006270D01*
X003783Y006280D01*
X003799Y006288D01*
X003815Y006293D01*
X003815Y006294D02*
X004445Y006294D01*
X004445Y006293D02*
X004461Y006288D01*
X004477Y006280D01*
X004491Y006270D01*
X004503Y006258D01*
X004513Y006243D01*
X004520Y006227D01*
X004524Y006210D01*
X004525Y006193D01*
X004523Y006175D01*
X006480Y006710D02*
X006480Y007210D01*
X006730Y007460D01*
X006480Y007710D01*
X006480Y008210D01*
X006730Y008460D01*
X006480Y008710D01*
X006480Y009210D01*
X006730Y009460D01*
X007230Y009460D01*
X007480Y009210D01*
X007480Y008710D01*
X007230Y008460D01*
X007480Y008210D01*
X007480Y007710D01*
X007230Y007460D01*
X007480Y007210D01*
X007480Y006710D01*
X007230Y006460D01*
X006730Y006460D01*
X006480Y006710D01*
D17*
X006165Y003807D02*
X006165Y003783D01*
X005285Y003402D02*
X005285Y003378D01*
M02*
