G75*
G70*
%OFA0B0*%
%FSLAX24Y24*%
%IPPOS*%
%LPD*%
%AMOC8*
5,1,8,0,0,1.08239X$1,22.5*
%
%ADD10C,0.0000*%
%ADD11C,0.0591*%
%ADD12R,0.0394X0.0316*%
%ADD13R,0.0316X0.0394*%
%ADD14R,0.0540X0.0260*%
%ADD15R,0.0260X0.0540*%
%ADD16R,0.0749X0.0355*%
%ADD17R,0.0749X0.0316*%
%ADD18R,0.0434X0.0827*%
%ADD19OC8,0.0780*%
%ADD20R,0.0434X0.0473*%
%ADD21R,0.0355X0.0355*%
%ADD22R,0.0453X0.0906*%
%ADD23R,0.0434X0.0453*%
%ADD24C,0.0780*%
%ADD25C,0.0138*%
%ADD26R,0.0118X0.0236*%
%ADD27R,0.0669X0.0965*%
%ADD28R,0.0299X0.0138*%
%ADD29R,0.1540X0.0800*%
%ADD30R,0.0749X0.0670*%
%ADD31R,0.0670X0.0749*%
%ADD32R,0.0236X0.0118*%
%ADD33R,0.0965X0.0669*%
%ADD34R,0.0138X0.0299*%
%ADD35R,0.0800X0.1540*%
%ADD36R,0.0740X0.0740*%
%ADD37R,0.0490X0.0490*%
%ADD38R,0.0740X0.0320*%
%ADD39R,0.0600X0.0390*%
%ADD40R,0.0827X0.0552*%
%ADD41R,0.0316X0.0138*%
%ADD42R,0.0138X0.0316*%
%ADD43R,0.1064X0.1064*%
%ADD44R,0.0473X0.0434*%
%ADD45R,0.1640X0.0640*%
%ADD46R,0.0237X0.0355*%
%ADD47C,0.0276*%
%ADD48R,0.0237X0.0276*%
%ADD49R,0.0276X0.0237*%
D10*
X000260Y000270D02*
X000260Y010370D01*
X019910Y010370D01*
X019910Y000270D01*
X000260Y000270D01*
X000734Y001020D02*
X000736Y001053D01*
X000742Y001085D01*
X000751Y001116D01*
X000764Y001146D01*
X000781Y001174D01*
X000801Y001200D01*
X000824Y001224D01*
X000849Y001244D01*
X000877Y001262D01*
X000906Y001276D01*
X000937Y001286D01*
X000969Y001293D01*
X001002Y001296D01*
X001035Y001295D01*
X001067Y001290D01*
X001098Y001281D01*
X001129Y001269D01*
X001157Y001253D01*
X001184Y001234D01*
X001208Y001212D01*
X001229Y001187D01*
X001248Y001160D01*
X001263Y001131D01*
X001274Y001101D01*
X001282Y001069D01*
X001286Y001036D01*
X001286Y001004D01*
X001282Y000971D01*
X001274Y000939D01*
X001263Y000909D01*
X001248Y000880D01*
X001229Y000853D01*
X001208Y000828D01*
X001184Y000806D01*
X001157Y000787D01*
X001129Y000771D01*
X001098Y000759D01*
X001067Y000750D01*
X001035Y000745D01*
X001002Y000744D01*
X000969Y000747D01*
X000937Y000754D01*
X000906Y000764D01*
X000877Y000778D01*
X000849Y000796D01*
X000824Y000816D01*
X000801Y000840D01*
X000781Y000866D01*
X000764Y000894D01*
X000751Y000924D01*
X000742Y000955D01*
X000736Y000987D01*
X000734Y001020D01*
X000734Y002370D02*
X000736Y002403D01*
X000742Y002435D01*
X000751Y002466D01*
X000764Y002496D01*
X000781Y002524D01*
X000801Y002550D01*
X000824Y002574D01*
X000849Y002594D01*
X000877Y002612D01*
X000906Y002626D01*
X000937Y002636D01*
X000969Y002643D01*
X001002Y002646D01*
X001035Y002645D01*
X001067Y002640D01*
X001098Y002631D01*
X001129Y002619D01*
X001157Y002603D01*
X001184Y002584D01*
X001208Y002562D01*
X001229Y002537D01*
X001248Y002510D01*
X001263Y002481D01*
X001274Y002451D01*
X001282Y002419D01*
X001286Y002386D01*
X001286Y002354D01*
X001282Y002321D01*
X001274Y002289D01*
X001263Y002259D01*
X001248Y002230D01*
X001229Y002203D01*
X001208Y002178D01*
X001184Y002156D01*
X001157Y002137D01*
X001129Y002121D01*
X001098Y002109D01*
X001067Y002100D01*
X001035Y002095D01*
X001002Y002094D01*
X000969Y002097D01*
X000937Y002104D01*
X000906Y002114D01*
X000877Y002128D01*
X000849Y002146D01*
X000824Y002166D01*
X000801Y002190D01*
X000781Y002216D01*
X000764Y002244D01*
X000751Y002274D01*
X000742Y002305D01*
X000736Y002337D01*
X000734Y002370D01*
X000734Y003200D02*
X000736Y003233D01*
X000742Y003265D01*
X000751Y003296D01*
X000764Y003326D01*
X000781Y003354D01*
X000801Y003380D01*
X000824Y003404D01*
X000849Y003424D01*
X000877Y003442D01*
X000906Y003456D01*
X000937Y003466D01*
X000969Y003473D01*
X001002Y003476D01*
X001035Y003475D01*
X001067Y003470D01*
X001098Y003461D01*
X001129Y003449D01*
X001157Y003433D01*
X001184Y003414D01*
X001208Y003392D01*
X001229Y003367D01*
X001248Y003340D01*
X001263Y003311D01*
X001274Y003281D01*
X001282Y003249D01*
X001286Y003216D01*
X001286Y003184D01*
X001282Y003151D01*
X001274Y003119D01*
X001263Y003089D01*
X001248Y003060D01*
X001229Y003033D01*
X001208Y003008D01*
X001184Y002986D01*
X001157Y002967D01*
X001129Y002951D01*
X001098Y002939D01*
X001067Y002930D01*
X001035Y002925D01*
X001002Y002924D01*
X000969Y002927D01*
X000937Y002934D01*
X000906Y002944D01*
X000877Y002958D01*
X000849Y002976D01*
X000824Y002996D01*
X000801Y003020D01*
X000781Y003046D01*
X000764Y003074D01*
X000751Y003104D01*
X000742Y003135D01*
X000736Y003167D01*
X000734Y003200D01*
X000734Y007570D02*
X000736Y007603D01*
X000742Y007635D01*
X000751Y007666D01*
X000764Y007696D01*
X000781Y007724D01*
X000801Y007750D01*
X000824Y007774D01*
X000849Y007794D01*
X000877Y007812D01*
X000906Y007826D01*
X000937Y007836D01*
X000969Y007843D01*
X001002Y007846D01*
X001035Y007845D01*
X001067Y007840D01*
X001098Y007831D01*
X001129Y007819D01*
X001157Y007803D01*
X001184Y007784D01*
X001208Y007762D01*
X001229Y007737D01*
X001248Y007710D01*
X001263Y007681D01*
X001274Y007651D01*
X001282Y007619D01*
X001286Y007586D01*
X001286Y007554D01*
X001282Y007521D01*
X001274Y007489D01*
X001263Y007459D01*
X001248Y007430D01*
X001229Y007403D01*
X001208Y007378D01*
X001184Y007356D01*
X001157Y007337D01*
X001129Y007321D01*
X001098Y007309D01*
X001067Y007300D01*
X001035Y007295D01*
X001002Y007294D01*
X000969Y007297D01*
X000937Y007304D01*
X000906Y007314D01*
X000877Y007328D01*
X000849Y007346D01*
X000824Y007366D01*
X000801Y007390D01*
X000781Y007416D01*
X000764Y007444D01*
X000751Y007474D01*
X000742Y007505D01*
X000736Y007537D01*
X000734Y007570D01*
X000734Y008420D02*
X000736Y008453D01*
X000742Y008485D01*
X000751Y008516D01*
X000764Y008546D01*
X000781Y008574D01*
X000801Y008600D01*
X000824Y008624D01*
X000849Y008644D01*
X000877Y008662D01*
X000906Y008676D01*
X000937Y008686D01*
X000969Y008693D01*
X001002Y008696D01*
X001035Y008695D01*
X001067Y008690D01*
X001098Y008681D01*
X001129Y008669D01*
X001157Y008653D01*
X001184Y008634D01*
X001208Y008612D01*
X001229Y008587D01*
X001248Y008560D01*
X001263Y008531D01*
X001274Y008501D01*
X001282Y008469D01*
X001286Y008436D01*
X001286Y008404D01*
X001282Y008371D01*
X001274Y008339D01*
X001263Y008309D01*
X001248Y008280D01*
X001229Y008253D01*
X001208Y008228D01*
X001184Y008206D01*
X001157Y008187D01*
X001129Y008171D01*
X001098Y008159D01*
X001067Y008150D01*
X001035Y008145D01*
X001002Y008144D01*
X000969Y008147D01*
X000937Y008154D01*
X000906Y008164D01*
X000877Y008178D01*
X000849Y008196D01*
X000824Y008216D01*
X000801Y008240D01*
X000781Y008266D01*
X000764Y008294D01*
X000751Y008324D01*
X000742Y008355D01*
X000736Y008387D01*
X000734Y008420D01*
X000734Y009920D02*
X000736Y009953D01*
X000742Y009985D01*
X000751Y010016D01*
X000764Y010046D01*
X000781Y010074D01*
X000801Y010100D01*
X000824Y010124D01*
X000849Y010144D01*
X000877Y010162D01*
X000906Y010176D01*
X000937Y010186D01*
X000969Y010193D01*
X001002Y010196D01*
X001035Y010195D01*
X001067Y010190D01*
X001098Y010181D01*
X001129Y010169D01*
X001157Y010153D01*
X001184Y010134D01*
X001208Y010112D01*
X001229Y010087D01*
X001248Y010060D01*
X001263Y010031D01*
X001274Y010001D01*
X001282Y009969D01*
X001286Y009936D01*
X001286Y009904D01*
X001282Y009871D01*
X001274Y009839D01*
X001263Y009809D01*
X001248Y009780D01*
X001229Y009753D01*
X001208Y009728D01*
X001184Y009706D01*
X001157Y009687D01*
X001129Y009671D01*
X001098Y009659D01*
X001067Y009650D01*
X001035Y009645D01*
X001002Y009644D01*
X000969Y009647D01*
X000937Y009654D01*
X000906Y009664D01*
X000877Y009678D01*
X000849Y009696D01*
X000824Y009716D01*
X000801Y009740D01*
X000781Y009766D01*
X000764Y009794D01*
X000751Y009824D01*
X000742Y009855D01*
X000736Y009887D01*
X000734Y009920D01*
D11*
X001010Y009920D03*
X001010Y008420D03*
X001010Y007570D03*
X001010Y003200D03*
X001010Y002370D03*
X001010Y001020D03*
D12*
X002845Y002179D03*
X002845Y002691D03*
X003925Y004104D03*
X003925Y004616D03*
X005735Y003371D03*
X005735Y002859D03*
X007075Y004329D03*
X007575Y004324D03*
X007575Y004836D03*
X007075Y004841D03*
X006445Y005031D03*
X006445Y004519D03*
X009005Y004171D03*
X009005Y003659D03*
X009725Y004849D03*
X009725Y005361D03*
X012760Y006969D03*
X012760Y007481D03*
X013030Y006291D03*
X013030Y005779D03*
X009160Y007164D03*
X009160Y007676D03*
X009060Y009214D03*
X009510Y009214D03*
X009510Y009726D03*
X009060Y009726D03*
X003245Y009056D03*
X003245Y008544D03*
X003405Y007431D03*
X003405Y006919D03*
X009255Y002031D03*
X009255Y001519D03*
X008800Y001516D03*
X008330Y001381D03*
X008800Y001004D03*
X008330Y000869D03*
X009675Y000759D03*
X009675Y001271D03*
X010775Y001034D03*
X011310Y001014D03*
X011910Y001014D03*
X012650Y000829D03*
X012650Y001341D03*
X011910Y001526D03*
X011310Y001526D03*
X010775Y001546D03*
X015755Y003159D03*
X015755Y003671D03*
D13*
X014406Y002720D03*
X013894Y002720D03*
X009961Y003825D03*
X009449Y003825D03*
X009449Y004315D03*
X009961Y004315D03*
X011054Y006070D03*
X011566Y006070D03*
X013654Y006220D03*
X014166Y006220D03*
X015134Y005800D03*
X015646Y005800D03*
X014211Y005525D03*
X013699Y005525D03*
X018994Y006780D03*
X019506Y006780D03*
X019511Y007285D03*
X018999Y007285D03*
X019004Y007800D03*
X019516Y007800D03*
X019516Y008470D03*
X019004Y008470D03*
X019009Y008985D03*
X019521Y008985D03*
X014466Y009830D03*
X013954Y009830D03*
X014161Y009350D03*
X013649Y009350D03*
X005871Y005185D03*
X005359Y005185D03*
X004201Y005215D03*
X003689Y005215D03*
X002986Y005215D03*
X002474Y005215D03*
X005104Y003925D03*
X005616Y003925D03*
X003981Y002700D03*
X003469Y002700D03*
X003469Y002160D03*
X003981Y002160D03*
X005954Y001330D03*
X006466Y001330D03*
X006466Y000890D03*
X005954Y000890D03*
X007279Y000890D03*
X007791Y000890D03*
X007791Y001330D03*
X007279Y001330D03*
X007249Y001795D03*
X007761Y001795D03*
X003951Y007970D03*
X003439Y007970D03*
D14*
X015020Y007963D03*
X015020Y008277D03*
X015020Y008592D03*
X015020Y008907D03*
X015020Y009222D03*
X015020Y007648D03*
X015020Y007333D03*
X015020Y007018D03*
X018400Y007018D03*
X018400Y007333D03*
X018400Y007648D03*
X018400Y007963D03*
X018400Y008277D03*
X018400Y008592D03*
X018400Y008907D03*
X018400Y009222D03*
D15*
X017812Y009810D03*
X017497Y009810D03*
X017182Y009810D03*
X016867Y009810D03*
X016553Y009810D03*
X016238Y009810D03*
X015923Y009810D03*
X015608Y009810D03*
X015608Y006430D03*
X015923Y006430D03*
X016238Y006430D03*
X016553Y006430D03*
X016867Y006430D03*
X017182Y006430D03*
X017497Y006430D03*
X017812Y006430D03*
D16*
X008409Y006701D03*
X008409Y007134D03*
X008409Y007567D03*
X008409Y008000D03*
X008409Y008433D03*
X008409Y008866D03*
X008409Y009300D03*
X004669Y009300D03*
X004669Y008866D03*
X004669Y008433D03*
X004669Y008000D03*
X004669Y007567D03*
X004669Y007134D03*
X004669Y006701D03*
D17*
X004669Y006288D03*
X008409Y006288D03*
X008409Y009713D03*
X004669Y009713D03*
D18*
X003260Y009320D03*
X000465Y009320D03*
D19*
X013560Y001920D03*
X014560Y001920D03*
X015560Y001920D03*
X015560Y000920D03*
X014560Y000920D03*
X013560Y000920D03*
D20*
X006455Y002040D03*
X006455Y002710D03*
X006365Y003225D03*
X006365Y003895D03*
X003310Y004020D03*
X003310Y004690D03*
X003860Y008435D03*
X003860Y009105D03*
D21*
X009265Y006670D03*
X009265Y006080D03*
X007575Y005790D03*
X007075Y005785D03*
X007075Y005195D03*
X007575Y005200D03*
X018715Y006270D03*
X019305Y006270D03*
D22*
X002891Y007490D03*
X001729Y007490D03*
D23*
X002310Y008091D03*
D24*
X006980Y007960D03*
X006980Y006960D03*
X006980Y008960D03*
X004060Y001110D03*
X003060Y001110D03*
X002060Y001110D03*
X017465Y000880D03*
X018465Y000880D03*
D25*
X018301Y002776D03*
X018301Y002973D03*
X018301Y003170D03*
X018301Y003367D03*
X018301Y003564D03*
X019219Y003564D03*
X019219Y003367D03*
X019219Y003170D03*
X019219Y002973D03*
X019219Y002776D03*
X011754Y008611D03*
X011557Y008611D03*
X011360Y008611D03*
X011163Y008611D03*
X010966Y008611D03*
X010966Y009529D03*
X011163Y009529D03*
X011360Y009529D03*
X011557Y009529D03*
X011754Y009529D03*
D26*
X018652Y003810D03*
X018868Y003810D03*
X018868Y002530D03*
X018652Y002530D03*
D27*
X018760Y003170D03*
D28*
X018152Y003170D03*
X018152Y002973D03*
X018152Y002776D03*
X018152Y003367D03*
X018152Y003564D03*
X019368Y003564D03*
X019368Y003367D03*
X019368Y003170D03*
X019368Y002973D03*
X019368Y002776D03*
D29*
X017060Y002970D03*
X017060Y001970D03*
D30*
X019410Y001971D03*
X019410Y000869D03*
X010225Y006534D03*
X010225Y007636D03*
X010160Y008519D03*
X010160Y009621D03*
X012560Y009621D03*
X012560Y008519D03*
X005045Y002176D03*
X005045Y001074D03*
D31*
X017809Y005370D03*
X018911Y005370D03*
X018961Y004470D03*
X017859Y004470D03*
D32*
X012000Y008962D03*
X012000Y009178D03*
X010720Y009178D03*
X010720Y008962D03*
D33*
X011360Y009070D03*
D34*
X011360Y008462D03*
X011163Y008462D03*
X010966Y008462D03*
X011557Y008462D03*
X011754Y008462D03*
X011754Y009678D03*
X011557Y009678D03*
X011360Y009678D03*
X011163Y009678D03*
X010966Y009678D03*
D35*
X011110Y007120D03*
X012110Y007120D03*
D36*
X012387Y004670D03*
X010733Y004670D03*
X010733Y002670D03*
X012387Y002670D03*
D37*
X012537Y003670D03*
X010583Y003670D03*
D38*
X011110Y003670D03*
X012010Y003670D03*
D39*
X011960Y004170D03*
X011160Y004170D03*
X011160Y003170D03*
X011960Y003170D03*
D40*
X013881Y006931D03*
X013881Y008427D03*
D41*
X008557Y003449D03*
X008557Y003252D03*
X008557Y003055D03*
X008557Y002858D03*
X008557Y002661D03*
X006983Y002661D03*
X006983Y002858D03*
X006983Y003055D03*
X006983Y003252D03*
X006983Y003449D03*
D42*
X007376Y003842D03*
X007573Y003842D03*
X007770Y003842D03*
X007967Y003842D03*
X008164Y003842D03*
X008164Y002268D03*
X007967Y002268D03*
X007770Y002268D03*
X007573Y002268D03*
X007376Y002268D03*
D43*
X007770Y003055D03*
D44*
X005190Y003315D03*
X004520Y003315D03*
X003985Y003310D03*
X003315Y003310D03*
X005290Y004565D03*
X005960Y004565D03*
D45*
X001170Y004210D03*
X001170Y005210D03*
X001170Y006210D03*
D46*
X008269Y005356D03*
X008623Y005356D03*
X008977Y005356D03*
X009331Y005356D03*
X009331Y004884D03*
X008977Y004884D03*
X008623Y004884D03*
X008269Y004884D03*
D47*
X008665Y005880D03*
X010060Y005815D03*
X009645Y007840D03*
X009285Y008580D03*
X013615Y009905D03*
X014970Y009930D03*
X018405Y009705D03*
X018935Y010135D03*
X019685Y010140D03*
X003820Y007135D03*
X003815Y006700D03*
D48*
X013674Y004751D03*
X013674Y004160D03*
X013674Y003569D03*
X014816Y003569D03*
X014816Y004160D03*
X014816Y004751D03*
D49*
X014245Y004770D03*
M02*
